<?xml version="1.0" standalone="no"?>
<!DOCTYPE svg PUBLIC "-//W3C//DTD SVG 1.1//EN" "http://www.w3.org/Graphics/SVG/1.1/DTD/svg11.dtd" >
<svg xmlns="http://www.w3.org/2000/svg" xmlns:xlink="http://www.w3.org/1999/xlink" version="1.1">
<metadata>
Created by FontForge 20170731 at Mon Apr  6 22:28:17 2015
 By Aleksey,,,
Copyright (c) 2014-2015 by Typek - Ekaluck Peanpanawate &#38; Tippawan Sumnavong. All rights reserved. Exclusive Licensed for Chulalongkorn University.
</metadata>
<defs>
<font id="CHULALONGKORN-Bold" horiz-adv-x="0" >
  <font-face 
    font-family="CHULALONGKORN"
    font-weight="700"
    font-stretch="normal"
    units-per-em="2000"
    panose-1="2 0 8 6 5 0 0 2 0 4"
    ascent="1616"
    descent="-384"
    x-height="945"
    cap-height="1331"
    bbox="-1151 -808 7924 2073"
    underline-thickness="150"
    underline-position="-420"
    unicode-range="U+000D-FB02"
  />
<missing-glyph horiz-adv-x="954" 
d="M124 1330h706v-1330h-706v1330zM688 136v1058h-422v-1058h422z" />
    <glyph glyph-name="uni0E5A" unicode="&#xe2f;&#xe2f;" horiz-adv-x="1098" 
d="M439 867q-18 -16 -42 -27.5t-50.5 -19.5t-53.5 -12t-51 -4q-41 0 -78 13t-64.5 38.5t-44 64t-16.5 89.5q0 38 6.5 73.5t17.5 63.5h241q-10 -20 -17 -34.5t-11 -27.5t-6 -26.5t-2 -30.5q0 -20 11 -35.5t37 -15.5q25 0 50.5 13.5t49 37t45.5 54t42 65.5h165v-808
q0 -77 0.5 -126t2 -84t5.5 -64t11 -65q-13 0 -31.5 0.5t-37.5 1t-36.5 0.5h-27.5h-27t-36 -0.5t-37.5 -1t-31.5 -0.5q6 35 9.5 65t5 66t2 85t0.5 123v529zM757 -1q4 22 6.5 51t4 84t1.5 145.5v235.5v117v166.5t-0.5 119t-1.5 83t-3 58.5t-5.5 45t-7.5 43q12 0 30.5 -0.5
t37.5 -1t36.5 -1t27.5 -0.5t27.5 0.5t37 1t38 1t31.5 0.5q-5 -23 -8 -43t-5 -45t-3 -58.5t-1.5 -83t-0.5 -119v-166.5v-117v-166t0.5 -118.5t2 -83t3.5 -58.5t5.5 -45.5t8.5 -44.5q-12 0 -31 0.5t-38.5 1t-37 0.5h-28.5h-22h-25t-33.5 -0.5t-46.5 -1.5z" />
    <glyph glyph-name="uni0E4F.liga" unicode="&#xe4f;&#x22;" horiz-adv-x="1208" 
d="M792 525q0 -51 -17.5 -89t-45 -63.5t-61 -38t-65.5 -12.5t-66 12.5t-61.5 38t-45 63.5t-17.5 89q0 56 17 96.5t44 67t61 39t68 12.5t67.5 -12.5t60.5 -39t44 -67t17 -96.5zM605 0q-61 0 -121.5 13.5t-115.5 41t-103 70t-83 100.5t-55 133t-20 167t20 167t55 133.5t83 101
t103 70t115.5 41t121.5 13.5t121.5 -13.5t115.5 -41t103 -70t83 -101t55 -133.5t20 -167t-20 -167t-55 -133t-83 -100.5t-103 -70t-115.5 -41t-121.5 -13.5zM605 952q-75 0 -143 -25.5t-120.5 -78.5t-83.5 -133.5t-31 -189.5t31 -189.5t83.5 -133t120.5 -78t143 -25.5
t143 25.5t120.5 78t83.5 133t31 189.5t-31 189.5t-83.5 133.5t-120.5 78.5t-143 25.5z" />
    <glyph glyph-name="uni0E24.liga" unicode="&#xe24;&#xe32;" horiz-adv-x="1767" 
d="M742 795q0 46 -10.5 82t-34.5 61t-62.5 38.5t-93.5 13.5q-75 0 -130.5 -18t-94.5 -44q17 -19 35 -52t18 -87v-557q0 -35 3 -55t9.5 -29.5t16 -12t22.5 -2.5q17 0 32.5 2t37.5 5l-22 -121q-23 -6 -40.5 -10.5t-32 -7.5t-28 -4.5t-27.5 -1.5q-109 0 -161 56t-52 177v581
q0 33 -11.5 58.5t-25.5 42.5q-16 20 -36 35v29q34 29 87 62t117 61t136.5 46.5t146.5 18.5q217 0 331 -95t114 -272v-770v-127t1.5 -86t3.5 -64.5t7 -62.5q-13 0 -31.5 0.5l-37 1t-35.5 0.5h-28h-29t-37.5 -0.5t-38 -1t-31.5 -0.5q4 34 6.5 64t4 67.5t1.5 87v121.5v770z
M1662 25q0 -77 0.5 -125.5t2 -83.5t5.5 -64.5t11 -66.5q-13 0 -32.5 0.5t-39.5 1t-38.5 0.5h-28.5h-30t-40 -0.5t-41 -1t-33 -0.5q7 37 11.5 68t6 67t2 84.5t0.5 120.5v793q0 93 -36.5 132t-95.5 39q-75 0 -124.5 -25.5t-77.5 -57.5h-31q-2 13 -6 28.5t-11 35.5t-16.5 46.5
t-21.5 62.5q57 31 131 55.5t155 24.5q193 0 285.5 -83.5t92.5 -260.5v-790z" />
    <glyph glyph-name="uni0E26.liga" unicode="&#xe26;&#xe32;" horiz-adv-x="1767" 
d="M755 795q0 92 -52 143.5t-163 51.5q-74 0 -125 -17.5t-86 -42.5q9 -9 20 -22t20.5 -30.5t15.5 -39.5t6 -49v-561q0 -121 -50 -177t-159 -56q-29 0 -61 4t-77 17l-14 125q17 -3 36.5 -5.5t30.5 -2.5t20 2.5t16 11.5t10.5 25.5t3.5 43.5v582q0 33 -13 58.5t-29 42.5
q-18 20 -42 36v27q25 30 75 65t114.5 65t139 50t148.5 20q107 0 192 -24.5t144.5 -71.5t91 -115t31.5 -156v-770v-127t1.5 -86t3.5 -64.5t7 -62.5q-13 0 -31.5 0.5l-37 1t-35.5 0.5h-28h-29t-37.5 -0.5t-38 -1t-31.5 -0.5q4 34 6.5 64t4 67.5t1.5 87v121.5v770zM1662 25
q0 -77 0.5 -125.5t2 -83.5t5.5 -64.5t11 -66.5q-13 0 -32.5 0.5t-39.5 1t-38.5 0.5h-28.5h-30t-40 -0.5t-41 -1t-33 -0.5q7 37 11.5 68t6 67t2 84.5t0.5 120.5v793q0 93 -36.5 132t-95.5 39q-75 0 -124.5 -25.5t-77.5 -57.5h-31q-2 13 -6 28.5t-11 35.5t-16.5 46.5
t-21.5 62.5q57 31 131 55.5t155 24.5q193 0 285.5 -83.5t92.5 -260.5v-790z" />
    <glyph glyph-name="fi" unicode="fi" horiz-adv-x="1032" 
d="M901 318q0 -72 0.5 -117.5t2 -78.5t5 -60.5t9.5 -62.5q-12 0 -30.5 0.5t-37.5 1t-37 0.5h-28h-29.5t-38 -0.5t-38 -1t-30.5 -0.5q6 35 9.5 63.5t5 62.5t2 79.5t0.5 113.5v314v83t-1 64q-28 1 -65 2t-74 1.5t-68 1t-47 0.5v-466q0 -72 0.5 -117.5t2 -78.5t5 -60.5
t10.5 -62.5q-12 0 -30.5 0.5t-38 1t-37 0.5h-28.5h-29t-37.5 -0.5t-38 -1t-30.5 -0.5q6 35 9 63.5t4.5 62.5t2 79.5t0.5 113.5v466q-16 0 -36.5 -0.5t-41 -1.5t-40 -2t-33.5 -2v12t0.5 23t0.5 27v23v22.5t-0.5 27t-0.5 23.5v13q21 -2 43.5 -3.5t43 -2.5t37.5 -1.5t27 -0.5
v33q0 90 30 161t83 120.5t124 76t154 26.5q21 0 44.5 -2.5t47 -6t44 -8.5t34.5 -10l-35 -168l-13 -2q-16 13 -49 23t-64 10q-36 0 -66.5 -11.5t-52.5 -35.5t-34 -61.5t-12 -89.5v-57q60 2 94.5 3t54 2.5t27.5 2t15 1t16 1t31 1.5q12 0 30.5 -0.5t38 -1t38 -0.5h29.5h28
t37 0.5t37.5 1t30.5 0.5q-6 -35 -9.5 -62.5t-5 -60.5t-2 -78.5t-0.5 -116.5v-314z" />
    <glyph glyph-name="fl" unicode="fl" horiz-adv-x="1100" 
d="M853 0h-28.5t-37 -0.5t-38 -1t-30.5 -0.5q6 35 9.5 62.5t5 61t2 79t0.5 117.5v692v81.5t-1 61.5q-9 6 -26.5 13.5t-37.5 13.5t-40 10t-35 4q-84 0 -134.5 -46.5t-50.5 -151.5v-57q20 0 46 1t54.5 2l57 2t53.5 2q-1 -5 -1.5 -16t-1 -25l-1 -28t-0.5 -23q0 -14 0.5 -29.5
t3.5 -46.5q-26 1 -55.5 2.5t-58 2t-54 1t-43.5 0.5v-466q0 -72 0.5 -117.5t2 -78.5t5 -60.5t10.5 -62.5q-12 0 -30.5 0.5t-38 1t-37 0.5h-28.5h-29t-37.5 -0.5t-38 -1t-30.5 -0.5q6 35 9 63.5t4.5 62.5t2 79.5t0.5 113.5v466q-16 0 -36.5 -0.5t-41 -1.5t-40 -2t-33.5 -2v12
t0.5 23t0.5 27v23v22.5t-0.5 27t-0.5 23.5v13q21 -2 43.5 -3.5t43 -2.5t37.5 -1.5t27 -0.5v33q0 90 28 161t80 120.5t126 76t167 26.5q30 0 69 -5t82.5 -11t88.5 -11t86 -5q21 0 39.5 0.5t43.5 1.5q-6 -35 -9.5 -62.5t-5 -60.5t-2 -78.5t-0.5 -116.5v-692q0 -72 0.5 -117.5
t2 -79t5 -61t9.5 -62.5q-12 0 -30.5 0.5t-38 1t-37 0.5h-27.5z" />
    <glyph glyph-name=".notdef" horiz-adv-x="954" 
d="M124 1330h706v-1330h-706v1330zM688 136v1058h-422v-1058h422z" />
    <glyph glyph-name=".null" 
 />
    <glyph glyph-name=".null" 
 />
    <glyph glyph-name="nonmarkingreturn" unicode="&#xd;" horiz-adv-x="494" 
 />
    <glyph glyph-name="space" unicode=" " horiz-adv-x="494" 
 />
    <glyph glyph-name="exclam" unicode="!" horiz-adv-x="493" 
d="M371 121q0 -54 -35 -87.5t-95 -33.5q-61 0 -95.5 33.5t-34.5 87.5t34.5 87t95.5 33q60 0 95 -33t35 -87zM309 382q-20 1 -36.5 1.5t-32 0.5t-32.5 -0.5t-37 -1.5q-15 157 -27 286l-10 110t-9 101t-7 80t-3 47q-2 54 -3 98.5t-2.5 83.5t-2.5 74t-3 69q13 0 31.5 -0.5
t38 -1t37.5 -1t29 -0.5t29 0.5t37.5 1t38 1t31.5 0.5q-2 -34 -3 -69t-2.5 -74t-2.5 -83.5t-3 -98.5q0 -13 -3 -47t-7 -80t-9 -101l-10 -110q-12 -129 -27 -286z" />
    <glyph glyph-name="quotedbl" unicode="&#x22;" horiz-adv-x="712" 
d="M197 843q-15 0 -29.5 -0.5t-31.5 -1.5q-14 67 -25 133q-5 28 -10 58.5t-9.5 60.5t-8 58t-5.5 52q-2 18 -2.5 33.5t-1 30t-1 30t-1.5 34.5q13 -1 30.5 -1.5t35.5 -0.5h34h25h25h34t35.5 0.5t30.5 1.5q-1 -17 -1.5 -30.5t-1 -27.5t-1 -31t-2.5 -39q-2 -24 -5.5 -52t-8 -58
t-9.5 -60.5t-10 -58.5q-11 -66 -25 -133q-17 1 -31.5 1.5t-29.5 0.5zM515 843q-15 0 -29.5 -0.5t-31.5 -1.5q-14 67 -25 133q-5 28 -10 58.5t-9.5 60.5t-8 58t-5.5 52q-2 18 -2.5 33.5t-1 30t-1 30t-1.5 34.5q13 -1 30.5 -1.5t35.5 -0.5h34h25h25h34t35.5 0.5t30.5 1.5
q-1 -17 -1.5 -30.5t-1 -27.5t-1 -31t-2.5 -39q-2 -24 -5.5 -52t-8 -58t-9.5 -60.5t-10 -58.5q-11 -66 -25 -133q-17 1 -31.5 1.5t-29.5 0.5z" />
    <glyph glyph-name="numbersign" unicode="#" horiz-adv-x="928" 
d="M896 1020l-15 -155h-798l13 155h800zM845 482l-12 -155h-798l12 155h798zM671 0h-181l120 1330h182zM320 0h-182l119 1330h183z" />
    <glyph glyph-name="dollar" unicode="$" horiz-adv-x="988" 
d="M445 163q-43 0 -83 9.5t-74 26t-60.5 40t-42.5 52.5h-36q-9 -34 -31 -84.5t-48 -107.5q71 -51 166.5 -81.5t207.5 -30.5q104 0 188 25t143 75t91 125t32 175q0 89 -24.5 149t-64 99.5t-90.5 63t-103.5 40t-103.5 30.5t-90.5 35t-64 53t-24.5 85q0 42 16 73.5t43.5 53.5
t64 33t76.5 11t78.5 -6.5t71 -19.5t55.5 -32t34 -43h36q7 24 12.5 41t12.5 35t18 41t29 59q-26 18 -62.5 36t-80.5 32t-93 22.5t-100 8.5q-104 0 -188 -27t-143.5 -75.5t-92 -116t-32.5 -147.5q0 -71 24 -121.5t63.5 -86.5t89.5 -61t102.5 -45.5t103 -40t90 -44t63.5 -58.5
t24 -83q0 -106 -54.5 -162t-148.5 -56zM560 1151v122t1.5 88.5t3.5 64t7 49.5q-24 0 -43.5 -0.5t-28.5 -0.5t-27 0.5t-45 0.5q4 -23 6.5 -49.5t4 -64t1.5 -88.5v-122v-1029v-122t-1.5 -88.5t-4 -64.5t-6.5 -49q32 0 47.5 0.5t24.5 0.5t25.5 -0.5t46.5 -0.5q-5 22 -7 49
t-3.5 64.5t-1.5 88.5v122v1029z" />
    <glyph glyph-name="percent" unicode="%" horiz-adv-x="1700" 
d="M408 689q24 0 44 12t33.5 40.5t21 75t7.5 116.5t-7.5 117t-21 75.5t-33.5 40.5t-44 12t-44 -12t-33.5 -40.5t-21 -75.5t-7.5 -117t7.5 -116.5t21 -75t33.5 -40.5t44 -12zM736 159q-18 -41 -31 -79t-18 -80q-14 0 -25 0.5t-21.5 0.5t-22 0.5t-27.5 0.5q-8 0 -24 -0.5
t-34 -1t-35 -1.5t-27 -1l491 1129q11 25 22 53.5t20 56.5t15.5 52.5t8.5 40.5q29 0 52.5 -1t55.5 -1q7 0 23 0.5t34 1t35.5 1.5t27.5 1zM408 539q-147 0 -222.5 95t-75.5 299q0 205 75.5 300t222.5 95t222.5 -95t75.5 -300q0 -204 -75.5 -299t-222.5 -95zM1302 135
q24 0 44 12t33.5 40.5t21 75t7.5 116.5t-7.5 117t-21 75.5t-33.5 40.5t-44 12t-44 -12t-33.5 -40.5t-21 -75.5t-7.5 -117t7.5 -116.5t21 -75t33.5 -40.5t44 -12zM1302 -15q-147 0 -222.5 95t-75.5 299q0 205 75.5 300t222.5 95t222.5 -95t75.5 -300q0 -204 -75.5 -299
t-222.5 -95z" />
    <glyph glyph-name="ampersand" unicode="&#x26;" horiz-adv-x="1142" 
d="M486 709q-54 -32 -88.5 -108.5t-34.5 -208.5q0 -124 49 -180t136 -56q61 0 102.5 31.5t67.5 88.5t37.5 135.5t11.5 172.5q0 33 -4 68t-18 61v21h242v-107q0 -72 -10.5 -147.5t-33 -146.5t-58.5 -134.5t-87 -110.5t-119 -74.5t-154 -27.5q-93 0 -167.5 25.5t-126.5 76
t-80 124t-28 169.5q0 83 23.5 149t66 116t102 85.5t130.5 57.5q40 35 65 68t38.5 66t18 66.5t4.5 70.5q0 54 -19 83.5t-52 29.5q-30 0 -51.5 -29t-21.5 -85q0 -60 21 -108t54 -100q141 -220 246.5 -373t176.5 -251q83 -114 141 -186v-41h-265l-480 716q-28 41 -52.5 83
t-42.5 84t-28.5 85t-10.5 86q0 61 22 114t63 92t98.5 61t129.5 22q71 0 127 -20t94.5 -57.5t59 -90t20.5 -117.5q0 -56 -17.5 -108.5t-55.5 -98t-97.5 -82t-144.5 -60.5z" />
    <glyph glyph-name="quotesingle" unicode="'" horiz-adv-x="406" 
d="M197 843q-15 0 -29.5 -0.5t-31.5 -1.5q-14 67 -25 133q-5 28 -10 58.5t-9.5 60.5t-8 58t-5.5 52q-2 18 -2.5 33.5t-1 30t-1 30t-1.5 34.5q13 -1 30.5 -1.5t35.5 -0.5h34h25h25h34t35.5 0.5t30.5 1.5q-1 -17 -1.5 -30.5t-1 -27.5t-1 -31t-2.5 -39q-2 -24 -5.5 -52t-8 -58
t-9.5 -60.5t-10 -58.5q-11 -66 -25 -133q-17 1 -31.5 1.5t-29.5 0.5z" />
    <glyph glyph-name="parenleft" unicode="(" horiz-adv-x="632" 
d="M71 664q0 122 18.5 243t53 235.5t83.5 219.5t111 196h223q-65 -105 -111.5 -207t-77.5 -209.5t-45.5 -225t-14.5 -252.5t14.5 -252t45.5 -224t77.5 -209t111.5 -207h-223q-62 91 -111 196t-83.5 219.5t-53 235t-18.5 241.5z" />
    <glyph glyph-name="parenright" unicode=")" horiz-adv-x="632" 
d="M548 664q0 -121 -18.5 -241.5t-53 -235t-83.5 -219.5t-111 -196h-223q64 105 111 207t77.5 209t45 224t14.5 252t-14.5 252.5t-45 225t-77.5 209.5t-111 207h223q62 -91 111 -196t83.5 -219.5t53 -235.5t18.5 -243z" />
    <glyph glyph-name="asterisk" unicode="*" horiz-adv-x="948" 
d="M466 655q-20 0 -39.5 -0.5t-50.5 -2.5l34 264l-211 -155q-17 42 -34.5 75.5t-43.5 71.5l256 101l-261 121q15 18 26 33t21 30t19.5 33t21.5 43l206 -152l-34 252q25 -2 50.5 -3t39.5 -1t39.5 1t50.5 3l-34 -252l206 152q12 -25 21.5 -43t19.5 -33t21 -30t26 -33
l-261 -121l256 -101q-26 -38 -43.5 -71.5t-34.5 -75.5l-211 155l34 -264q-31 2 -50.5 2.5t-39.5 0.5z" />
    <glyph glyph-name="plus" unicode="+" horiz-adv-x="1086" 
d="M630 377q0 -15 0.5 -35.5t1 -43t1.5 -45t3 -42.5h-14.5t-29 0.5t-33 0.5h-27.5h-28t-33.5 -0.5t-29.5 -0.5h-16q2 23 3.5 48t2 47.5t1 41t0.5 29.5v138h-119q-16 0 -38.5 -0.5t-47.5 -1.5t-50 -2.5t-46 -2.5v12.5t0.5 24.5t0.5 28.5v23.5v23.5t-0.5 28.5t-0.5 24.5v12.5
q21 -2 46 -3l50 -2t47.5 -1.5t38.5 -0.5h119v138q0 10 -0.5 29t-1 41.5t-2 47.5t-3.5 48h16t29.5 -0.5t33.5 -0.5h28h27.5t33 0.5t29 0.5h14.5q-2 -20 -3 -42.5t-1.5 -45t-1 -43t-0.5 -35.5v-138h119q16 0 38.5 0.5t47.5 1.5l50 2t46 3v-12.5t-0.5 -24.5t-0.5 -28.5v-23.5
v-23.5t0.5 -28.5t0.5 -24.5v-12.5q-21 1 -46 2.5t-50 2.5t-47.5 1.5t-38.5 0.5h-119v-138z" />
    <glyph glyph-name="comma" unicode="," horiz-adv-x="453" 
d="M10 -297q37 51 59 90t33 81t14 92.5t3 123.5q0 55 26.5 87t75.5 32q56 0 82 -34t26 -82t-16.5 -95.5t-48.5 -96.5t-79 -100t-108 -108z" />
    <glyph glyph-name="hyphen" unicode="-" horiz-adv-x="900" 
d="M314 508q-16 0 -38.5 -0.5t-47.5 -1.5t-50 -2.5t-46 -2.5v12.5t0.5 25t0.5 29v25.5v25.5t-0.5 29.5t-0.5 25v14q24 -2 51.5 -3t53 -2t46 -1.5t31.5 -0.5h267q15 0 38.5 0.5t49.5 2t52 2.5t47 3q-5 -26 -5.5 -48t-0.5 -45q0 -20 0.5 -41.5t5.5 -52.5q-24 1 -52.5 2.5
t-54.5 2.5t-47.5 1.5t-32.5 0.5h-267z" />
    <glyph glyph-name="period" unicode="." horiz-adv-x="460" 
d="M100 110q0 54 34.5 87t95.5 33t95.5 -33t34.5 -87t-34.5 -87t-95.5 -33t-95.5 33t-34.5 87z" />
    <glyph glyph-name="slash" unicode="/" horiz-adv-x="672" 
d="M276 6q-7 -26 -14 -57.5t-12.5 -61t-9.5 -53.5t-5 -36q-10 0 -26 0.5t-33.5 1t-33.5 1t-27 0.5q-9 0 -26 -0.5t-35.5 -1t-36 -1.5t-27.5 -1l407 1524q7 26 14 57.5t12.5 61t9 54t5.5 36.5q10 0 26 -0.5t33.5 -1t34 -1t27.5 -0.5q9 0 25.5 0.5t35 1t35.5 1.5t27 1z" />
    <glyph glyph-name="zero" unicode="0" horiz-adv-x="988" 
d="M493 1173q-46 0 -81 -21.5t-58.5 -78t-35.5 -154t-12 -249.5q0 -149 12 -247.5t35 -157.5t58 -83.5t82 -24.5q46 0 81.5 24.5t58.5 83.5t35 157.5t12 247.5q0 152 -12 249.5t-35.5 154t-58.5 78t-81 21.5zM493 -13q-118 0 -199.5 42.5t-132 129t-73 216.5t-22.5 304
q0 167 22.5 292t73 207.5t132 123.5t199.5 41t199.5 -41t132 -123.5t73 -207.5t22.5 -292q0 -174 -22.5 -304t-73 -216.5t-132 -129t-199.5 -42.5z" />
    <glyph glyph-name="one" unicode="1" horiz-adv-x="780" 
d="M145 993q-26 51 -45 76t-39 38v23q55 21 115 47.5t120 56t118 60t109 59.5l39 -16q-2 -20 -4 -38t-3 -41.5t-1.5 -57t-1 -84.5t-0.5 -124.5v-176.5v-300v-167t0.5 -119.5t1.5 -83t2.5 -58.5t4 -45t6.5 -43q-12 0 -31 0.5t-39 1t-39 0.5h-31h-30t-37.5 -0.5t-37.5 -1
t-30 -0.5q4 23 6.5 44t4.5 46t3 58.5t1.5 83.5t0.5 119v165v561z" />
    <glyph glyph-name="two" unicode="2" horiz-adv-x="988" 
d="M126 166q0 93 25.5 165t67 130t93 104.5t103.5 88.5q42 34 81.5 69.5t70.5 76.5t50 89.5t19 110.5q0 89 -47.5 129t-128.5 40q-43 0 -77 -9.5t-60.5 -26t-44.5 -38t-28 -45.5h-25q-6 23 -12.5 39.5t-17 34.5t-26.5 41.5t-40 59.5q26 21 62 42t80.5 38t96 27.5t108.5 10.5
q203 0 306.5 -91t103.5 -267q0 -82 -23.5 -145.5t-62 -116t-87 -97t-99.5 -87.5q-43 -36 -83.5 -73t-73.5 -79.5t-54.5 -92.5t-26.5 -112q118 0 195.5 1t131.5 3.5t92 7t77 11.5q-4 -36 -4.5 -62t-0.5 -50q0 -23 0.5 -47.5t5.5 -49.5q-42 3 -86.5 3.5t-93.5 0.5h-567v166z
" />
    <glyph glyph-name="three" unicode="3" horiz-adv-x="988" 
d="M426 -13q-50 0 -100.5 8t-97.5 23t-89 35.5t-75 45.5q28 57 51 107.5t32 84.5h35q14 -29 39.5 -51.5t58 -38.5t70.5 -24.5t78 -8.5q105 0 159 55.5t54 172.5q0 55 -15 95.5t-43 67.5t-67 40t-88 13h-31q-15 0 -35 -0.5t-42.5 -1t-45 -2t-41.5 -2.5v11.5t0.5 24.5t0.5 29
v25v25.5t-0.5 30t-0.5 25.5v13q22 -2 46.5 -3t47.5 -2.5t41.5 -2t28.5 -0.5h23q44 0 80 10.5t61 33.5t38.5 59t13.5 88q0 196 -184 196q-39 0 -74 -9.5t-64 -26t-50.5 -38t-33.5 -45.5h-35q-6 23 -12.5 39.5t-16.5 34.5t-26 41.5t-41 59.5q25 19 63.5 40t85 38.5t98 28.5
t104.5 11q96 0 175.5 -22.5t136 -67t88 -111.5t31.5 -156q0 -52 -12.5 -97t-35.5 -81.5t-55 -63.5t-71 -42q38 -10 75 -32t66 -58t47 -87t18 -117q0 -107 -32.5 -186.5t-93 -131.5t-146.5 -77.5t-192 -25.5z" />
    <glyph glyph-name="four" unicode="4" horiz-adv-x="988" 
d="M66 373q57 200 106 382q21 78 42.5 159.5t40.5 158t34.5 143.5t24.5 115q12 0 28.5 -0.5t32.5 -1t30.5 -1t22.5 -0.5q9 0 25.5 0.5t35.5 1t37.5 1.5t30.5 1l-226 -848h235q0 45 -0.5 102.5t-2 115.5t-5 108.5t-8.5 80.5q12 0 30 -0.5t37.5 -1t37 -1t28.5 -0.5
q10 0 28 0.5t37.5 1t38.5 1t32 0.5q-6 -32 -9.5 -83t-5.5 -108.5t-2.5 -114.5t-0.5 -101q33 1 71 3.5t68 4.5q-5 -26 -5.5 -50t-0.5 -49q0 -23 0.5 -46.5t5.5 -53.5q-46 3 -81.5 6t-57.5 3q0 -85 3.5 -164t15.5 -139q-12 0 -31 0.5t-38.5 1t-37.5 0.5h-29h-29t-37.5 -0.5
t-38 -1t-30.5 -0.5q5 30 8.5 66t5.5 75.5t2.5 81t0.5 80.5h-500v71z" />
    <glyph glyph-name="five" unicode="5" horiz-adv-x="988" 
d="M840 1135q-20 3 -37.5 5t-39.5 3t-51 2t-70.5 1.5t-99.5 1t-137 0.5v-333h26q225 0 340.5 -95.5t115.5 -302.5q0 -120 -34.5 -202t-96 -133t-146.5 -73t-186 -22t-192 30.5t-156 81.5q16 25 31 51.5t27.5 52t21.5 48.5t13 40h36q29 -57 89.5 -92.5t139.5 -35.5
q43 0 80.5 13.5t64.5 42.5t42.5 75.5t15.5 111.5q0 122 -57.5 174.5t-169.5 52.5h-245v536q0 25 -1.5 53t-3.5 52l-4 56h684q-3 -29 -3.5 -51.5t-0.5 -38.5q0 -20 0.5 -45t3.5 -60z" />
    <glyph glyph-name="six" unicode="6" horiz-adv-x="988" 
d="M495 702q-32 0 -61.5 -13.5t-52.5 -43.5t-36.5 -78.5t-13.5 -118.5q0 -78 12 -133t33.5 -89.5t50.5 -50.5t62 -16q78 0 121.5 68t43.5 222q0 70 -12.5 118t-34 78t-50.5 43.5t-62 13.5zM331 797q27 29 77 52t113 23q84 0 154 -25.5t119.5 -78t77 -132.5t27.5 -188
q0 -102 -26.5 -187t-78 -146t-128.5 -94.5t-178 -33.5q-87 0 -160.5 32.5t-127 97t-83.5 162t-30 228.5v308q0 107 30 203t89.5 168t148.5 114.5t207 42.5q57 0 116 -8.5t110 -21.5l14 -168l-15 -15q-36 11 -64 18t-54 10.5t-52.5 5t-59.5 1.5q-50 0 -91.5 -21.5
t-71.5 -63.5t-46.5 -104.5t-16.5 -144.5v-34z" />
    <glyph glyph-name="seven" unicode="7" horiz-adv-x="926" 
d="M405 -1q-10 0 -25.5 0.5t-32.5 1t-33.5 0.5h-28.5t-32 -0.5t-42 -1t-41.5 -1t-30.5 -0.5l424 1150h-298q-26 0 -69.5 -3t-103.5 -11v13.5t0.5 27t0.5 31.5v28v28.5t-0.5 31.5t-0.5 26.5v14.5q21 -1 47 -2t50.5 -1.5t45 -1t30.5 -0.5h589v-78z" />
    <glyph glyph-name="eight" unicode="8" horiz-adv-x="988" 
d="M680 371q0 62 -18 106.5t-50.5 73.5t-78.5 44t-103 17q-30 -17 -52.5 -37t-37.5 -48t-22.5 -65.5t-7.5 -90.5q0 -57 13.5 -97t38 -65.5t58 -37.5t74.5 -12q40 0 74.5 12t59 37.5t38.5 65.5t14 97zM657 980q0 99 -42.5 145t-120.5 46q-76 0 -119 -48t-43 -143
q0 -93 56.5 -148.5t164.5 -58.5q24 13 43 35t32.5 49t21 58.5t7.5 64.5zM918 388q0 -194 -106.5 -297.5t-317.5 -103.5q-212 0 -318 103.5t-106 297.5q0 61 15 109t39 84.5t54 63t61 44.5q-28 18 -54 43.5t-46 59.5t-32 76.5t-12 94.5q0 96 32 167.5t86.5 118.5t127 70.5
t153.5 23.5t153.5 -23t127.5 -70t87 -118.5t32 -168.5q0 -93 -39 -155.5t-105 -103.5q36 -19 66.5 -47.5t53 -67.5t35.5 -89t13 -112z" />
    <glyph glyph-name="nine" unicode="9" horiz-adv-x="988" 
d="M491 628q32 0 61.5 13.5t52.5 43.5t36.5 78.5t13.5 118.5q0 78 -12 133t-33.5 89.5t-50.5 50.5t-62 16q-78 0 -121.5 -68t-43.5 -222q0 -70 12.5 -118t34 -78t50.5 -43.5t62 -13.5zM655 533q-27 -29 -77 -52t-113 -23q-84 0 -154 25.5t-119.5 78t-77 132.5t-27.5 188
q0 102 26 187t78 146t129 94.5t178 33.5q87 0 160.5 -32.5t127 -97t83.5 -162.5t30 -228v-308q0 -117 -30 -214t-89.5 -167t-148.5 -108.5t-207 -38.5q-57 0 -116 8.5t-110 21.5l-14 168l15 15q36 -11 62.5 -18t50.5 -10.5t49 -5t58 -1.5q50 0 93.5 16.5t75 53t49.5 94
t18 140.5v64z" />
    <glyph glyph-name="colon" unicode=":" horiz-adv-x="460" 
d="M100 119q0 54 34.5 87t95.5 33t95.5 -33t34.5 -87t-34.5 -87t-95.5 -33t-95.5 33t-34.5 87zM100 841q0 54 34.5 87t95.5 33t95.5 -33t34.5 -87t-34.5 -87t-95.5 -33t-95.5 33t-34.5 87z" />
    <glyph glyph-name="semicolon" unicode=";" horiz-adv-x="453" 
d="M100 841q0 54 34.5 87t95.5 33t95.5 -33t34.5 -87t-34.5 -87t-95.5 -33t-95.5 33t-34.5 87zM0 -297q36 49 58.5 89t35 82t16.5 93t4 123q0 24 6.5 45.5t20.5 38t35 26t50 9.5q56 0 82 -34t26 -82t-17 -95.5t-49.5 -96t-80 -100t-108.5 -108.5z" />
    <glyph glyph-name="less" unicode="&#x3c;" horiz-adv-x="1086" 
d="M934 368q-1 -22 -1.5 -45.5t-0.5 -38.5q0 -8 0.5 -24.5t1 -35.5t1.5 -37t1 -28l-806 414q2 24 3.5 38.5t1.5 22.5q0 9 -1.5 25.5t-3.5 44.5l806 403q0 -11 -1 -29t-1.5 -37.5t-1 -36.5t-0.5 -26q0 -17 1 -42.5t2 -46.5l-520 -250z" />
    <glyph glyph-name="equal" unicode="=" horiz-adv-x="1086" 
d="M325 339q-15 0 -38 -0.5t-48 -1.5t-50 -2.5t-46 -2.5v12.5t0.5 25t0.5 29v25.5v25.5t-0.5 29.5t-0.5 25v14q24 -2 51.5 -3t53 -2t46 -1.5t31.5 -0.5h414q16 0 39.5 0.5t49.5 2t52 2.5t46 3q-5 -26 -5.5 -48.5t-0.5 -44.5q0 -20 0.5 -42t5.5 -52q-24 1 -52 2.5t-54.5 2.5
t-48 1.5t-32.5 0.5h-414zM325 681q-15 0 -38 -0.5t-48 -1.5l-50 -2t-46 -2v12t0.5 25t0.5 29v25v25.5t-0.5 29.5t-0.5 25v14q24 -2 51.5 -3t53 -2t46 -1.5t31.5 -0.5h414q16 0 39.5 0.5t49.5 2t52 2.5t46 3q-5 -26 -5.5 -48t-0.5 -45q0 -20 0.5 -41.5t5.5 -51.5q-24 1 -52 2
t-54.5 2t-48 1.5t-32.5 0.5h-414z" />
    <glyph glyph-name="greater" unicode="&#x3e;" horiz-adv-x="1086" 
d="M652 639l-521 250q1 21 1.5 46.5t0.5 42.5q0 9 -0.5 26t-1 36.5t-1 37.5t-0.5 29l806 -403q-2 -27 -3.5 -44t-1.5 -26q0 -8 1.5 -22.5t3.5 -38.5l-806 -414q0 10 0.5 28t1 37t1 35.5t0.5 24.5v38.5t-1 45.5z" />
    <glyph glyph-name="question" unicode="?" horiz-adv-x="711" 
d="M449 121q0 -54 -35 -87.5t-95 -33.5q-61 0 -95.5 33.5t-34.5 87.5t34.5 87t95.5 33q60 0 95 -33t35 -87zM424 398q-27 1 -44.5 1.5t-29.5 0.5h-19.5h-14.5h-20.5t-29.5 -0.5t-31.5 -1t-27.5 -0.5v150q0 56 18 100t45.5 81.5t59.5 71.5t59.5 70.5t45.5 77.5t18 93
q0 69 -38 98t-105 29q-36 0 -68 -8.5t-57.5 -23.5t-44 -35t-28.5 -43h-27q-7 24 -12.5 42t-13 37.5t-18.5 43.5t-28 59q26 19 59.5 37.5t73 33t84 23t92.5 8.5q181 0 275.5 -82.5t94.5 -229.5q0 -62 -20.5 -108.5t-51 -84.5t-66 -71.5t-66 -68.5t-51 -75.5t-20.5 -93.5
q0 -26 0.5 -49.5t2.5 -41.5q2 -21 4 -40z" />
    <glyph glyph-name="at" unicode="@" horiz-adv-x="1610" 
d="M855 861q-8 2 -17 2.5t-14 0.5q-63 0 -98 -53.5t-35 -169.5q0 -100 17.5 -148.5t64.5 -48.5q40 0 61 31.5t21 101.5v284zM841 -25q-164 0 -294.5 43.5t-221.5 129t-139 213t-48 295.5q0 160 48.5 287.5t136 216.5t209.5 136t268 47q151 0 272.5 -42.5t207 -121
t131.5 -190.5t46 -250q0 -113 -27.5 -200.5t-74 -148.5t-108.5 -92.5t-131 -31.5q-94 0 -143.5 33.5t-72.5 96.5q-26 -53 -69 -85t-116 -32q-60 0 -105.5 26t-76.5 73.5t-46.5 112.5t-15.5 143q0 82 22.5 152.5t68 121.5t115 80t164.5 29q22 0 50.5 -3t60 -8t63.5 -11.5
t60 -12.5v-519q0 -50 34 -50q21 0 46.5 12.5t48 48t38 99.5t15.5 166q0 219 -116 331.5t-341 112.5q-104 0 -189.5 -32.5t-146 -98t-93.5 -164.5t-33 -232q0 -124 34.5 -221t100 -163.5t158.5 -101.5t210 -35q81 0 151 9.5t124 26.5l13 -9l-32 -157q-22 -5 -55.5 -10
t-70 -9.5t-71.5 -7.5t-59 -3z" />
    <glyph glyph-name="A" unicode="A" horiz-adv-x="1060" 
d="M511 877l-256 -879q-17 1 -47.5 2t-54.5 1q-13 0 -32.5 -0.5t-39.5 -1t-37.5 -1.5t-25.5 -1l431 1343h161l432 -1342q-9 0 -28.5 0.5t-41.5 1t-43.5 1t-34.5 0.5t-31 -0.5l-36 -1t-33.5 -1t-24.5 -0.5zM287 297h469v174h-469v-174z" />
    <glyph glyph-name="B" unicode="B" horiz-adv-x="1146" 
d="M772 389q0 110 -50 156.5t-154 46.5h-150v-426q36 -2 77.5 -3.5t80.5 -1.5q40 0 76 7.5t62.5 31.5t42 69t15.5 120zM741 963q0 52 -9 91.5t-30 65t-56 38.5t-86 13q-23 0 -48 -1t-46 -2q-25 -2 -48 -3v-401h132q30 0 63.5 6t62 26.5t47 60t18.5 106.5zM128 1330
q78 3 152 6q31 1 65 2.5t67 2.5t64 1.5t56 0.5q112 0 200 -20.5t149 -65t93 -114t32 -167.5q0 -51 -16 -96t-41 -81.5t-56 -64.5t-61 -46q45 -15 83.5 -38t66 -57.5t43.5 -82t16 -109.5q0 -121 -33.5 -200.5t-96 -127t-151.5 -67t-200 -19.5q-33 0 -69 0.5t-72.5 1.5
t-72.5 2t-68 2q-76 3 -150 7q5 22 8 42t5 45t3.5 58t2 83t0.5 119.5v167.5v300v167t-0.5 120t-2 83t-3.5 58t-5 44.5t-8 42.5z" />
    <glyph glyph-name="C" unicode="C" horiz-adv-x="1037" 
d="M946 195l-26 -170q-21 -5 -53 -11.5t-67 -12.5t-69.5 -10t-60.5 -4q-137 0 -243 33.5t-179 114t-110.5 214.5t-37.5 336q0 335 140.5 496.5t419.5 161.5q36 0 74.5 -5t76.5 -14.5t74.5 -23t66.5 -31.5q-16 -32 -29 -55.5t-23 -43.5t-17 -38t-10 -37h-18q-12 10 -30 22
t-44 22.5t-60 17t-77 6.5q-68 0 -119 -24t-85.5 -81t-52 -151t-17.5 -235q0 -159 21.5 -258t60 -154.5t91 -75t115.5 -19.5q43 0 80.5 4t70 10.5t62 14.5t56.5 17z" />
    <glyph glyph-name="D" unicode="D" horiz-adv-x="1180" 
d="M801 672q0 159 -22.5 257t-60.5 151t-88.5 71t-106.5 18q-29 0 -52 -1t-40 -2q-19 -1 -34 -2v-999q17 -1 31 -1.5l28 -1t29.5 -1t35.5 -0.5q57 0 107.5 25t89 84t61 157.5t22.5 244.5zM120 0q3 16 5 32t3.5 39t2 56t1 84t0.5 123.5v173.5v314v173.5t-0.5 123.5t-1 84
t-2 56t-3.5 38.5t-5 32.5q62 3 125 6q54 2 116.5 4.5t116.5 2.5q86 0 163 -10t143 -36t119.5 -72.5t91 -119.5t57.5 -176.5t20 -243.5q0 -141 -19.5 -247.5t-55.5 -184t-87 -129t-114 -82t-137 -43t-156 -12.5q-62 0 -129 2t-124 4q-66 3 -130 7z" />
    <glyph glyph-name="E" unicode="E" horiz-adv-x="1002" 
d="M909 1330q-3 -29 -4 -48.5t-1 -32.5q0 -16 0.5 -40.5t2.5 -59.5q-34 6 -69 9.5t-87.5 5.5t-132 2.5t-202.5 0.5v-396q174 2 288 6t156 9q-2 -32 -3 -55t-1 -44q0 -20 1 -41.5t3 -50.5q-32 4 -70.5 7t-91 4.5t-121.5 2t-161 0.5v-439q95 0 168.5 0.5t133 2.5t108.5 7
t96 14q-2 -36 -3 -60t-1 -44t1 -44t3 -46h-794q5 22 8 42t5 45t3.5 58t2 83t0.5 119.5v167.5v300v167t-0.5 120t-2 83t-3.5 58t-5 44.5t-8 42.5h781z" />
    <glyph glyph-name="F" unicode="F" horiz-adv-x="990" 
d="M406 761q86 1 163 2.5t139.5 3.5t106.5 4t65 5q-2 -32 -3 -55t-1 -44q0 -20 1 -41.5t3 -50.5q-32 4 -75.5 7t-101.5 4.5t-131.5 2t-165.5 0.5v-84v-167t0.5 -119.5t2 -83t3.5 -58.5t5.5 -45t8.5 -43q-13 0 -33.5 0.5t-43 1t-43.5 0.5h-34h-33.5t-43 -0.5t-43.5 -1
t-34 -0.5q5 22 8 42t5 45t3.5 58.5t2 83.5t0.5 119.5v167.5v300v167t-0.5 120t-2 83t-3.5 58t-5 44.5t-8 42.5h800q-3 -29 -4 -48.5t-1 -32.5q0 -16 0.5 -40.5t2.5 -59.5q-34 6 -72 9.5t-94 5.5t-138.5 2.5t-205.5 0.5v-406z" />
    <glyph glyph-name="G" unicode="G" horiz-adv-x="1150" 
d="M751 430q0 58 -1.5 100.5t-4 74.5t-6 56t-7.5 46q39 -5 81.5 -6t77.5 -1q28 0 63.5 2t68.5 7q-2 -63 -2.5 -107.5t-1.5 -78t-1 -60.5v-54v-381q-40 -6 -87 -13t-94.5 -13.5t-93.5 -10.5t-84 -4q-139 0 -243.5 31.5t-174.5 110.5t-105.5 214t-35.5 342q0 173 43 297.5
t121 204.5t186.5 118t240.5 38q41 0 87 -5.5t91 -15t86 -23.5t73 -31q-15 -30 -27.5 -54.5t-22 -46t-16.5 -42t-10 -41.5h-30q-16 15 -38.5 30t-51.5 27t-65 20t-79 8q-73 0 -132 -25t-100 -82.5t-63.5 -153t-22.5 -236.5q0 -149 20 -247.5t56.5 -157t88 -82.5t114.5 -24
q25 0 52.5 3.5t49.5 7.5v258z" />
    <glyph glyph-name="H" unicode="H" horiz-adv-x="1210" 
d="M407 589v-74v-167t0.5 -119.5t2 -83t3.5 -58.5t5.5 -45t8.5 -43q-13 0 -33.5 0.5t-43 1t-43.5 0.5h-34h-33.5t-42.5 -0.5t-43 -1t-34 -0.5q5 24 8.5 44.5t5.5 45.5t3.5 58.5t2 83t0.5 118.5v166v300v165.5t-0.5 119t-2 83t-3.5 58.5t-5.5 45.5t-8.5 44.5q13 0 34 -0.5
t43 -1t42.5 -1t32.5 -0.5q13 0 34 0.5t43 1t43 1t34 0.5q-5 -24 -8 -44.5t-5 -45.5t-3.5 -58.5t-2 -83t-0.5 -119v-165.5v-44h396v44v165.5t-0.5 119t-2 83t-4 58.5t-6 45.5t-8.5 44.5q13 0 34 -0.5t43.5 -1t42.5 -1t32 -0.5q13 0 33.5 0.5t43 1t43.5 1t35 0.5
q-5 -24 -8 -44.5t-5 -45.5t-3.5 -58.5t-2 -83t-0.5 -119v-165.5v-300v-167t0.5 -119.5t2 -83t3.5 -58.5t5.5 -45t8.5 -43q-14 0 -35 0.5t-43.5 1t-43 0.5h-33.5h-32.5t-43 -0.5t-43.5 -1t-34 -0.5q5 24 8.5 44.5t6 45.5t4 58.5t2 83t0.5 118.5v166v74h-396z" />
    <glyph glyph-name="I" unicode="I" horiz-adv-x="666" 
d="M484 -1q-13 0 -33.5 0.5t-42 1t-42 0.5h-33.5h-34.5t-42.5 -0.5t-42 -1t-32 -0.5q5 24 8 44.5t5 45.5t3.5 58.5t2 83t0.5 118.5v166v300v165.5t-0.5 119t-2 83t-3.5 58.5t-5 45.5t-8 44.5q12 0 32 -0.5t42 -1t42.5 -1t34.5 -0.5q12 0 32.5 0.5t42 1t42 1t34.5 0.5
q-5 -24 -8 -44.5t-5 -45.5t-3.5 -58.5t-2 -83t-0.5 -119v-165.5v-300v-166t0.5 -118.5t2 -83t3.5 -58.5t5 -45.5t8 -44.5z" />
    <glyph glyph-name="J" unicode="J" horiz-adv-x="664" 
d="M197 815v165.5t-0.5 119t-2 83t-3.5 58.5t-5 45.5t-8 44.5q13 0 33.5 -0.5t42 -1t42 -1t32.5 -0.5q13 0 33.5 0.5t43 1t43 1t33.5 0.5q-5 -24 -8 -44.5t-5 -45.5t-3.5 -58.5t-2 -83t-0.5 -119v-165.5v-731q0 -42 -3 -82t-11.5 -78.5t-24.5 -75.5t-42 -73
q-24 -33 -61 -60.5t-84 -47.5t-103 -31.5t-118 -13.5l-34 133q11 -1 19 -1.5t15.5 -1t16 -0.5h21.5q39 0 66.5 19t45 59.5t25 103t7.5 150.5v731z" />
    <glyph glyph-name="K" unicode="K" horiz-adv-x="1122" 
d="M439 656q-7 11 -11 13.5t-9 2.5t-7.5 -3.5t-2.5 -8.5v68q0 -16 12 -16q6 0 10.5 2t12.5 16l367 600q6 -1 20.5 -1.5t34 -1t41.5 -0.5h45q19 0 42.5 0.5t45 1t39 1t23.5 0.5l-408 -641l428 -689q-12 0 -35.5 0.5t-49 1t-49.5 0.5h-37h-30t-34.5 -0.5t-33.5 -1t-27 -0.5z
M409 515v-167t0.5 -119.5t2 -83t3.5 -58.5t5.5 -45t8.5 -43q-13 0 -34 0.5t-43.5 1t-43 0.5h-33.5h-32.5t-42.5 -0.5t-42.5 -1t-33.5 -0.5q5 24 8.5 44.5t5.5 45.5t3.5 58.5t2 83t0.5 118.5v166v300v165.5t-0.5 119t-2 83t-3.5 58.5t-5.5 45.5t-8.5 44.5q13 0 33.5 -0.5
t42.5 -1t42.5 -1t32.5 -0.5q13 0 33.5 0.5t42.5 1t43 1t34 0.5q-5 -24 -8 -44.5t-5 -45.5t-3.5 -58.5t-2 -83t-0.5 -119v-165.5v-300z" />
    <glyph glyph-name="L" unicode="L" horiz-adv-x="890" 
d="M116 0q5 22 8 42t5 45t3.5 58t2 83t0.5 119.5v167.5v300v165.5t-0.5 119t-2 83t-3.5 58.5t-5.5 45.5t-8.5 44.5q13 0 33.5 -0.5t42 -1t42 -1t32.5 -0.5q13 0 32.5 0.5t40.5 1t40.5 1t33.5 0.5q-3 -24 -5 -44.5t-3.5 -45.5t-2 -58.5t-1 -83t-0.5 -119v-165.5v-633
q65 0 134.5 0.5t134 3t120 8.5t91.5 17q-4 -40 -5 -64t-1 -47t1 -51t3 -49h-762z" />
    <glyph glyph-name="M" unicode="M" horiz-adv-x="1320" 
d="M393 819v-304v-167t0.5 -119.5t2 -83t3.5 -58.5t5.5 -45t8.5 -43q-14 0 -33.5 0.5t-40.5 1t-40.5 0.5h-32.5h-32.5t-40.5 -0.5t-40.5 -1t-32.5 -0.5q5 24 8.5 44.5t5.5 45.5t3.5 58.5t2 83t0.5 118.5v166v815h236l287 -609q31 70 67 148t72.5 157.5t72 157t65.5 146.5
h240v-815v-167t0.5 -119.5t2 -83t3.5 -58.5t5.5 -45t8.5 -43q-13 0 -33 0.5t-41 1t-40.5 0.5h-31.5h-32.5t-40.5 -0.5t-41 -1t-33 -0.5q5 24 8.5 44.5t5.5 45.5t3.5 58.5t2 83t0.5 118.5v166v304l-188 -385q-17 1 -36.5 1.5t-46.5 0.5q-26 0 -46.5 -0.5t-37.5 -1.5z" />
    <glyph glyph-name="N" unicode="N" horiz-adv-x="1180" 
d="M142 1110q0 52 -0.5 84t-2 55.5t-4 44t-7.5 49.5h173l486 -789v261v166.5t-1 119.5t-2.5 83.5t-4 58.5t-6.5 45t-9 43q13 0 33.5 -0.5t42 -1t41 -1t31.5 -0.5t31.5 0.5t41 1t42 1t33.5 0.5q-5 -23 -8 -43t-5 -45t-3.5 -58.5t-2 -83t-0.5 -119.5v-167v-826h-173l-472 753
v-227v-166.5t1 -119.5t2 -83.5t3.5 -58.5t6 -45t8.5 -43q-14 0 -34.5 0.5t-42 1t-41.5 0.5h-32h-30.5t-41 -0.5t-42 -1t-33.5 -0.5q5 23 9 43t6.5 45t4 58.5t2 83t0.5 119.5v167v595z" />
    <glyph glyph-name="O" unicode="O" horiz-adv-x="1188" 
d="M594 1170q-59 0 -103.5 -23t-74.5 -80t-45 -153.5t-15 -243.5q0 -143 15 -240.5t45 -157.5t74.5 -86t103.5 -26t103.5 26t74.5 86t45 157.5t15 240.5q0 147 -15 243.5t-45 153.5t-74.5 80t-103.5 23zM594 -14q-260 0 -384 172t-124 521q0 334 124 499.5t384 165.5
q259 0 383.5 -165.5t124.5 -499.5q0 -349 -124.5 -521t-383.5 -172z" />
    <glyph glyph-name="P" unicode="P" horiz-adv-x="1078" 
d="M744 911q0 64 -16 113t-43.5 81.5t-65.5 49t-82 16.5q-26 0 -48.5 -1t-39.5 -2q-20 -2 -37 -3v-516h94q49 0 92.5 13.5t76 44.5t51 81t18.5 123zM412 478q0 -90 0.5 -163.5t2 -132t5.5 -104t12 -79.5q-13 0 -33.5 0.5t-43 1t-43.5 0.5h-34h-33t-41.5 -0.5t-42 -1
t-33.5 -0.5q5 22 8 42t5 45t3.5 58.5t2 83.5t0.5 119.5v167.5v300v167t-0.5 120t-2 83t-3.5 58t-5 44.5t-8 42.5q65 3 133 6q58 2 127.5 4.5t135.5 2.5q130 0 223 -32t153 -88.5t88 -133.5t28 -167q0 -220 -132 -332t-387 -112h-85z" />
    <glyph glyph-name="Q" unicode="Q" horiz-adv-x="1189" 
d="M781 45q24 -15 63 -39.5t85.5 -53t96 -57t92.5 -50.5q-23 -6 -56 -20.5t-65.5 -31.5t-59 -33.5t-36.5 -26.5q-46 43 -83 72.5t-73.5 56.5t-77 55.5t-92.5 69.5zM594 1170q-59 0 -103.5 -23t-74.5 -80t-45 -153.5t-15 -243.5q0 -143 15 -240.5t45 -157.5t74.5 -86
t103.5 -26t103.5 26t74.5 86t45 157.5t15 240.5q0 147 -15 243.5t-45 153.5t-74.5 80t-103.5 23zM594 -14q-260 1 -384 172.5t-124 520.5q0 334 124 499.5t384 165.5q259 0 383.5 -165.5t124.5 -499.5q0 -349 -124.5 -521t-383.5 -172z" />
    <glyph glyph-name="R" unicode="R" horiz-adv-x="1126" 
d="M412 708h126q39 0 74.5 11.5t63.5 37.5t44.5 69.5t16.5 107.5q0 66 -12.5 111.5t-35.5 73t-54.5 40t-70.5 12.5q-59 0 -94 -2t-51 -4q-2 -36 -3.5 -77t-2 -81.5t-1 -79.5t-0.5 -72v-147zM147 855q0 24 -0.5 60t-1.5 78.5t-2 89t-2.5 91.5t-3 85t-2.5 71q97 0 195.5 6.5
t208.5 6.5q125 0 213.5 -28.5t145 -80.5t82.5 -125t26 -162q0 -81 -20 -142.5t-54.5 -107t-81 -77.5t-98.5 -53l327 -571q-11 1 -33 2t-47 2t-49 2t-39 1q-11 0 -29.5 -0.5t-38 -1.5t-37.5 -1.5t-28 -1.5l-284 536h-83v-19v-167t0.5 -119.5t2 -83t3.5 -58.5t5.5 -45t8.5 -43
q-13 0 -33.5 0.5t-43 1t-43 0.5h-33.5h-32.5t-42.5 -0.5t-42.5 -1t-32.5 -0.5q5 24 8 44.5t5 45.5t3.5 58.5t2 83t0.5 118.5v166v340z" />
    <glyph glyph-name="S" unicode="S" horiz-adv-x="980" 
d="M449 167q94 0 143 54t49 160q0 46 -19.5 79t-52 57.5t-74.5 44t-88 37.5q-55 22 -109.5 50t-98 70t-70.5 102t-27 146q0 90 31.5 160t90.5 118t142 73t187 25q102 0 185.5 -26t135.5 -63q-18 -36 -30.5 -59t-21.5 -41t-16 -35t-14 -41h-36q-21 49 -77 70t-137 21
t-128 -43.5t-47 -127.5q0 -57 18.5 -94.5t49.5 -62.5t69.5 -41.5t79.5 -31.5q56 -20 114 -46.5t105 -69t77 -106t30 -159.5q0 -100 -34.5 -175t-97 -125t-149.5 -75t-191 -25q-112 0 -201 28.5t-160 79.5q13 28 27.5 57.5t27.5 57t23 51t15 40.5h36q17 -28 41 -52.5
t54.5 -42.5t67.5 -28.5t80 -10.5z" />
    <glyph glyph-name="T" unicode="T" horiz-adv-x="918" 
d="M906 1330q-4 -21 -5.5 -50t-1.5 -52q0 -21 0.5 -48.5t1.5 -42.5q-42 2 -80.5 3.5t-76 3l-75 3t-78.5 1.5v-633v-167t0.5 -119.5t2 -83t3.5 -58.5t5 -45t8 -43q-13 0 -33.5 0.5t-42.5 1t-42.5 0.5h-32.5h-32.5t-42.5 -0.5t-43 -1t-34 -0.5q5 24 8.5 44.5t6 45.5t4 58.5
t2 83t0.5 118.5v166v633q-41 0 -79 -1.5t-75 -3t-75.5 -3t-81.5 -3.5q0 15 1 42.5t1 48.5q0 23 -1.5 52t-5.5 50h894z" />
    <glyph glyph-name="U" unicode="U" horiz-adv-x="1188" 
d="M594 -13q-114 0 -201 29.5t-145 84t-87.5 133.5t-29.5 178v403v166.5t-1 119.5t-2 83.5t-3.5 58.5t-6 45t-8.5 43q13 0 33.5 -0.5t43 -1t43.5 -1t34 -0.5t34.5 0.5t44 1t43 1t33.5 0.5q-5 -23 -8.5 -43t-5.5 -45t-3.5 -58.5t-2 -83t-0.5 -119.5v-167v-429
q0 -110 47.5 -167.5t147.5 -57.5t147.5 57.5t47.5 167.5v429v167t-0.5 119.5t-2 83t-3.5 58.5t-5.5 45t-8.5 43q13 0 33.5 -0.5t43 -1t43.5 -1t35 -0.5q13 0 34 0.5t43.5 1t43 1t33.5 0.5q-5 -23 -8.5 -43t-6 -45t-3.5 -58.5t-2 -83.5t-1 -119.5v-166.5v-403
q0 -99 -29.5 -178t-87.5 -133.5t-145 -84t-201 -29.5z" />
    <glyph glyph-name="V" unicode="V" horiz-adv-x="1050" 
d="M388 0q-67 237 -119 422t-91.5 326t-67.5 241.5t-47.5 169.5t-31.5 110t-19 63q13 0 34.5 -1t45 -1.5t45.5 -1t34 -0.5q13 0 31.5 0.5t39 1t39.5 1t33 0.5q2 -20 7.5 -49.5t15.5 -75t26 -112t40.5 -161.5t57.5 -222t78 -294q34 129 59 226.5t44 175.5t33.5 140.5
t28 121.5t27.5 118.5t31 131.5q11 0 28 -0.5t35.5 -1t35.5 -1t28 -0.5t31.5 0.5t43 1t43 1.5t31.5 1q-31 -99 -56.5 -183.5t-50 -169.5t-50.5 -177.5t-59.5 -207.5t-76.5 -260t-100 -335q-9 0 -25 0.5t-34.5 1t-37.5 1t-32 0.5h-31.5t-37.5 -0.5t-35 -1t-24 -0.5z" />
    <glyph glyph-name="W" unicode="W" horiz-adv-x="1376" 
d="M1134 -2q-32 2 -67 3t-61 1q-14 0 -32 -0.5l-36 -1t-33.5 -1.5t-23.5 -1q-22 71 -46 155.5t-48 172t-48 174t-47 161.5q-20 -72 -44 -157t-49.5 -173.5t-50.5 -174.5t-47 -158q-9 0 -24 1t-33 1.5l-36 1t-31 0.5t-32 -0.5l-38 -1t-35.5 -1.5t-24.5 -1q-21 167 -44.5 339
t-48.5 342.5t-51 335t-52 316.5q13 0 32 -0.5t38.5 -1t38 -0.5h30.5h32h41t41 0.5t34 1.5q20 -203 46 -432.5t55 -461.5q10 33 24 80t29.5 102t33 115t33 118.5t29.5 112t24 96.5q36 -2 53.5 -2h29.5h28t52 2q16 -68 40 -149t50.5 -165t53 -166.5t47.5 -153.5
q18 129 34 254.5t29.5 241.5t24 220t16.5 188q11 0 28.5 -0.5t36.5 -1t37 -1t30 -0.5t31 0.5t39 1t39 1.5t30 1q-22 -162 -48.5 -328t-54.5 -334t-55 -336.5t-49 -335.5z" />
    <glyph glyph-name="X" unicode="X" horiz-adv-x="1103" 
d="M761 1330q27 0 57 -1t80 -1q10 0 29.5 1t41 2t41 2t29.5 2l-458 -815l-270 -521q-11 0 -27 0.5t-33.5 1t-34.5 0.5h-29q-13 0 -35.5 -0.5t-47 -1t-46 -1t-33.5 -0.5l397 708zM53 1333q7 0 24.5 -1t37.5 -2t38 -1.5t27 -0.5h27.5t33.5 0.5t43 1t57 0.5l298 -564l426 -768
q-12 0 -34 0.5t-46 1t-46.5 1t-35.5 0.5h-30t-34.5 -0.5t-33.5 -1t-26 -0.5l-314 602z" />
    <glyph glyph-name="Y" unicode="Y" horiz-adv-x="1090" 
d="M545 809q73 137 131 263t111 258q38 -1 71 -1.5t65 -0.5q11 0 32 0.5t44.5 1t45.5 1.5t35 1q-109 -192 -209.5 -382.5t-194.5 -379.5v-188.5t0.5 -134t2 -92.5t4 -63.5t6 -47.5t9.5 -45q-13 0 -33.5 0.5t-43 1t-43 0.5h-33.5h-34t-42 -0.5t-42 -1t-33 -0.5q5 23 8 43.5
t5 47t3.5 63t2 92.5t0.5 135v190q-96 193 -195 382t-208 380q13 0 35 -1t45.5 -1.5t44.5 -1t32 -0.5q32 0 65 0.5t71 1.5q54 -125 111.5 -254t130.5 -267z" />
    <glyph glyph-name="Z" unicode="Z" horiz-adv-x="970" 
d="M375 170q91 0 166 0.5t137 3t113 6t94 9.5q-2 -31 -3 -56.5t-1 -45.5q0 -21 1 -46t3 -45q-20 1 -46.5 2t-53.5 1.5t-51 0.5h-39h-645v71l530 1087h-292q-16 0 -39.5 -1t-49 -2t-51 -3t-46.5 -3v13t0.5 25t0.5 29v26v25.5t-0.5 30t-0.5 25.5v14q24 -2 52 -3t54 -2
t47.5 -1.5t32.5 -0.5h612v-78z" />
    <glyph glyph-name="bracketleft" unicode="[" horiz-adv-x="643" 
d="M385 -46q15 0 38.5 0.5t49.5 2t52 2.5t47 3q-5 -26 -5.5 -48.5t-0.5 -45.5q0 -20 0.5 -42.5t5.5 -52.5q-24 1 -52 3t-54.5 3t-48 2t-32.5 1h-273q4 22 7 42t5 45t3 58t1.5 83t0.5 119.5v167.5v736v167t-0.5 120t-1.5 83t-3 58t-5 44.5t-7 42.5h273q11 0 32.5 1t48 2
t54.5 2.5t52 3.5q-5 -30 -5.5 -52.5t-0.5 -42.5q0 -21 1 -43t7 -51q-21 1 -47 2.5t-52.5 3t-50.5 2t-39 0.5h-36v-1422h36z" />
    <glyph glyph-name="backslash" unicode="\" horiz-adv-x="643" 
d="M-32 1539q10 0 27.5 -1t36 -1.5t35.5 -1t26 -0.5q11 0 27 0.5t33.5 1t33.5 1t26 0.5q1 -12 5.5 -36.5t10 -54t12 -60.5t13.5 -57l406 -1541q-10 0 -27 1t-35.5 1.5t-35 1t-25.5 0.5q-11 0 -27.5 -0.5t-34 -1t-33.5 -1t-26 -0.5q-2 12 -5.5 36t-9 54t-12.5 61.5t-14 57.5z
" />
    <glyph glyph-name="bracketright" unicode="]" horiz-adv-x="643" 
d="M244 1376q-15 0 -38 -0.5t-48 -1.5t-50.5 -2.5t-45.5 -2.5v13t0.5 25t0.5 29v26v25.5t-0.5 30t-0.5 25.5v14q24 -2 51.5 -3.5t53 -2.5t46 -2t31.5 -1h273q-4 -23 -7 -42.5t-5 -44.5t-3 -58t-1.5 -83t-0.5 -120v-167v-736v-167t0.5 -120t1.5 -83t3 -58t5 -45t7 -42h-273
q-11 0 -31.5 -1t-46 -2t-53 -3t-51.5 -3v14t0.5 25.5t0.5 29.5v26v25t-0.5 29.5t-0.5 25.5v13q20 -2 45.5 -3t50.5 -2t48 -1.5t38 -0.5h36v1422h-36z" />
    <glyph glyph-name="asciicircum" unicode="^" horiz-adv-x="963" 
d="M298 763q-11 0 -26 0.5l-30 1t-29 0.5h-24t-29 -0.5t-40 -1t-40.5 -1t-29.5 -0.5l335 680q39 -4 61 -4.5t40 -0.5h18t20.5 0.5t26.5 1.5t35 3l327 -680q-11 0 -30.5 0.5t-41.5 1t-41.5 1t-30.5 0.5h-26t-31 -0.5t-31.5 -1t-26.5 -0.5l-168 398z" />
    <glyph glyph-name="underscore" unicode="_" horiz-adv-x="1007" 
d="M159 -306q-15 0 -38 -0.5t-48 -1.5t-50 -2.5t-46 -2.5v12.5t0.5 25t0.5 29v25.5v25.5t-0.5 29.5t-0.5 25v14q24 -2 51.5 -3t53 -2t46 -1.5t31.5 -0.5h669q15 0 38.5 0.5t49.5 2t52 2.5t47 3q-5 -26 -5.5 -48t-0.5 -45q0 -20 0.5 -42t5.5 -52q-24 1 -52 2.5t-54.5 2.5
t-48 1.5t-32.5 0.5h-669z" />
    <glyph glyph-name="grave" unicode="`" horiz-adv-x="599" 
d="M347 1102q-21 18 -51.5 45.5t-67 61.5t-76 73t-76.5 79q16 -1 36 -1.5t40 -0.5h38h30h69.5t50.5 1q29 -55 61 -111.5t73 -132.5v-14h-127z" />
    <glyph glyph-name="a" unicode="a" horiz-adv-x="940" 
d="M420 803q-43 0 -76.5 -8.5t-60 -22t-46.5 -30.5t-35 -34h-25q-5 22 -9.5 36.5t-13 30t-21.5 36.5t-35 57q29 19 65 36.5t77.5 30.5t87.5 20.5t95 7.5q193 0 281.5 -79t88.5 -239v-443q0 -17 3.5 -29t13.5 -19.5t28 -10.5t47 -3q-7 -35 -12.5 -65t-5.5 -49q-18 -9 -37 -15
q-17 -6 -39 -10.5t-48 -4.5q-28 0 -55 6t-49.5 19.5t-38.5 35.5t-22 54q-29 -61 -86 -92t-148 -31q-67 0 -118 20.5t-85.5 58.5t-52.5 91.5t-18 119.5q0 67 25 120.5t75.5 91t125.5 58t174 20.5h85v110q0 57 -33 91t-102 34zM416 149q29 0 54.5 10.5t44 30t29.5 47.5t11 62
v119h-95q-68 0 -109 -35t-41 -110q0 -63 30 -93.5t76 -30.5z" />
    <glyph glyph-name="b" unicode="b" horiz-adv-x="976" 
d="M499 798q-28 0 -52.5 -9.5t-43 -27.5t-29.5 -44.5t-11 -59.5v-499q18 -2 44.5 -4t50.5 -2q102 0 147.5 91t45.5 272q0 82 -10 136.5t-29 87t-47.5 46t-65.5 13.5zM363 908q11 9 28.5 19t39.5 18t48 13t53 5q187 0 273.5 -109t86.5 -321q0 -148 -25.5 -252t-80 -169
t-140.5 -95t-206 -30q-75 0 -154 11t-157 17v997q0 68 -0.5 113t-2 79t-5 62.5t-10.5 63.5q12 0 30.5 -0.5t38 -1t37.5 -0.5h29h29t37.5 0.5t38 1t30.5 0.5q-7 -35 -10.5 -62.5t-5 -60.5t-2 -78.5t-0.5 -116.5v-104z" />
    <glyph glyph-name="c" unicode="c" horiz-adv-x="800" 
d="M500 788q-39 0 -72.5 -16t-58.5 -54.5t-39 -102t-14 -158.5q0 -83 15 -139t41 -91t62.5 -50t78.5 -15q52 0 105 14.5t99 32.5l18 -7l-22 -174q-21 -7 -46 -14.5t-52 -13.5t-54.5 -9.5t-52.5 -3.5q-109 0 -190.5 29.5t-135.5 91t-81 157t-27 228.5q0 119 31.5 207
t88.5 146.5t136 87.5t173 29q33 0 69 -5t70 -13.5t64.5 -19.5t53.5 -22q-31 -61 -49 -105t-22 -77h-29q-7 7 -19.5 18.5t-31.5 22t-46 18.5t-63 8z" />
    <glyph glyph-name="d" unicode="d" horiz-adv-x="986" 
d="M865 318q0 -72 0.5 -117.5t2 -78.5t5 -60.5t9.5 -62.5q-12 0 -30.5 0.5t-38 1t-37 0.5h-28.5h-28t-35 -0.5t-35.5 -1t-29.5 -0.5q4 35 6.5 68t3.5 73t1 90v118v664q0 68 -0.5 113t-2 79t-5 62.5t-10.5 63.5q12 0 30.5 -0.5t38 -1t37.5 -0.5h29h28.5t37 0.5t38 1t30.5 0.5
q-6 -35 -9.5 -62.5t-5 -60.5t-2 -78.5t-0.5 -116.5v-694zM695 366h-64q0 -103 -40 -158.5t-109 -55.5q-34 0 -62.5 18t-49.5 55t-32.5 94t-11.5 136q0 93 16 158.5t45 106.5t69 59.5t87 18.5q53 0 94.5 -9.5t71.5 -20.5v169q-32 8 -75.5 17t-88.5 9q-100 0 -184.5 -33.5
t-146 -98t-96 -159.5t-34.5 -218q0 -105 22 -191t65 -147.5t107 -95t149 -33.5q70 0 118.5 24.5t79.5 64.5t47.5 89.5t22.5 99.5v101z" />
    <glyph glyph-name="e" unicode="e" horiz-adv-x="916" 
d="M521 156q43 0 78.5 4.5t65.5 12t56.5 17t50.5 20.5l19 -8l-22 -176q-20 -6 -50 -12.5t-63.5 -12.5t-66.5 -10t-58 -4q-98 0 -180 21.5t-141.5 76.5t-92.5 149t-33 240q0 129 26.5 221.5t77 152t124.5 87.5t169 28q92 0 158.5 -29.5t109 -83.5t63 -131t20.5 -172v-135
h-511q2 -72 16.5 -121t40 -79t62 -43t81.5 -13zM477 803q-35 0 -61.5 -10t-45.5 -37t-30.5 -74t-15.5 -120h273v13q0 120 -28 174t-92 54z" />
    <glyph glyph-name="f" unicode="f" horiz-adv-x="656" 
d="M411 318q0 -72 0.5 -117.5t2 -78.5t5 -60.5t10.5 -62.5q-12 0 -30.5 0.5t-38 1t-37 0.5h-28.5h-29t-37.5 -0.5t-38 -1t-30.5 -0.5q6 35 9 63.5t4.5 62.5t2 79.5t0.5 113.5v466q-16 0 -36.5 -0.5t-41 -1.5t-40 -2t-33.5 -2v12t0.5 23t0.5 27v23v22.5t-0.5 27t-0.5 23.5v13
q21 -2 43.5 -3.5t43 -2.5t37.5 -1.5t27 -0.5v53q0 80 22.5 147t65.5 115t106.5 75t146.5 27q42 0 86.5 -8t73.5 -19l-35 -168l-13 -2q-16 13 -39 23t-54 10q-26 0 -49 -10t-40 -32t-26.5 -55.5t-9.5 -80.5v-77q20 0 46 1t54.5 2l57 2t53.5 2q-1 -5 -1.5 -16t-1 -25l-1 -28
t-0.5 -23q0 -14 0.5 -29.5t3.5 -46.5q-26 1 -55.5 2.5t-58 2t-54 1t-43.5 0.5v-466z" />
    <glyph glyph-name="g" unicode="g" horiz-adv-x="952" 
d="M467 176q34 0 60 15t44 39t27.5 53t9.5 57v457q-36 6 -92 6q-48 0 -83.5 -16t-59.5 -55t-36 -105t-12 -165q0 -78 9.5 -132.5t27.5 -88.5t44.5 -49.5t60.5 -15.5zM382 -190q51 0 92.5 13t71.5 40t46 67.5t16 95.5v72q-10 -17 -30 -33.5t-45 -29.5t-53 -21t-55 -8
q-168 0 -254.5 116.5t-86.5 341.5q0 124 30 217.5t87 156t139.5 94t188.5 31.5q72 0 157 -8t162 -17v-827q0 -108 -29.5 -195t-88 -148t-147 -94t-205.5 -33q-25 0 -53.5 1.5t-56.5 4.5t-53 7t-41 9l-32 189l8 8q21 -9 48 -17.5t57 -16t62.5 -12t64.5 -4.5z" />
    <glyph glyph-name="h" unicode="h" horiz-adv-x="995" 
d="M644 650q0 78 -25.5 115.5t-85.5 37.5q-33 0 -64.5 -12t-56 -34.5t-39.5 -55t-15 -73.5h-78l-3 51q0 66 27.5 119t71.5 89.5t98.5 56t107.5 19.5q151 0 223.5 -84.5t72.5 -245.5v-315q0 -72 0.5 -117.5t2 -78.5t5 -60.5t10.5 -62.5q-12 0 -30.5 0.5t-38 1t-37 0.5h-28.5
h-29t-37.5 -0.5t-38 -1t-30.5 -0.5q6 35 9.5 63.5t5 62.5t2 79.5t0.5 113.5v332zM358 318v-117.5t1.5 -78.5t5 -60.5t9.5 -62.5q-12 0 -30.5 0.5t-37.5 1t-37 0.5h-28h-29t-37.5 -0.5t-38 -1t-30.5 -0.5q7 35 10.5 63.5t5 62.5t2 79.5t0.5 113.5v768q0 48 -1 83.5t-3.5 63
t-6.5 50.5t-9 47q12 0 30.5 -0.5t38 -1t37.5 -1t29 -0.5t29.5 0.5t39 1t39.5 1t31 0.5q-5 -24 -9 -47t-6.5 -50.5t-3.5 -63t-1 -83.5v-768z" />
    <glyph glyph-name="i" unicode="i" horiz-adv-x="485" 
d="M109 1235q0 27 9.5 50t27 40t42.5 26.5t56 9.5t56 -9.5t42.5 -26.5t27 -40t9.5 -50t-9.5 -50t-27 -40t-42.5 -26.5t-56 -9.5t-56 9.5t-42.5 26.5t-27 40t-9.5 50zM360 318q0 -72 0.5 -117.5t2 -78.5t5 -60.5t9.5 -62.5q-12 0 -30.5 0.5t-37.5 1t-37 0.5h-28h-29.5
t-38 -0.5t-38 -1t-30.5 -0.5q6 35 9.5 63.5t5 62.5t2 79.5t0.5 113.5v314q0 68 -0.5 113t-2 79t-5 62.5t-9.5 63.5q12 0 30.5 -0.5t38 -1t38 -0.5h29.5h28t37 0.5t37.5 1t30.5 0.5q-6 -35 -9.5 -62.5t-5 -60.5t-2 -78.5t-0.5 -116.5v-314z" />
    <glyph glyph-name="j" unicode="j" horiz-adv-x="465" 
d="M353 64q0 -48 -2 -87.5t-8 -72.5t-18 -62t-32 -57q-23 -33 -60.5 -61.5t-85 -50.5t-103.5 -35.5t-117 -15.5l-33 154q29 -5 53 -7t47 -2q39 0 62.5 13.5t36.5 47t17.5 91t4.5 145.5v568q0 68 -0.5 113t-2 79t-5 62.5t-9.5 63.5q12 0 30.5 -0.5t38 -1t38 -0.5h29.5h28
t37 0.5t37.5 1t30.5 0.5q-6 -35 -10 -62.5t-5.5 -60.5t-1.5 -78.5v-116.5zM99 1235q0 27 9.5 50t27 40t42.5 26.5t56 9.5t56 -9.5t42.5 -26.5t27 -40t9.5 -50t-9.5 -50t-27 -40t-42.5 -26.5t-56 -9.5t-56 9.5t-42.5 26.5t-27 40t-9.5 50z" />
    <glyph glyph-name="k" unicode="k" horiz-adv-x="938" 
d="M382 467q-6 11 -8.5 13.5t-7.5 2.5t-7 -3.5t-2 -8.5v60q0 -16 11 -16q5 0 8.5 3.5t10.5 14.5l253 419q9 -1 25.5 -1.5t34.5 -1t35 -1t28 -0.5t31.5 0.5t42.5 1t42.5 1t31.5 1.5l-300 -439l322 -514q-13 0 -33 0.5t-43 1t-47 0.5h-45q-36 0 -68.5 -1t-46.5 -2zM357 318
q0 -72 0.5 -117.5t2 -78.5t5 -60.5t9.5 -62.5q-12 0 -30.5 0.5t-38 1t-37.5 0.5h-28h-29.5t-38 -0.5t-38 -1t-30.5 -0.5q7 35 10.5 63.5t5 62.5t2 79.5t0.5 113.5v692q0 71 -0.5 116.5t-2 78.5t-5 60.5t-10.5 62.5q12 0 30 -0.5t37.5 -1t37.5 -0.5h29h28t38 0.5t39 1t31 0.5
q-6 -35 -9.5 -63.5t-5 -62.5t-2 -79t-0.5 -113v-692z" />
    <glyph glyph-name="l" unicode="l" horiz-adv-x="495" 
d="M248 0h-28.5t-37 -0.5t-38 -1t-30.5 -0.5q6 35 9.5 62.5t5 61t2 79t0.5 117.5v692q0 71 -0.5 116.5t-2 78.5t-5 60.5t-9.5 62.5q12 0 30.5 -0.5t38 -1t37 -0.5h28.5h27.5t37 0.5t38 1t30.5 0.5q-6 -35 -9.5 -62.5t-5 -60.5t-2 -78.5t-0.5 -116.5v-692q0 -72 0.5 -117.5
t2 -79t5 -61t9.5 -62.5q-12 0 -30.5 0.5t-38 1t-37 0.5h-27.5z" />
    <glyph glyph-name="m" unicode="m" horiz-adv-x="1434" 
d="M359 318v-117.5t1.5 -78.5t5 -60.5t9.5 -62.5q-12 0 -30.5 0.5t-37.5 1t-37 0.5h-28h-29.5t-38 -0.5t-38 -1t-30.5 -0.5q7 35 10.5 63.5t5 62.5t2 79.5t0.5 113.5v389q0 48 -1 83.5t-3.5 63t-6.5 50.5t-9 47q12 0 30.5 -0.5t38 -1t37.5 -1t29 -0.5t28 0.5t36 1t36.5 1
t29.5 0.5l-5 -113q-2 -32 -2.5 -54.5t-1.5 -46.5t-1 -54.5v-78.5v-286zM610 650q0 78 -26.5 115.5t-81.5 37.5q-65 0 -101 -41t-42 -129h-59l-3 16q0 66 16.5 123.5t50.5 100t84 66.5t118 24q143 0 210.5 -84.5t67.5 -245.5v-315q0 -72 0.5 -117.5t2 -78.5t5 -60.5
t10.5 -62.5q-12 0 -30.5 0.5t-38 1t-37 0.5h-28.5h-29t-37.5 -0.5t-38.5 -1t-31 -0.5q7 35 10.5 63.5t5 62.5t2 79.5t0.5 113.5v332zM1079 650q0 81 -27 117t-80 36q-27 0 -50 -9.5t-40.5 -30.5t-27.5 -53t-10 -77h-89l-3 46q0 66 22 119t60 89.5t88.5 56t107.5 19.5
q143 0 213 -84.5t70 -245.5v-315q0 -72 0.5 -117.5t2 -78.5t5 -60.5t9.5 -62.5q-12 0 -30.5 0.5t-38 1t-37 0.5h-28.5h-29t-37.5 -0.5t-38 -1t-30.5 -0.5q7 35 10.5 63.5t5 62.5t2 79.5t0.5 113.5v332z" />
    <glyph glyph-name="n" unicode="n" horiz-adv-x="1000" 
d="M358 318v-117.5t1.5 -78.5t5 -60.5t9.5 -62.5q-12 0 -30.5 0.5t-37.5 1t-37 0.5h-28h-29t-37.5 -0.5t-38 -1t-30.5 -0.5q7 35 10.5 63.5t5 62.5t2 79.5t0.5 113.5v389q0 48 -1 83.5t-3.5 63t-6.5 50.5t-9 47q12 0 30 -0.5t37.5 -1t37.5 -1t29 -0.5t28 0.5t36 1t36.5 1
t29.5 0.5l-5 -113q-2 -32 -2.5 -54.5t-1.5 -46.5t-1 -54.5v-78.5v-286zM644 615q0 52 -6 88t-19.5 58.5t-34.5 32t-51 9.5q-33 0 -64.5 -16t-56 -46t-39.5 -74t-15 -99h-59l-3 51q0 168 74.5 256t211.5 88q65 0 119.5 -18.5t93.5 -59.5t61 -106.5t22 -160.5v-300
q0 -72 0.5 -117.5t2 -78.5t5 -60.5t10.5 -62.5q-12 0 -30.5 0.5t-38 1t-37 0.5h-28.5h-29t-37.5 -0.5t-38 -1t-30.5 -0.5q6 35 9.5 63.5t5 62.5t2 79.5t0.5 113.5v297z" />
    <glyph glyph-name="o" unicode="o" horiz-adv-x="944" 
d="M472 147q37 0 66 18.5t49.5 57.5t31.5 99.5t11 144.5q0 91 -9.5 155t-29 104.5t-49.5 58.5t-70 18t-70 -18t-49.5 -58.5t-29 -104.5t-9.5 -155q0 -84 11 -144.5t31.5 -99.5t49.5 -57.5t66 -18.5zM472 -13q-95 0 -169 26.5t-125.5 86t-78.5 156t-27 237.5
q0 112 25.5 199.5t76 147.5t125 91.5t173.5 31.5t173.5 -31.5t125 -91.5t76 -147.5t25.5 -199.5q0 -141 -27 -237.5t-78.5 -156t-126 -86t-168.5 -26.5z" />
    <glyph glyph-name="p" unicode="p" horiz-adv-x="986" 
d="M122 632q0 72 -0.5 117.5t-2 78.5t-5 60.5t-10.5 62.5q12 0 30.5 -0.5t38 -1t37 -0.5h28.5h28t35 0.5t35.5 1t29.5 0.5q-4 -35 -6 -68t-3 -73t-1 -90v-118v-664q0 -68 0.5 -113t2 -79t5 -62.5t10.5 -63.5q-12 0 -31 0.5t-38.5 1t-37.5 0.5h-29h-28.5t-37 -0.5t-38 -1
t-30.5 -0.5q7 35 10.5 62.5t5 60.5t2 78.5t0.5 116.5v694zM281 584h75q0 39 11 76.5t31 67.5t49.5 48t65.5 18t63.5 -16.5t46 -52t28 -92.5t9.5 -138q0 -104 -16.5 -170.5t-45 -104.5t-67 -53t-83.5 -15q-18 0 -41.5 3t-47 7.5t-45 10t-36.5 9.5v-169q15 -4 35.5 -8.5
t43.5 -8.5t46.5 -6.5t45.5 -2.5q216 0 334.5 126.5t118.5 382.5q0 111 -23 198t-66.5 147t-106 91t-142.5 31q-70 0 -120.5 -24.5t-84.5 -64.5t-53 -89.5t-25 -99.5v-101z" />
    <glyph glyph-name="q" unicode="q" horiz-adv-x="969" 
d="M481 152q27 0 51 10t42 28.5t28.5 44.5t10.5 58v499q-18 2 -44 4t-50 2q-44 0 -79.5 -18t-61 -59t-39.5 -106.5t-14 -159.5q0 -83 11.5 -140.5t32.5 -93.5t49.5 -52.5t62.5 -16.5zM613 46q-11 -10 -28.5 -20.5t-39 -19t-47.5 -14t-54 -5.5q-92 0 -159.5 33t-112 93
t-66.5 145t-22 189q0 265 111 390.5t341 125.5q75 0 154 -11t157 -17v-975q0 -68 0.5 -113t2 -79t5 -62.5t10.5 -63.5q-12 0 -31 0.5t-38.5 1t-37 0.5h-28.5h-29t-37.5 -0.5t-38 -1t-30.5 -0.5q7 35 10.5 62.5t5 60.5t2 78.5t0.5 116.5v86z" />
    <glyph glyph-name="r" unicode="r" horiz-adv-x="700" 
d="M296 653q13 54 35.5 109.5t55 100t74 72.5t92.5 28q16 0 35 -2t37 -5t32.5 -7.5t22.5 -8.5q-18 -82 -22 -134t-5 -72l-21 -11q-14 18 -40 29t-61 11q-30 0 -61 -11.5t-57 -36t-42.5 -62.5t-16.5 -90h-58v90zM354 318q0 -72 0.5 -117.5t2 -78.5t5 -60.5t9.5 -62.5
q-12 0 -30.5 0.5t-38 1t-37 0.5h-28.5h-29t-37.5 -0.5t-38 -1t-30.5 -0.5q6 35 9.5 63.5t5 62.5t2 79.5t0.5 113.5v389q0 48 -1 83.5t-3.5 63t-6 50.5t-8.5 47q12 0 30 -0.5t37.5 -1t37.5 -1t29 -0.5q10 0 27.5 0.5t36.5 1t37 1t30 0.5q-1 -14 -3 -36.5t-3.5 -46t-3 -43.5
t-1.5 -28v-479z" />
    <glyph glyph-name="s" unicode="s" horiz-adv-x="828" 
d="M385 156q75 0 107 33.5t32 87.5q0 36 -18 58t-47.5 36t-67 24t-76.5 22t-76.5 29.5t-67 47t-47.5 74t-18 111.5t24.5 120t70.5 90t111 57t146 20q69 0 139 -17.5t129 -47.5q-11 -18 -23 -44.5t-22.5 -54t-18.5 -52t-10 -37.5h-34q-12 39 -53.5 61t-101.5 22
q-127 0 -127 -102q0 -39 18 -62t48 -37t67.5 -23t77.5 -20t77.5 -27t67.5 -44.5t48 -73.5t18 -112q0 -60 -23 -116t-68.5 -99t-114.5 -68.5t-162 -25.5q-49 0 -94 7t-84 18.5t-72.5 26t-59.5 29.5q7 14 18.5 37.5t22 50t18.5 52.5t8 45h31q10 -19 29.5 -36.5t46.5 -30.5
t60 -21t71 -8z" />
    <glyph glyph-name="t" unicode="t" horiz-adv-x="696" 
d="M396 1228h15v-289q21 0 49 1t58 2t59.5 2t54.5 2q0 -5 -1 -16t-1.5 -25l-1 -28t-0.5 -23q0 -14 0.5 -29.5t3.5 -46.5q-26 1 -57 2.5t-61.5 2t-57 1t-44.5 0.5v-451q0 -52 2 -88.5t12 -59.5t31.5 -33.5t60.5 -10.5q34 0 64 5.5t62 14.5v-143q-46 -15 -97 -23t-93 -8
q-141 0 -209 70t-68 193v534q-15 0 -34 -0.5t-38 -1.5t-37 -2t-33 -2v12t0.5 23t0.5 27v23v22.5t-0.5 26.5t-0.5 23.5v12.5q45 -3 83.5 -4.5t58.5 -1.5q0 46 -1 78.5t-2.5 54t-3 34t-2.5 19.5z" />
    <glyph glyph-name="u" unicode="u" horiz-adv-x="989" 
d="M868 346q0 -72 0.5 -124.5t2 -92.5t4 -70.5t5.5 -59.5q-12 0 -29.5 0.5t-36.5 1t-36 0.5h-27h-28t-35.5 -0.5t-36 -1t-29.5 -0.5l5 88q2 38 3.5 64t2 52t1 58.5t0.5 84.5v286q0 72 -0.5 117.5t-2 78.5t-5 60.5t-10.5 62.5q12 0 30 -0.5t37.5 -1t37.5 -1t29 -0.5
q10 0 28 0.5t37.5 1t38.5 1t31 0.5q-6 -35 -9.5 -63.5t-5 -62.5t-2 -79.5t-0.5 -113.5v-286zM356 300q0 -42 8.5 -71.5t22.5 -47.5t32 -26t38 -8q34 0 65 12t54.5 35t38.5 56t19 75h78l4 -73q-13 -53 -40 -100.5t-66.5 -84.5t-91 -58.5t-114.5 -21.5q-145 0 -214 84.5
t-69 245.5v315q0 72 -0.5 117.5t-2 78.5t-5 60.5t-9.5 62.5q12 0 30 -0.5t37.5 -1t37.5 -1t29 -0.5q10 0 28 0.5t38 1t39 1t31 0.5q-7 -35 -10.5 -63.5t-5 -62.5t-2 -79.5t-0.5 -113.5v-332z" />
    <glyph glyph-name="v" unicode="v" horiz-adv-x="880" 
d="M309 -1q-38 124 -72 242.5t-69 235.5t-73.5 235t-84.5 240q10 0 28 -0.5t37.5 -1t37 -1t27.5 -0.5h31.5t37 0.5t36.5 1t32 0.5q18 -70 34 -131.5t35 -131.5t43 -156.5t57 -205.5q25 82 43.5 144.5t33 113t26.5 93.5t23.5 85.5t24 88t27.5 102.5q26 -2 59 -3.5t57 -1.5
t60 1t70 6q-41 -117 -83.5 -239t-83.5 -244.5t-80.5 -242t-74.5 -231.5q-5 0 -19.5 1t-33 1.5t-37.5 1t-34 0.5q-12 0 -29.5 -0.5t-34.5 -1t-31 -1t-20 -0.5z" />
    <glyph glyph-name="w" unicode="w" horiz-adv-x="1232" 
d="M761 -2q-32 124 -71 258t-82 271q-40 -132 -81 -268.5t-72 -260.5q-6 0 -18 0.5t-27 1t-30.5 1t-27.5 0.5q-10 0 -25.5 -0.5t-30.5 -1t-28 -1t-18 -0.5q-27 112 -55.5 231.5t-59 241t-62 243t-63.5 238.5q10 0 27.5 -0.5t36 -1t36 -1t26.5 -0.5h32t39 0.5t38.5 1
t31.5 0.5q9 -61 16.5 -108t14.5 -87.5t14 -78t15 -79t18.5 -91.5t24.5 -116q26 96 48 172t41 141.5t34.5 124.5t29.5 122q25 -2 46 -2.5t41 -0.5t42 1t50 2q16 -68 36 -137t41 -138.5t41 -140t37 -141.5q20 89 36.5 165t30 143.5t24.5 128.5t20 121q26 -2 58 -3t56 -1
q25 0 61 1t69 4q-30 -119 -61 -235.5t-63.5 -234.5t-65 -238.5t-65.5 -246.5q-5 0 -18.5 0.5t-30 1t-34 1t-29.5 0.5q-20 0 -38.5 -0.5t-55.5 -2.5z" />
    <glyph glyph-name="x" unicode="x" horiz-adv-x="918" 
d="M265 -1q-7 0 -18.5 0.5t-24 1t-24.5 0.5h-20h-48t-78 -2q65 106 127 205q26 42 54 87.5t55 89.5t51.5 84.5t43.5 73.5q28 49 60 101.5t64.5 105.5t64 105t60.5 101q10 -1 24 -1.5t29 -1t29 -1t25 -0.5q10 0 25 0.5t30.5 1t30 1t25.5 1.5q-67 -107 -127 -202
q-26 -41 -52 -83t-50 -81t-44.5 -72.5t-33.5 -55.5zM388 381l-319 573q11 -1 31.5 -2t43 -2t42.5 -1.5t31 -0.5t27 0.5t32.5 1t32 1t25.5 1.5l192 -364zM526 588l340 -590q-13 0 -36.5 0.5t-49 1t-49 1t-36.5 0.5h-23t-26.5 -0.5t-26 -1t-19.5 -0.5l-212 382z" />
    <glyph glyph-name="y" unicode="y" horiz-adv-x="910" 
d="M229 -367q32 86 70.5 174t70.5 178l-22 -1q-50 153 -94 287.5t-84 254.5t-77 225.5t-73 200.5q10 0 28 -0.5t37.5 -1t37 -1t26.5 -0.5h31t37.5 0.5t37.5 1t31 0.5q24 -74 46.5 -151.5t45 -157t46.5 -159.5t51 -159q21 70 42.5 148t43 159t42.5 162.5t40 158.5
q30 -2 61.5 -3.5t54.5 -1.5q24 0 59.5 1.5t71.5 4.5q-61 -168 -114 -331.5t-103 -327t-99.5 -328.5t-102.5 -336q-23 4 -55 5t-55 1q-54 0 -132 -3z" />
    <glyph glyph-name="z" unicode="z" horiz-adv-x="797" 
d="M350 160h208q15 0 37 0.5t46.5 1.5l49 2t43.5 2q-2 -25 -3 -45.5t-1 -40.5q0 -19 1 -39t3 -46q-19 1 -44.5 2t-52.5 2t-53 1h-46h-483v71l404 710h-196q-15 0 -36.5 -0.5t-45 -1.5t-47 -2.5t-42.5 -2.5v12t0.5 23.5t0.5 27.5v24v22.5t-0.5 26t-0.5 22.5v13
q22 -2 47.5 -2.5t49.5 -1t44 -0.5h30h484v-79z" />
    <glyph glyph-name="braceleft" unicode="{" horiz-adv-x="643" 
d="M422 -62q0 -23 12 -35.5t41 -12.5q24 0 47.5 4t43.5 9v-124q-11 -3 -28.5 -6t-37.5 -5.5t-40.5 -4t-36.5 -1.5q-118 0 -172.5 56.5t-54.5 165.5v477q0 82 -41.5 128.5t-122.5 56.5v38q81 10 122.5 56.5t41.5 128.5v477q0 109 54.5 165.5t172.5 56.5q16 0 36.5 -1.5
t40.5 -4t37.5 -5.5t28.5 -6v-124q-20 5 -43.5 9t-47.5 4q-29 0 -41 -12.5t-12 -35.5v-529q0 -74 -41 -126.5t-110 -71.5q70 -18 110.5 -71t40.5 -127v-529z" />
    <glyph glyph-name="bar" unicode="|" horiz-adv-x="567" 
d="M284 -208h-28.5t-37 -0.5t-38 -1t-30.5 -0.5q6 35 9.5 62.5t5 61t2 79t0.5 117.5v1112q0 71 -0.5 116.5t-2 78.5t-5 60.5t-9.5 62.5q12 0 30.5 -0.5t38 -1t37 -0.5h28.5h27.5t37 0.5t38 1t30.5 0.5q-6 -35 -9.5 -62.5t-5 -60.5t-2 -78.5t-0.5 -116.5v-1112
q0 -72 0.5 -117.5t2 -79t5 -61t9.5 -62.5q-12 0 -30.5 0.5t-38 1t-37 0.5h-27.5z" />
    <glyph glyph-name="braceright" unicode="}" horiz-adv-x="643" 
d="M206 1392q0 23 -12 35.5t-41 12.5q-24 0 -47.5 -4t-43.5 -9v124q11 3 28.5 6t37.5 5.5t40 4t37 1.5q118 0 172.5 -56.5t54.5 -165.5v-477q0 -82 41.5 -128.5t122.5 -56.5v-38q-81 -10 -122.5 -56.5t-41.5 -128.5v-477q0 -109 -54.5 -165.5t-172.5 -56.5q-17 0 -37 1.5
t-40 4t-37.5 5.5t-28.5 6v124q20 -5 43.5 -9t47.5 -4q29 0 41 12.5t12 35.5v529q0 74 41 126.5t110 71.5q-70 18 -110.5 71t-40.5 127v529z" />
    <glyph glyph-name="asciitilde" unicode="~" horiz-adv-x="1007" 
d="M132 669q40 23 72 37.5t60 22.5t52.5 11t48.5 3q39 0 74 -11t68 -24.5t65.5 -24.5t65.5 -11q42 0 98 20t119 59v-197q-56 -35 -114.5 -55.5t-118.5 -20.5q-41 0 -75 11t-65.5 24.5t-63.5 24.5t-71 11q-34 0 -60.5 -5t-50.5 -15.5t-48.5 -26t-55.5 -35.5v202z" />
    <glyph glyph-name="uni00A0" unicode="&#xa0;" horiz-adv-x="489" 
 />
    <glyph glyph-name="exclamdown" unicode="&#xa1;" horiz-adv-x="493" 
d="M122.022 829.008q0 53.9961 34.998 87.4941t94.9941 33.498q60.9961 0 95.4941 -33.498t34.498 -87.4941q0 -53.9971 -34.498 -86.9951t-95.4941 -32.998q-59.9961 0 -94.9941 32.998t-34.998 86.9951zM184.019 568.023q19.999 -1 36.498 -1.5t31.998 -0.5t32.498 0.5
t36.998 1.5q14.999 -156.99 26.998 -285.982q5 -54.9971 9.99902 -109.993q5 -54.9971 9 -100.994t6.99902 -79.9951q3 -33.998 3 -46.9971q2 -53.9971 3 -98.4941t2.5 -83.4951q1.5 -38.9971 2.5 -73.9951t2.99902 -68.9961q-12.999 0 -31.498 0.5q-18.498 0.5 -37.9971 1
t-37.498 1t-28.998 0.5t-28.998 -0.5t-37.498 -1t-37.9971 -1q-18.499 -0.5 -31.498 -0.5q1.99902 33.998 2.99902 68.9961t2.5 73.9951q1.5 38.998 2.5 83.4951t3 98.4941q0 12.999 3 46.9971q2.99902 33.998 6.99902 79.9951t9 100.994q4.99902 54.9961 9.99902 109.993
q11.999 128.992 26.998 285.982z" />
    <glyph glyph-name="cent" unicode="&#xa2;" horiz-adv-x="988" 
d="M596 798q-48 0 -90.5 -17t-74 -57t-49.5 -105.5t-18 -161.5q0 -72 17.5 -129t48.5 -96t74.5 -59.5t96.5 -20.5q26 0 55.5 4t59.5 10.5t58 15t51 17.5l18 -7l-22 -164q-21 -7 -49.5 -14.5t-59 -13.5t-61 -9.5t-55.5 -3.5q-109 0 -197 29.5t-149.5 91t-94.5 157t-33 228.5
q0 108 35 194.5t97.5 148t148.5 94.5t188 33q87 0 158.5 -15.5t128.5 -44.5q-31 -61 -45.5 -100t-18.5 -72h-29q-7 7 -24 18.5t-41.5 22t-56 18.5t-67.5 8zM650 823v122t1.5 88.5t3.5 64t7 49.5q-24 0 -43.5 -0.5t-28.5 -0.5t-27 0.5t-45 0.5q4 -23 6.5 -49.5t4 -64
t1.5 -88.5v-122v-701v-122t-1.5 -88.5t-4 -64.5t-6.5 -49q32 0 47.5 0.5t24.5 0.5t25.5 -0.5t46.5 -0.5q-5 22 -7 49t-3.5 64.5t-1.5 88.5v122v701z" />
    <glyph glyph-name="sterling" unicode="&#xa3;" horiz-adv-x="988" 
d="M200 951q0 98 32 172t86 123.5t125.5 74.5t150.5 25q100 0 171.5 -27.5t118.5 -65.5q-12 -21 -23.5 -46t-21.5 -48q-11 -26 -22 -53h-25q-14 15 -33.5 32t-43.5 31.5t-53.5 24t-63.5 9.5q-81 0 -118 -44.5t-37 -132.5q0 -46 10 -92t24.5 -92t32 -92t32 -92t24.5 -92
t10 -92q0 -62 -10.5 -108.5t-28 -83.5t-41 -67t-49.5 -58h169q10 0 38.5 0.5t64.5 2t76 2.5t74 3q0 -5 -1 -16.5t-1.5 -26t-1 -28.5t-0.5 -23q0 -14 0.5 -30t3.5 -48q-26 1 -62 2.5t-72.5 2.5t-68.5 1.5t-50 0.5h-349q-15 0 -38 -0.5t-48.5 -1.5t-51 -2.5t-44.5 -2.5v11.5
t0.5 22.5t0.5 26v21v21t-0.5 25.5t-0.5 22.5v13q17 -1 32 -2q12 -1 23.5 -1h15.5q52 0 86 23.5t53 61.5t26.5 85.5t7.5 95.5q0 34 -9.5 77.5t-24 91t-31 98t-31 98t-24 90.5t-9.5 77zM319 649q-15 0 -46 -0.5t-66 -1.5t-69 -2.5t-53 -2.5v11.5t0.5 22t0.5 25.5v21v21
t-0.5 26t-0.5 23v13q22 -2 57.5 -3.5t71.5 -2.5t65 -2t40 -1h129h27.5t48.5 0.5t62 1t67.5 1t64.5 1.5t54 2q0 -5 -1 -16t-1.5 -24l-1 -26t-0.5 -21q0 -13 0.5 -27t3.5 -46q-17 1 -44.5 2t-59.5 1.5t-66 1.5t-64 1.5t-54 0.5h-36h-129z" />
    <glyph glyph-name="currency" unicode="&#xa4;" horiz-adv-x="1125" 
d="M551 277q56 0 103 19.5t81.5 57t53.5 93t19 127.5t-19 127.5t-53.5 93t-81.5 57t-103 19.5q-55 0 -102 -19.5t-81.5 -57t-54 -93t-19.5 -127.5t19.5 -127.5t54 -93t81.5 -57t102 -19.5zM551 119q-74 0 -137.5 14.5t-118.5 46.5l-116 -112l-157 147l126 121
q-52 101 -52 238q0 71 12.5 129t38.5 108l-125 122l157 147l117 -113q56 35 116.5 49t138.5 14q79 0 139 -14t116 -49l118 113l157 -147l-124 -122q25 -50 38 -108t13 -129t-13 -130t-38 -109q14 -14 30.5 -30l33 -32t32.5 -31t28 -27l-157 -147l-117 112
q-55 -32 -118 -46.5t-138 -14.5z" />
    <glyph glyph-name="yen" unicode="&#xa5;" horiz-adv-x="1005" 
d="M282 242q-15 0 -38 -0.5t-48 -1.5l-50 -2t-46 -2v11t0.5 23t0.5 27v23v23t-0.5 28t-0.5 24.5v13.5q24 -2 51.5 -3t53 -2t46 -1.5t31.5 -0.5h434q16 0 39.5 0.5t49.5 2t52 2.5t46 3q-4 -26 -4.5 -47.5t-0.5 -41.5q0 -17 0.5 -36t4.5 -49q-24 1 -52 2t-54.5 2t-48 1.5
t-32.5 0.5h-434zM282 506q-15 0 -38 -0.5t-48 -1.5l-50 -2t-46 -2v11t0.5 23t0.5 27v23v23.5t-0.5 28t-0.5 24v13.5q24 -2 51.5 -3t53 -2t46 -1.5t31.5 -0.5h434q16 0 39.5 0.5t49.5 2t52 2.5t46 3q-4 -26 -4.5 -47t-0.5 -41q0 -18 0.5 -37t4.5 -49q-24 1 -52 2t-54.5 2
t-48 1.5t-32.5 0.5h-434zM505 809q29 69 54 134t49 129l48 128t51 130q38 -1 71 -1.5t65 -0.5q11 0 32 0.5t44.5 1t45.5 1.5t35 1q-94 -192 -182 -382.5t-182 -379.5v-188.5t0.5 -134t2 -92.5t4 -63.5t6 -47.5t9.5 -45q-13 0 -33.5 0.5t-43 1t-43 0.5h-33.5h-34t-42 -0.5
t-42 -1t-33 -0.5q5 23 8 43.5t5 47t3.5 63t2 92.5t0.5 135v190q-48 97 -93 192.5t-89.5 190t-89 189.5t-91.5 190q13 0 35 -1t45.5 -1.5t44.5 -1t32 -0.5q32 0 65 0.5t71 1.5q27 -62 51 -125.5t48 -128.5t49 -131.5t54 -135.5z" />
    <glyph glyph-name="brokenbar" unicode="&#xa6;" horiz-adv-x="572" 
d="M165 1244q0 43 -0.5 80t-2 71.5t-5 67t-10.5 67.5q12 0 30.5 -0.5t38 -1t37 -1t27.5 -0.5t27.5 0.5t37 1t38.5 1t32 0.5q-7 -35 -11 -67.5t-5.5 -67t-2 -71.5t-0.5 -80v-142q0 -43 0.5 -80t2 -71.5t5.5 -67.5t11 -67q-13 0 -32 0.5t-38.5 1t-37 0.5h-27.5h-27.5t-37 -0.5
t-38 -1t-30.5 -0.5q7 34 10.5 67t5 67.5t2 71.5t0.5 80v142zM165 226q0 43 -0.5 80t-2 71.5t-5 67t-10.5 67.5q12 0 30.5 -0.5t38 -1t37 -1t27.5 -0.5t27.5 0.5t37 1t38.5 1t32 0.5q-7 -35 -11 -67.5t-5.5 -67t-2 -71.5t-0.5 -80v-142q0 -43 0.5 -80t2 -71.5t5.5 -67.5
t11 -67q-13 0 -32 0.5t-38.5 1t-37 0.5h-27.5h-27.5t-37 -0.5t-38 -1t-30.5 -0.5q7 34 10.5 67t5 67.5t2 71.5t0.5 80v142z" />
    <glyph glyph-name="section" unicode="&#xa7;" horiz-adv-x="936" 
d="M506 547q12 7 25 18.5t24.5 26.5t18.5 32.5t7 37.5q0 48 -34.5 78t-116.5 45q-12 -7 -23 -19t-19.5 -27.5t-14 -33.5t-5.5 -37q0 -47 31.5 -77t106.5 -44zM94 83q45 66 62.5 117t26.5 81h33q12 -27 29 -51.5t42 -43t58 -29t75 -10.5q64 0 103 30.5t39 82.5
q0 31 -18.5 51.5t-49 36t-69.5 28t-79.5 27t-79 33t-69 46.5t-49 67.5t-18.5 95.5q0 42 12 74t32.5 56.5t48 42t59.5 31.5q-27 16 -50.5 37.5t-41 48t-28 58t-10.5 67.5q0 72 27 125t75 88t113.5 52.5t142.5 17.5q45 0 89.5 -6.5t85.5 -18.5t76 -28.5t61 -35.5
q-21 -36 -35.5 -59t-25 -41t-17.5 -35t-14 -41h-32q-21 49 -68.5 70t-111.5 21q-66 0 -98 -28t-32 -69q0 -35 18.5 -57t49 -36.5t69 -24.5t79 -21.5t79.5 -28t69.5 -44t49 -69t18.5 -102.5q0 -35 -12 -68t-33 -60.5t-49 -48.5t-60 -33q28 -15 52.5 -35.5t42.5 -47t28 -58.5
t10 -69q0 -70 -29.5 -123t-79.5 -88t-117.5 -53t-142.5 -18q-108 0 -188 23t-148 73z" />
    <glyph glyph-name="dieresis" unicode="&#xa8;" horiz-adv-x="700" 
d="M42 1230q0 54 32.5 87t92.5 33t92.5 -33t32.5 -87t-32.5 -87t-92.5 -33t-92.5 33t-32.5 87zM408 1227q0 54 32.5 87t92.5 33t92.5 -33t32.5 -87t-32.5 -87t-92.5 -33t-92.5 33t-32.5 87z" />
    <glyph glyph-name="copyright" unicode="&#xa9;" horiz-adv-x="1570" 
d="M1015 454l-17 -140q-18 -7 -42 -13.5t-49.5 -11t-50.5 -7.5t-46 -3q-80 0 -143 26t-107 76.5t-67.5 124.5t-23.5 170q0 87 23.5 156t68.5 117t110 74t149 26q51 0 109 -14.5t103 -39.5q-12 -22 -23.5 -45t-21 -43.5t-16.5 -38t-9 -27.5h-27q-21 27 -51.5 43t-72.5 16
q-35 0 -61.5 -11t-44.5 -37t-27 -70.5t-9 -110.5q0 -72 11.5 -119t31 -74.5t45.5 -38.5t55 -11q51 0 95 10.5t91 25.5zM785 1205q-118 0 -210 -33t-155.5 -100t-96.5 -168.5t-33 -239.5q0 -135 33 -236.5t96.5 -168.5t155.5 -100.5t210 -33.5t210 33.5t155.5 100.5
t96.5 168.5t33 236.5q0 138 -33 239.5t-96.5 168.5t-155.5 100t-210 33zM785 -13q-156 0 -277.5 45.5t-205.5 132.5t-128 212.5t-44 286.5q0 157 43.5 283t127 214t205.5 135t279 47t279 -47t205.5 -135t127 -214t43.5 -283q0 -161 -44 -286.5t-128 -212.5t-205.5 -132.5
t-277.5 -45.5z" />
    <glyph glyph-name="ordfeminine" unicode="&#xaa;" horiz-adv-x="780" 
d="M362 1198q-32 0 -57 -9t-44 -21.5t-32 -26t-21 -23.5h-30q-3 21 -18 57.5t-47 95.5q40 24 107.5 46.5t156.5 22.5q145 0 217.5 -63.5t72.5 -172.5v-324q0 -15 1.5 -25t8.5 -16t20.5 -8.5t37.5 -2.5q-11 -35 -14.5 -61t-3.5 -41q-15 -8 -32 -13q-14 -5 -33 -9t-40 -4
q-19 0 -38 6t-34.5 17t-27.5 28t-17 39q-16 -26 -33.5 -44.5t-39.5 -30.5t-49 -17.5t-62 -5.5q-54 0 -95 18.5t-68.5 49t-41.5 69.5t-14 80q0 54 16 97.5t51 73.5t91.5 46.5t136.5 16.5h71v70q0 38 -24.5 61.5t-71.5 23.5zM362 734q19 0 36 6.5t30.5 20.5t21.5 35.5t8 51.5
v65h-69q-53 0 -75 -22t-22 -69q0 -40 19 -64t51 -24z" />
    <glyph glyph-name="guillemotleft" unicode="&#xab;" horiz-adv-x="980" 
d="M321 174l-221 394l221 394h204l-179 -394l179 -394h-204zM676 174l-191 394l191 394h204l-149 -394l149 -394h-204z" />
    <glyph glyph-name="logicalnot" unicode="&#xac;" horiz-adv-x="1085" 
d="M316 498q-16 0 -38.5 -0.5t-47.5 -1.5t-50 -2.5t-46 -2.5v12.5t0.5 25t0.5 29v25.5v25.5t-0.5 29.5t-0.5 25v14q24 -2 51 -3t52.5 -2t46.5 -1.5t32 -0.5h460q15 0 38 0.5t48 1.5l50 2t46 3v-308q0 -11 0.5 -30t1.5 -42.5t2 -49t3 -48.5q-4 0 -20 0.5t-34.5 1t-35.5 1
t-23 0.5l-99 -3q1 19 1.5 42.5t1.5 47t1.5 45t0.5 36.5v128h-442z" />
    <glyph glyph-name="uni00AD" unicode="&#xad;" horiz-adv-x="900" 
d="M314 508q-16 0 -38.5 -0.5t-47.5 -1.5t-50 -2.5t-46 -2.5v12.5t0.5 25t0.5 29v25.5v25.5t-0.5 29.5t-0.5 25v14q24 -2 51.5 -3t53 -2t46 -1.5t31.5 -0.5h267q15 0 38.5 0.5t49.5 2t52 2.5t47 3q-5 -26 -5.5 -48t-0.5 -45q0 -20 0.5 -41.5t5.5 -52.5q-24 1 -52.5 2.5
t-54.5 2.5t-47.5 1.5t-32.5 0.5h-267z" />
    <glyph glyph-name="registered" unicode="&#xae;" horiz-adv-x="1570" 
d="M785 1205q-118 0 -210 -33t-155.5 -100t-96.5 -168.5t-33 -239.5q0 -135 33 -236.5t96.5 -168.5t155.5 -100.5t210 -33.5t210 33.5t155.5 100.5t96.5 168.5t33 236.5q0 138 -33 239.5t-96.5 168.5t-155.5 100t-210 33zM738 713h46q42 0 64.5 25.5t22.5 69.5
q0 48 -24 67.5t-58 19.5q-11 0 -25.5 -0.5t-23.5 -2.5q-1 -38 -1.5 -70t-0.5 -58v-51zM738 560q0 -64 0.5 -103.5t2 -66.5t5 -46t9.5 -41h-24t-33.5 0.5t-33 0.5h-23.5h-24.5t-33 -0.5t-33 -0.5h-22.5q6 24 9 45t4.5 51.5t2 76t0.5 117.5v171q0 18 -1 53.5t-2 75.5t-2.5 78
t-2.5 61q57 0 115.5 3.5t127.5 3.5q78 0 133 -18.5t90 -50t51 -73.5t16 -88q0 -33 -9.5 -64.5t-27 -59.5t-42.5 -50t-56 -37q45 -75 87.5 -152t82.5 -146q-8 0 -26 1t-39 1.5t-41 1t-30 0.5q-8 0 -19 -0.5t-22.5 -1t-22 -1t-16.5 -0.5l-134 259h-16zM785 -13
q-156 0 -277.5 45.5t-205.5 132.5t-128 212.5t-44 286.5q0 157 43.5 283t127 214t205.5 135t279 47t279 -47t205.5 -135t127 -214t43.5 -283q0 -161 -44 -286.5t-128 -212.5t-205.5 -132.5t-277.5 -45.5z" />
    <glyph glyph-name="macron" unicode="&#xaf;" horiz-adv-x="642" 
d="M230 1140q-16 0 -38.5 -0.5t-48 -1.5t-50.5 -2t-45 -2v12t0.5 25t0.5 29v26v25t-0.5 29.5t-0.5 25.5v13q24 -2 51.5 -3t53 -1.5t46 -1t31.5 -0.5h177q15 0 38.5 0.5t49.5 1.5l52 2t47 3q-5 -26 -5.5 -48t-0.5 -45q0 -20 0.5 -41.5t5.5 -51.5q-24 1 -52 2t-54.5 2t-48 1.5
t-32.5 0.5h-177z" />
    <glyph glyph-name="degree" unicode="&#xb0;" horiz-adv-x="722" 
d="M230 1029q0 -69 34 -108t97 -39t97 39.5t34 109.5q0 69 -34 108t-97 39t-97 -39t-34 -108v-2zM35 1030q0 66 22.5 122.5t64.5 98t102.5 65.5t136.5 24t136.5 -24t102.5 -65.5t64.5 -98t22.5 -122.5t-22.5 -122.5t-64.5 -98t-102.5 -65.5t-136.5 -24t-136.5 24
t-102.5 65.5t-64.5 98t-22.5 122.5z" />
    <glyph glyph-name="plusminus" unicode="&#xb1;" horiz-adv-x="1086" 
d="M630 687h119q16 0 39.5 0.5t49.5 2t52 2.5t46 3q-5 -26 -5.5 -47t-0.5 -41q0 -18 0.5 -38.5t5.5 -50.5q-24 1 -52 2t-54.5 2t-48 1.5t-32.5 0.5h-119v-109q0 -15 0.5 -35.5t1 -42.5t1.5 -45t3 -42h-14.5t-29 0.5t-33 0.5h-27.5h-28t-33.5 -0.5t-29.5 -0.5h-16
q2 23 3.5 48t2 47.5t1 41t0.5 28.5v109h-119q-16 0 -38.5 -0.5t-47.5 -1.5l-50 -2t-46 -2v11.5t0.5 24t0.5 28v23.5v23.5t-0.5 28t-0.5 24v13.5q24 -2 51 -3t52.5 -2t46.5 -1.5t32 -0.5h119v128q0 15 -0.5 36.5t-2 45.5l-3 48t-2.5 44q38 -7 61.5 -8t44.5 -1q19 0 41.5 1
t64.5 6q-2 -23 -3 -48.5t-1.5 -49.5t-1 -44t-0.5 -30v-128zM313 4q-16 0 -38.5 -0.5t-47.5 -1.5t-50 -2.5t-46 -2.5v12t0.5 23.5t0.5 28v23.5v23.5t-0.5 28t-0.5 24v13.5q24 -2 51 -3t52.5 -2t46.5 -1.5t32 -0.5h436q16 0 39.5 0.5t49.5 2t52 2.5t46 3q-5 -26 -5.5 -47
t-0.5 -41q0 -18 0.5 -38.5t5.5 -50.5q-24 1 -52 2.5t-54.5 2.5t-48 1.5t-32.5 0.5h-436z" />
    <glyph glyph-name="twosuperior" unicode="&#xb2;" horiz-adv-x="809" 
d="M84 517q0 78 29 136t72.5 103.5t94.5 82t94.5 73t72.5 76t29 90.5q0 57 -34 89.5t-96 32.5q-33 0 -59 -8t-46 -21t-34 -29.5t-24 -32.5h-28q-8 28 -23.5 60t-46.5 82q18 15 46.5 31t64.5 28.5t78 21t87 8.5q83 0 144.5 -20t102 -56t60.5 -85.5t20 -109.5q0 -71 -26 -120
t-65.5 -86.5t-87 -69t-90.5 -66t-75.5 -77t-42.5 -103.5q133 0 223 2.5t147 13.5q-3 -39 -4 -56t-1 -31q0 -22 0.5 -38t4.5 -39q-37 3 -75.5 3.5t-78.5 0.5h-433v114z" />
    <glyph glyph-name="threesuperior" unicode="&#xb3;" horiz-adv-x="809" 
d="M542 894q71 -25 113.5 -76t42.5 -130q0 -143 -93 -219t-262 -76q-81 0 -157 23t-132 60q12 24 24 47t22.5 43.5t18.5 38t12 29.5h27q12 -20 27.5 -37.5t36.5 -30.5t48.5 -20.5t62.5 -7.5q78 0 114 34.5t36 108.5q0 73 -33 104.5t-106 31.5h-39q-23 0 -50 -1.5t-58 -3.5
v9.5t0.5 20t0.5 23v19.5v19.5t-0.5 24.5t-0.5 21.5v11.5q36 -2 68 -5t48 -3h23q68 0 99 33.5t31 93.5t-37 90.5t-103 30.5q-56 0 -95 -25t-56 -59h-29q-5 14 -11 27t-15 28.5t-21.5 34.5t-29.5 45q22 15 51 30.5t64 28.5t75 21t84 8q158 0 245.5 -65t87.5 -186
q0 -63 -36.5 -114t-97.5 -77v-4z" />
    <glyph glyph-name="acute" unicode="&#xb4;" horiz-adv-x="599" 
d="M112 1102v14q41 76 73 132.5t61 111.5q20 -1 50.5 -1h69.5h30h38t40 0.5t36 1.5q-38 -40 -77 -79t-75.5 -73t-67 -61.5t-51.5 -45.5h-127z" />
    <glyph glyph-name="mu" unicode="&#xb5;" horiz-adv-x="989" 
d="M868 346q0 -72 0.5 -124.5t2 -92.5t4 -70.5t5.5 -59.5q-12 0 -29.5 0.5t-36.5 1t-36 0.5h-27h-28t-35.5 -0.5t-36 -1t-29.5 -0.5l5 88q2 38 3.5 64t2 52t1 58.5t0.5 84.5v286q0 72 -0.5 117.5t-2 78.5t-5 60.5t-10.5 62.5q12 0 30 -0.5t37.5 -1t37.5 -1t29 -0.5
q10 0 28 0.5t37.5 1t38.5 1t31 0.5q-6 -35 -9.5 -63.5t-5 -62.5t-2 -79.5t-0.5 -113.5v-286zM716 252q-6 -50 -27.5 -97.5t-54.5 -85t-75 -60t-88 -22.5q-32 0 -63.5 5.5t-54.5 16.5q0 -12 1 -24q1 -11 1.5 -23t0.5 -23q0 -68 0.5 -113.5t2 -79.5t5 -62.5t10.5 -63.5
q-12 0 -31 0.5t-39 1t-38 1t-28 0.5q-11 0 -29 -0.5t-37.5 -1t-37.5 -1t-30 -0.5q6 35 9.5 62.5t5 60.5t2 78.5t0.5 117.5v693q0 72 -0.5 117.5t-2 78.5t-5 60.5t-9.5 62.5q12 0 30 -0.5t37.5 -1t37.5 -1t29 -0.5q10 0 28 0.5t38 1t39 1t31 0.5q-7 -35 -10.5 -63.5t-5 -62.5
t-2 -79.5t-0.5 -113.5v-332q0 -85 35.5 -119t95.5 -34q67 0 107 48.5t40 129.5h78z" />
    <glyph glyph-name="paragraph" unicode="&#xb6;" horiz-adv-x="1144" 
d="M463 650q-185 0 -282.5 90t-97.5 264q0 76 21 138.5t66 107.5t116 69.5t172 24.5q66 0 111.5 -2.5t74.5 -4.5q33 -4 53 -7q-3 -17 -5 -32.5t-3.5 -38.5t-2 -56t-1 -84t-0.5 -123.5v-173.5v-314v-173.5t0.5 -123.5t1 -84t2 -56t3.5 -39t5 -32q-105 3 -212 0q5 25 8 72.5
t4.5 125t1.5 188.5v264h-36zM814 0q4 16 6.5 32t4 39t2.5 56t1.5 84t0.5 123.5v173.5v314v173.5t-0.5 123.5t-1.5 84t-2.5 56t-4 38.5t-5.5 32.5q54 -2 106 -2t108 2q-4 -17 -6 -32.5t-3.5 -38.5t-2.5 -56t-1.5 -84t-0.5 -123.5v-173.5v-314v-173.5t0.5 -123.5t1.5 -84
t2.5 -56t4 -39t6.5 -32q-107 3 -216 0z" />
    <glyph glyph-name="periodcentered" unicode="&#xb7;" horiz-adv-x="453" 
d="M87 592q0 54 37.5 87.5t98.5 33.5t98 -33.5t37 -87.5t-37 -87t-98 -33t-98.5 33t-37.5 87z" />
    <glyph glyph-name="cedilla" unicode="&#xb8;" horiz-adv-x="597" 
d="M95 -348q71 25 113 57t42 78q0 34 -27.5 52.5t-75.5 25.5l87 209h126l-29 -134q57 -15 89.5 -47.5t32.5 -95.5q0 -45 -23 -80.5t-63 -60.5t-94.5 -38t-116.5 -13q-6 0 -14.5 0.5t-14.5 0.5z" />
    <glyph glyph-name="onesuperior" unicode="&#xb9;" horiz-adv-x="809" 
d="M202 1065q-20 38 -43 61.5t-40 34.5v20q67 23 169 67t229 98l25 -11q-4 -25 -6 -48.5t-3 -62.5t-1 -100.5v-161.5v-191v-115t0.5 -82.5t2 -58.5t3.5 -42.5t5 -34.5t8 -35h-246q6 28 9.5 51t5 60t2 96.5t0.5 160.5v351z" />
    <glyph glyph-name="ordmasculine" unicode="&#xba;" horiz-adv-x="822" 
d="M401 714q61 0 90 57t29 178q0 66 -6.5 113.5t-20.5 77.5t-36.5 44t-55.5 14q-64 0 -90.5 -58t-26.5 -191q0 -121 28.5 -178t88.5 -57zM401 572q-78 0 -139 19.5t-102.5 66t-63 123t-21.5 189.5q0 179 81 274.5t245 95.5q166 0 247 -95t81 -275q0 -113 -21.5 -189.5
t-63.5 -123t-103 -66t-140 -19.5z" />
    <glyph glyph-name="guillemotright" unicode="&#xbb;" horiz-adv-x="980" 
d="M659 962l221 -394l-221 -394h-204l179 394l-179 394h204zM304 962l191 -394l-191 -394h-204l149 394l-149 394h204z" />
    <glyph glyph-name="onequarter" unicode="&#xbc;" horiz-adv-x="1780" 
d="M1003 218q46 152 86 289q17 58 34 119t32.5 117t28 104.5t20.5 82.5q21 0 47.5 -0.5t54 -0.5t54 0.5t46.5 0.5l-157 -609h176q0 30 -0.5 70.5t-1.5 81t-3 74.5t-5 51q20 0 48 -0.5t58 -0.5t58.5 0.5t49.5 0.5q-4 -17 -6 -51t-3 -74.5t-1 -81v-70.5h22h20t21.5 0.5
t27.5 1.5q0 -3 -0.5 -24.5t-0.5 -47.5t0.5 -48.5t0.5 -26.5q-19 1 -32 2t-23.5 1.5t-18.5 1t-17 0.5q0 -67 1.5 -108t8.5 -73q-20 0 -48.5 0.5t-58.5 0.5t-58.5 -0.5t-48.5 -0.5q7 32 8.5 73t1.5 108h-422v37zM183 1065q-20 38 -43 61.5t-40 34.5v20q67 23 169 67t229 98
l25 -11q-4 -25 -6 -48.5t-3 -62.5t-1 -100.5v-161.5v-191v-115t0.5 -82.5t2 -58.5t3.5 -42.5t5 -34.5t8 -35h-246q6 28 9.5 51t5 60t2 96.5t0.5 160.5v351zM739 23q-10 -26 -20 -56t-18 -58.5t-14 -53t-7 -38.5q-10 0 -25 0.5t-31 1t-30 1t-23 0.5q-7 0 -23 -0.5t-34 -1
t-35 -1.5t-27 -1l555 1508q9 25 19 55.5t18 59t14 53t8 38.5q10 0 25 -0.5t30.5 -1t29.5 -1t23 -0.5q7 0 23 0.5t34 1t35.5 1.5t27.5 1z" />
    <glyph glyph-name="onehalf" unicode="&#xbd;" horiz-adv-x="1780" 
d="M184 1065q-20 38 -43 61.5t-40 34.5v20q67 23 169 67t229 98l25 -11q-4 -25 -6 -48.5t-3 -62.5t-1 -100.5v-161.5v-191v-115t0.5 -82.5t2 -58.5t3.5 -42.5t5 -34.5t8 -35h-246q6 28 9.5 51t5 60t2 96.5t0.5 160.5v351zM1098 118q0 78 29 136t72.5 103.5t94.5 82t94.5 73
t72.5 76t29 90.5q0 57 -34 89.5t-96 32.5q-33 0 -59 -8t-46 -21t-34 -29.5t-24 -32.5h-28q-8 28 -23.5 60t-46.5 82q18 15 46.5 31t64.5 28.5t78 21t87 8.5q83 0 144.5 -20t102 -56t60.5 -85.5t20 -109.5q0 -71 -26 -120t-65.5 -86.5t-87 -69t-90.5 -66t-75.5 -77
t-42.5 -103.5q133 0 223 2.5t147 13.5q-3 -39 -4 -56t-1 -31q0 -22 0.5 -38t4.5 -39q-37 3 -75.5 3.5t-78.5 0.5h-433v114zM729 23q-10 -26 -20 -56t-18 -58.5t-14 -53t-7 -38.5q-10 0 -25 0.5t-31 1t-30 1t-23 0.5q-7 0 -23 -0.5t-34 -1t-35 -1.5t-27 -1l555 1508
q9 25 19 55.5t18 59t14 53t8 38.5q10 0 25 -0.5t30.5 -1t29.5 -1t23 -0.5q7 0 23 0.5t34 1t35.5 1.5t27.5 1z" />
    <glyph glyph-name="threequarters" unicode="&#xbe;" horiz-adv-x="1840" 
d="M1063 218q46 152 86 289q17 58 34 119t32.5 117t28 104.5t20.5 82.5q21 0 47.5 -0.5t54 -0.5t54 0.5t46.5 0.5l-157 -609h176q0 30 -0.5 70.5t-1.5 81t-3 74.5t-5 51q20 0 48 -0.5t58 -0.5t58.5 0.5t49.5 0.5q-4 -17 -6 -51t-3 -74.5t-1 -81v-70.5h22h20t21.5 0.5
t27.5 1.5q0 -3 -0.5 -24.5t-0.5 -47.5t0.5 -48.5t0.5 -26.5q-19 1 -32 2t-23.5 1.5t-18.5 1t-17 0.5q0 -67 1.5 -108t8.5 -73q-20 0 -48.5 0.5t-58.5 0.5t-58.5 -0.5t-48.5 -0.5q7 32 8.5 73t1.5 108h-422v37zM572 894q71 -25 113.5 -76t42.5 -130q0 -143 -93 -219t-262 -76
q-81 0 -157 23t-132 60q12 24 24 47t22.5 43.5t18.5 38t12 29.5h27q12 -20 27.5 -37.5t36.5 -30.5t48.5 -20.5t62.5 -7.5q78 0 114 34.5t36 108.5q0 73 -33 104.5t-106 31.5h-39q-23 0 -50 -1.5t-58 -3.5v9.5t0.5 20t0.5 23v19.5v19.5t-0.5 24.5t-0.5 21.5v11.5q36 -2 68 -5
t48 -3h23q68 0 99 33.5t31 93.5t-37 90.5t-103 30.5q-56 0 -95 -25t-56 -59h-29q-5 14 -11 27t-15 28.5t-21.5 34.5t-29.5 45q22 15 51 30.5t64 28.5t75 21t84 8q158 0 245.5 -65t87.5 -186q0 -63 -36.5 -114t-97.5 -77v-4zM820 23q-10 -26 -20 -56t-18 -58.5t-14 -53
t-7 -38.5q-10 0 -25 0.5t-31 1t-30 1t-23 0.5q-7 0 -23 -0.5t-34 -1t-35 -1.5t-27 -1l555 1508q9 25 19 55.5t18 59t14 53t8 38.5q10 0 25 -0.5t30.5 -1t29.5 -1t23 -0.5q7 0 23 0.5t34 1t35.5 1.5t27.5 1z" />
    <glyph glyph-name="questiondown" unicode="&#xbf;" horiz-adv-x="711" 
d="M283.027 829.008q0 53.9961 34.998 87.4941t94.9941 33.498q60.9961 0 95.4941 -33.498t34.498 -87.4941q0 -53.9971 -34.498 -86.9951t-95.4941 -32.998q-59.9961 0 -94.9941 32.998t-34.998 86.9951zM308.025 552.024q26.999 -1 44.498 -1.5t29.498 -0.5h19.499h14.499
h20.498q13.5 0 29.499 0.5t31.498 1t27.498 0.5v-149.991q0 -55.9961 -17.999 -99.9941q-17.999 -43.9971 -45.4971 -81.4941q-27.498 -37.498 -59.4961 -71.4961t-59.4971 -70.4961q-27.498 -36.4971 -45.4971 -77.4951q-17.999 -40.9971 -17.999 -92.9941
q0 -68.9961 37.998 -97.9941t104.993 -28.998q35.998 0 67.9961 8.5q31.998 8.49902 57.4971 23.498q25.498 14.999 43.9971 34.998t28.498 42.9971h26.998q7 -23.998 12.5 -41.9971q5.49902 -17.999 12.999 -37.498q7.49902 -19.499 18.499 -43.4971
q10.999 -23.999 27.998 -58.9961q-25.999 -18.999 -59.4961 -37.498q-33.498 -18.499 -72.9961 -32.998q-39.4971 -14.499 -83.9951 -22.999q-44.4971 -8.49902 -92.4941 -8.49902q-180.989 0 -275.483 82.4951t-94.4941 229.485q0 61.9971 20.499 108.494t50.9971 84.4941
q30.498 37.998 65.9961 71.4961q35.4971 33.498 65.9961 68.4961q30.498 34.9971 50.9961 75.4951q20.499 40.4971 20.499 93.4941q0 25.998 -0.5 49.4971q-0.5 23.498 -2.5 41.4971q-2 20.999 -4 39.998z" />
    <glyph glyph-name="Agrave" unicode="&#xc0;" horiz-adv-x="1100" 
d="M489 1380q-21 18 -52 42t-68 52.5t-78.5 60t-82.5 64.5q16 -1 37.5 -1.5t43 -0.5h41.5h32h74.5t55.5 1q36 -55 72.5 -105t71.5 -99v-14h-147zM531 877l-256 -879q-17 1 -47.5 2t-54.5 1q-13 0 -32.5 -0.5t-39.5 -1t-37.5 -1.5t-25.5 -1l431 1343h161l432 -1342
q-9 0 -28.5 0.5t-41.5 1t-43.5 1t-34.5 0.5t-31 -0.5l-36 -1t-33.5 -1t-24.5 -0.5zM307 297h469v174h-469v-174z" />
    <glyph glyph-name="Aacute" unicode="&#xc1;" horiz-adv-x="1100" 
d="M481 1380v14q35 49 71.5 99t72.5 105q20 -1 55.5 -1h74.5h31.5h41.5t43.5 0.5t37.5 1.5q-41 -33 -82.5 -64.5t-78.5 -60t-68 -52.5t-52 -42h-147zM531 877l-256 -879q-17 1 -47.5 2t-54.5 1q-13 0 -32.5 -0.5t-39.5 -1t-37.5 -1.5t-25.5 -1l431 1343h161l432 -1342
q-9 0 -28.5 0.5t-41.5 1t-43.5 1t-34.5 0.5t-31 -0.5l-36 -1t-33.5 -1t-24.5 -0.5zM307 297h469v174h-469v-174z" />
    <glyph glyph-name="Acircumflex" unicode="&#xc2;" horiz-adv-x="1100" 
d="M547 1464l-132 -79h-200l245 235h177l246 -235h-202zM531 877l-256 -879q-17 1 -47.5 2t-54.5 1q-13 0 -32.5 -0.5t-39.5 -1t-37.5 -1.5t-25.5 -1l431 1343h161l432 -1342q-9 0 -28.5 0.5t-41.5 1t-43.5 1t-34.5 0.5t-31 -0.5l-36 -1t-33.5 -1t-24.5 -0.5zM307 297h469
v174h-469v-174z" />
    <glyph glyph-name="Atilde" unicode="&#xc3;" horiz-adv-x="1100" 
d="M531 877l-256 -879q-17 1 -47.5 2t-54.5 1q-13 0 -32.5 -0.5t-39.5 -1t-37.5 -1.5t-25.5 -1l431 1343h161l432 -1342q-9 0 -28.5 0.5t-41.5 1t-43.5 1t-34.5 0.5t-31 -0.5l-36 -1t-33.5 -1t-24.5 -0.5zM307 297h469v174h-469v-174zM230 1422q4 43 17.5 80t37 64
t57.5 42.5t79 15.5q32 0 59 -10.5t52 -23.5t49.5 -23.5t51.5 -10.5q26 0 42 16.5t24 56.5l143 -24q-5 -47 -19 -87t-39 -68.5t-62.5 -44.5t-89.5 -16q-41 0 -68.5 11.5t-48.5 26t-39.5 26t-40.5 11.5q-26 0 -43 -19t-25 -52z" />
    <glyph glyph-name="Adieresis" unicode="&#xc4;" horiz-adv-x="1100" 
d="M531 877l-256 -879q-17 1 -47.5 2t-54.5 1q-13 0 -32.5 -0.5t-39.5 -1t-37.5 -1.5t-25.5 -1l431 1343h161l432 -1342q-9 0 -28.5 0.5t-41.5 1t-43.5 1t-34.5 0.5t-31 -0.5l-36 -1t-33.5 -1t-24.5 -0.5zM307 297h469v174h-469v-174zM240 1508q0 54 32.5 87t92.5 33
t92.5 -33t32.5 -87t-32.5 -87t-92.5 -33t-92.5 33t-32.5 87zM606 1505q0 54 32.5 87t92.5 33t92.5 -33t32.5 -87t-32.5 -87t-92.5 -33t-92.5 33t-32.5 87z" />
    <glyph glyph-name="Aring" unicode="&#xc5;" horiz-adv-x="1100" 
d="M531 877l-256 -879q-17 1 -47.5 2t-54.5 1q-13 0 -32.5 -0.5t-39.5 -1t-37.5 -1.5t-25.5 -1l431 1343h161l432 -1342q-9 0 -28.5 0.5t-41.5 1t-43.5 1t-34.5 0.5t-31 -0.5l-36 -1t-33.5 -1t-24.5 -0.5zM307 297h469v174h-469v-174zM546 1382q22 0 39 16t17 48t-17 46.5
t-39 14.5t-39 -14.5t-17 -46.5t17 -48t39 -16zM546 1259q-95 0 -150.5 48.5t-55.5 136.5t55.5 136.5t150.5 48.5t150.5 -48.5t55.5 -136.5t-55.5 -136.5t-150.5 -48.5z" />
    <glyph glyph-name="AE" unicode="&#xc6;" horiz-adv-x="1479" 
d="M602 998l-172 -499h224zM814 1167q12 -97 25.5 -196.5t25.5 -199.5q174 2 290 6t158 9q-2 -32 -3 -55t-1 -44q0 -20 1 -41.5t3 -50.5q-32 4 -68.5 7t-86 4.5t-116 2t-158.5 0.5l53 -439h111t85 1t66 2t55.5 4t52.5 7t57 10q-2 -36 -3 -60t-1 -44t1 -44t3 -46h-668
q1 4 1.5 14.5t1 22.5t0.5 23v18q0 15 -1.5 36t-4.5 50t-7.5 67.5t-10.5 89.5h-305q-26 -77 -55.5 -161.5t-54.5 -160.5q-8 0 -23 0.5t-32 1t-34 0.5h-30q-12 0 -32.5 -0.5t-41.5 -1t-39 -1.5t-26 -1l484 1333h836q-3 -29 -4 -48.5t-1 -32.5q0 -16 0.5 -40.5t2.5 -59.5
q-34 6 -71.5 9.5t-93 5.5t-137 2.5t-204.5 0.5z" />
    <glyph glyph-name="Ccedilla" unicode="&#xc7;" horiz-adv-x="985" 
d="M946 195l-26 -170q-21 -5 -53 -11.5t-67 -12.5t-69.5 -10t-60.5 -4q-137 0 -243 33.5t-179 114t-110.5 214.5t-37.5 336q0 335 140.5 496.5t419.5 161.5q36 0 74.5 -5t76.5 -14.5t74.5 -23t66.5 -31.5q-16 -32 -29 -55.5t-23 -43.5t-17 -38t-10 -37h-18q-12 10 -30 22
t-44 22.5t-60 17t-77 6.5q-68 0 -119 -24t-85.5 -81t-52 -151t-17.5 -235q0 -159 21.5 -258t60 -154.5t91 -75t115.5 -19.5q43 0 80.5 4t70 10.5t62 14.5t56.5 17zM453 -348q71 25 113 57t42 78q0 34 -27.5 52.5t-75.5 25.5l87 209h126l-29 -134q57 -15 89.5 -47.5
t32.5 -95.5q0 -45 -23 -80.5t-63 -60.5t-94.5 -38t-116.5 -13q-6 0 -14.5 0.5t-14.5 0.5z" />
    <glyph glyph-name="Egrave" unicode="&#xc8;" horiz-adv-x="992" 
d="M500 1380q-21 18 -52 42t-68 52.5t-78.5 60t-82.5 64.5q16 -1 37.5 -1.5t43 -0.5h41.5h32h74.5t55.5 1q36 -55 72.5 -105t71.5 -99v-14h-147zM899 1330q-3 -29 -4 -48.5t-1 -32.5q0 -16 0.5 -40.5t2.5 -59.5q-34 6 -69 9.5t-87.5 5.5t-132 2.5t-202.5 0.5v-396
q174 2 288 6t156 9q-2 -32 -3 -55t-1 -44q0 -20 1 -41.5t3 -50.5q-32 4 -70.5 7t-91 4.5t-121.5 2t-161 0.5v-439q95 0 168.5 0.5t133 2.5t108.5 7t96 14q-2 -36 -3 -60t-1 -44t1 -44t3 -46h-794q5 22 8 42t5 45t3.5 58t2 83t0.5 119.5v167.5v300v167t-0.5 120t-2 83
t-3.5 58t-5 44.5t-8 42.5h781z" />
    <glyph glyph-name="Eacute" unicode="&#xc9;" horiz-adv-x="992" 
d="M399 1380v14q35 49 71.5 99t72.5 105q20 -1 55.5 -1h74.5h31.5h41.5t43.5 0.5t37.5 1.5q-41 -33 -82.5 -64.5t-78.5 -60t-68 -52.5t-52 -42h-147zM899 1330q-3 -29 -4 -48.5t-1 -32.5q0 -16 0.5 -40.5t2.5 -59.5q-34 6 -69 9.5t-87.5 5.5t-132 2.5t-202.5 0.5v-396
q174 2 288 6t156 9q-2 -32 -3 -55t-1 -44q0 -20 1 -41.5t3 -50.5q-32 4 -70.5 7t-91 4.5t-121.5 2t-161 0.5v-439q95 0 168.5 0.5t133 2.5t108.5 7t96 14q-2 -36 -3 -60t-1 -44t1 -44t3 -46h-794q5 22 8 42t5 45t3.5 58t2 83t0.5 119.5v167.5v300v167t-0.5 120t-2 83
t-3.5 58t-5 44.5t-8 42.5h781z" />
    <glyph glyph-name="Ecircumflex" unicode="&#xca;" horiz-adv-x="992" 
d="M527 1472l-146 -86h-137l215 220h139l215 -220h-138zM899 1330q-3 -29 -4 -48.5t-1 -32.5q0 -16 0.5 -40.5t2.5 -59.5q-34 6 -69 9.5t-87.5 5.5t-132 2.5t-202.5 0.5v-396q174 2 288 6t156 9q-2 -32 -3 -55t-1 -44q0 -20 1 -41.5t3 -50.5q-32 4 -70.5 7t-91 4.5t-121.5 2
t-161 0.5v-439q95 0 168.5 0.5t133 2.5t108.5 7t96 14q-2 -36 -3 -60t-1 -44t1 -44t3 -46h-794q5 22 8 42t5 45t3.5 58t2 83t0.5 119.5v167.5v300v167t-0.5 120t-2 83t-3.5 58t-5 44.5t-8 42.5h781z" />
    <glyph glyph-name="Edieresis" unicode="&#xcb;" horiz-adv-x="992" 
d="M900 1330q-3 -29 -4 -48.5t-1 -32.5q0 -16 0.5 -40.5t2.5 -59.5q-34 6 -69 9.5t-87.5 5.5t-132 2.5t-202.5 0.5v-396q174 2 288 6t156 9q-2 -32 -3 -55t-1 -44q0 -20 1 -41.5t3 -50.5q-32 4 -70.5 7t-91 4.5t-121.5 2t-161 0.5v-439q95 0 168.5 0.5t133 2.5t108.5 7
t96 14q-2 -36 -3 -60t-1 -44t1 -44t3 -46h-794q5 22 8 42t5 45t3.5 58t2 83t0.5 119.5v167.5v300v167t-0.5 120t-2 83t-3.5 58t-5 44.5t-8 42.5h781zM224 1508q0 54 32.5 87t92.5 33t92.5 -33t32.5 -87t-32.5 -87t-92.5 -33t-92.5 33t-32.5 87zM590 1505q0 54 32.5 87
t92.5 33t92.5 -33t32.5 -87t-32.5 -87t-92.5 -33t-92.5 33t-32.5 87z" />
    <glyph glyph-name="Igrave" unicode="&#xcc;" horiz-adv-x="666" 
d="M288 1380q-21 18 -52 42t-68 52.5t-78.5 60t-82.5 64.5q16 -1 37.5 -1.5t43 -0.5h41.5h32h74.5t55.5 1q36 -55 72.5 -105t71.5 -99v-14h-147zM484 -1q-13 0 -33.5 0.5t-42 1t-42 0.5h-33.5h-34.5t-42.5 -0.5t-42 -1t-32 -0.5q5 24 8 44.5t5 45.5t3.5 58.5t2 83t0.5 118.5
v166v300v165.5t-0.5 119t-2 83t-3.5 58.5t-5 45.5t-8 44.5q12 0 32 -0.5t42 -1t42.5 -1t34.5 -0.5q12 0 32.5 0.5t42 1t42 1t34.5 0.5q-5 -24 -8 -44.5t-5 -45.5t-3.5 -58.5t-2 -83t-0.5 -119v-165.5v-300v-166t0.5 -118.5t2 -83t3.5 -58.5t5 -45.5t8 -44.5z" />
    <glyph glyph-name="Iacute" unicode="&#xcd;" horiz-adv-x="666" 
d="M219 1380v14q35 49 71.5 99t72.5 105q20 -1 55.5 -1h74.5h31.5h41.5t43.5 0.5t37.5 1.5q-41 -33 -82.5 -64.5t-78.5 -60t-68 -52.5t-52 -42h-147zM484 -1q-13 0 -33.5 0.5t-42 1t-42 0.5h-33.5h-34.5t-42.5 -0.5t-42 -1t-32 -0.5q5 24 8 44.5t5 45.5t3.5 58.5t2 83
t0.5 118.5v166v300v165.5t-0.5 119t-2 83t-3.5 58.5t-5 45.5t-8 44.5q12 0 32 -0.5t42 -1t42.5 -1t34.5 -0.5q12 0 32.5 0.5t42 1t42 1t34.5 0.5q-5 -24 -8 -44.5t-5 -45.5t-3.5 -58.5t-2 -83t-0.5 -119v-165.5v-300v-166t0.5 -118.5t2 -83t3.5 -58.5t5 -45.5t8 -44.5z" />
    <glyph glyph-name="Icircumflex" unicode="&#xce;" horiz-adv-x="666" 
d="M332 1472l-146 -86h-137l215 220h139l215 -220h-138zM484 -1q-13 0 -33.5 0.5t-42 1t-42 0.5h-33.5h-34.5t-42.5 -0.5t-42 -1t-32 -0.5q5 24 8 44.5t5 45.5t3.5 58.5t2 83t0.5 118.5v166v300v165.5t-0.5 119t-2 83t-3.5 58.5t-5 45.5t-8 44.5q12 0 32 -0.5t42 -1t42.5 -1
t34.5 -0.5q12 0 32.5 0.5t42 1t42 1t34.5 0.5q-5 -24 -8 -44.5t-5 -45.5t-3.5 -58.5t-2 -83t-0.5 -119v-165.5v-300v-166t0.5 -118.5t2 -83t3.5 -58.5t5 -45.5t8 -44.5z" />
    <glyph glyph-name="Idieresis" unicode="&#xcf;" horiz-adv-x="666" 
d="M484 -1q-13 0 -33.5 0.5t-42 1t-42 0.5h-33.5h-34.5t-42.5 -0.5t-42 -1t-32 -0.5q5 24 8 44.5t5 45.5t3.5 58.5t2 83t0.5 118.5v166v300v165.5t-0.5 119t-2 83t-3.5 58.5t-5 45.5t-8 44.5q12 0 32 -0.5t42 -1t42.5 -1t34.5 -0.5q12 0 32.5 0.5t42 1t42 1t34.5 0.5
q-5 -24 -8 -44.5t-5 -45.5t-3.5 -58.5t-2 -83t-0.5 -119v-165.5v-300v-166t0.5 -118.5t2 -83t3.5 -58.5t5 -45.5t8 -44.5zM26 1508q0 54 32.5 87t92.5 33t92.5 -33t32.5 -87t-32.5 -87t-92.5 -33t-92.5 33t-32.5 87zM392 1505q0 54 32.5 87t92.5 33t92.5 -33t32.5 -87
t-32.5 -87t-92.5 -33t-92.5 33t-32.5 87z" />
    <glyph glyph-name="Eth" unicode="&#xd0;" horiz-adv-x="1098" 
d="M169 602q-33 0 -69.5 -0.5t-79.5 -3.5q0 4 0.5 29t0.5 54t-0.5 54.5t-0.5 30.5q50 -3 88 -3.5t61 -0.5h285q32 0 68.5 0.5t79.5 3.5q0 -4 -0.5 -29t-0.5 -54t0.5 -54.5t0.5 -30.5q-50 3 -87.5 3.5t-60.5 0.5h-285zM812 672q0 159 -22.5 257t-60.5 151t-88.5 71t-106.5 18
q-29 0 -52 -1t-40 -2q-19 -1 -34 -2v-999q17 -1 31 -1.5l28 -1t29.5 -1t35.5 -0.5q57 0 107.5 25t89 84t61 157.5t22.5 244.5zM131 0q3 16 5 32t3.5 39t2 56t1 84t0.5 123.5v173.5v314v173.5t-0.5 123.5t-1 84t-2 56t-3.5 38.5t-5 32.5q62 3 125 6q54 2 116.5 4.5t116.5 2.5
q86 0 163 -10t143 -36t119.5 -72.5t91 -119.5t57.5 -176.5t20 -243.5q0 -141 -19.5 -247.5t-55.5 -184t-87 -129t-114 -82t-137 -43t-156 -12.5q-62 0 -129 2t-124 4q-66 3 -130 7z" />
    <glyph glyph-name="Ntilde" unicode="&#xd1;" horiz-adv-x="1189" 
d="M143 1110q0 52 -0.5 84t-2 55.5t-4 44t-7.5 49.5h173l486 -789v261v166.5t-1 119.5t-2.5 83.5t-4 58.5t-6.5 45t-9 43q13 0 33.5 -0.5t42 -1t41 -1t31.5 -0.5t31.5 0.5t41 1t42 1t33.5 0.5q-5 -23 -8 -43t-5 -45t-3.5 -58.5t-2 -83t-0.5 -119.5v-167v-826h-173l-472 753
v-227v-166.5t1 -119.5t2 -83.5t3.5 -58.5t6 -45t8.5 -43q-14 0 -34.5 0.5t-42 1t-41.5 0.5h-32h-30.5t-41 -0.5t-42 -1t-33.5 -0.5q5 23 9 43t6.5 45t4 58.5t2 83t0.5 119.5v167v595zM277 1422q4 43 17.5 80t37 64t57.5 42.5t79 15.5q32 0 59 -10.5t52 -23.5t49.5 -23.5
t51.5 -10.5q26 0 42 16.5t24 56.5l143 -24q-5 -47 -19 -87t-39 -68.5t-62.5 -44.5t-89.5 -16q-41 0 -68.5 11.5t-48.5 26t-39.5 26t-40.5 11.5q-26 0 -43 -19t-25 -52z" />
    <glyph glyph-name="Ograve" unicode="&#xd2;" horiz-adv-x="1188" 
d="M554 1380q-21 18 -52 42t-68 52.5t-78.5 60t-82.5 64.5q16 -1 37.5 -1.5t43 -0.5h41.5h32h74.5t55.5 1q36 -55 72.5 -105t71.5 -99v-14h-147zM594 1170q-59 0 -103.5 -23t-74.5 -80t-45 -153.5t-15 -243.5q0 -143 15 -240.5t45 -157.5t74.5 -86t103.5 -26t103.5 26
t74.5 86t45 157.5t15 240.5q0 147 -15 243.5t-45 153.5t-74.5 80t-103.5 23zM594 -14q-260 0 -384 172t-124 521q0 334 124 499.5t384 165.5q259 0 383.5 -165.5t124.5 -499.5q0 -349 -124.5 -521t-383.5 -172z" />
    <glyph glyph-name="Oacute" unicode="&#xd3;" horiz-adv-x="1188" 
d="M489 1380v14q35 49 71.5 99t72.5 105q20 -1 55.5 -1h74.5h31.5h41.5t43.5 0.5t37.5 1.5q-41 -33 -82.5 -64.5t-78.5 -60t-68 -52.5t-52 -42h-147zM594 1170q-59 0 -103.5 -23t-74.5 -80t-45 -153.5t-15 -243.5q0 -143 15 -240.5t45 -157.5t74.5 -86t103.5 -26t103.5 26
t74.5 86t45 157.5t15 240.5q0 147 -15 243.5t-45 153.5t-74.5 80t-103.5 23zM594 -14q-260 0 -384 172t-124 521q0 334 124 499.5t384 165.5q259 0 383.5 -165.5t124.5 -499.5q0 -349 -124.5 -521t-383.5 -172z" />
    <glyph glyph-name="Ocircumflex" unicode="&#xd4;" horiz-adv-x="1188" 
d="M608 1472l-146 -86h-137l215 220h139l215 -220h-138zM594 1170q-59 0 -103.5 -23t-74.5 -80t-45 -153.5t-15 -243.5q0 -143 15 -240.5t45 -157.5t74.5 -86t103.5 -26t103.5 26t74.5 86t45 157.5t15 240.5q0 147 -15 243.5t-45 153.5t-74.5 80t-103.5 23zM594 -14
q-260 0 -384 172t-124 521q0 334 124 499.5t384 165.5q259 0 383.5 -165.5t124.5 -499.5q0 -349 -124.5 -521t-383.5 -172z" />
    <glyph glyph-name="Otilde" unicode="&#xd5;" horiz-adv-x="1188" 
d="M594 1170q-59 0 -103.5 -23t-74.5 -80t-45 -153.5t-15 -243.5q0 -143 15 -240.5t45 -157.5t74.5 -86t103.5 -26t103.5 26t74.5 86t45 157.5t15 240.5q0 147 -15 243.5t-45 153.5t-74.5 80t-103.5 23zM594 -14q-260 0 -384 172t-124 521q0 334 124 499.5t384 165.5
q259 0 383.5 -165.5t124.5 -499.5q0 -349 -124.5 -521t-383.5 -172zM269 1422q4 43 17.5 80t37 64t57.5 42.5t79 15.5q32 0 59 -10.5t52 -23.5t49.5 -23.5t51.5 -10.5q26 0 42 16.5t24 56.5l143 -24q-5 -47 -19 -87t-39 -68.5t-62.5 -44.5t-89.5 -16q-41 0 -68.5 11.5
t-48.5 26t-39.5 26t-40.5 11.5q-26 0 -43 -19t-25 -52z" />
    <glyph glyph-name="Odieresis" unicode="&#xd6;" horiz-adv-x="1188" 
d="M594 1170q-59 0 -103.5 -23t-74.5 -80t-45 -153.5t-15 -243.5q0 -143 15 -240.5t45 -157.5t74.5 -86t103.5 -26t103.5 26t74.5 86t45 157.5t15 240.5q0 147 -15 243.5t-45 153.5t-74.5 80t-103.5 23zM594 -14q-260 0 -384 172t-124 521q0 334 124 499.5t384 165.5
q259 0 383.5 -165.5t124.5 -499.5q0 -349 -124.5 -521t-383.5 -172zM286 1508q0 54 32.5 87t92.5 33t92.5 -33t32.5 -87t-32.5 -87t-92.5 -33t-92.5 33t-32.5 87zM652 1505q0 54 32.5 87t92.5 33t92.5 -33t32.5 -87t-32.5 -87t-92.5 -33t-92.5 33t-32.5 87z" />
    <glyph glyph-name="multiply" unicode="&#xd7;" horiz-adv-x="1086" 
d="M287 705q-11 11 -26.5 25.5t-33 30t-35.5 31t-34 28.5q4 3 15 13t25 23t30 28t30 28.5t24 24t14 14.5q53 -58 83 -89.5t42 -41.5l111 -107l112 107l27.5 27.5t34 35.5t34.5 37.5t31 33.5q7 -8 26.5 -28.5t41.5 -42.5l41 -41t25 -23q-51 -42 -82 -70.5t-46 -43.5
l-119 -114l119 -114q11 -11 27 -25t33 -29.5t35 -31t34 -28.5q-6 -5 -26.5 -24t-43.5 -40.5t-42.5 -41l-25.5 -25.5q-51 54 -81 85.5t-43 44.5l-112 108l-111 -107l-27.5 -27.5t-34 -35.5t-35 -37.5t-31.5 -33.5q-6 8 -26 28.5t-42 42.5t-41 40.5t-24 23.5q45 38 77 67
t49 46l120 114z" />
    <glyph glyph-name="Oslash" unicode="&#xd8;" horiz-adv-x="1188" 
d="M416 24q-11 -28 -21.5 -58.5t-19 -57.5t-14.5 -48t-7 -30q-20 1 -36 1.5t-32.5 0.5t-35 -0.5t-41.5 -1.5l561 1514q21 57 37.5 98.5t18.5 59.5q19 -1 36.5 -1.5t35 -0.5t36.5 0.5t43 1.5zM594 1170q-59 0 -103.5 -23t-74.5 -80t-45 -153.5t-15 -243.5q0 -143 15 -240.5
t45 -157.5t74.5 -86t103.5 -26t103.5 26t74.5 86t45 157.5t15 240.5q0 147 -15 243.5t-45 153.5t-74.5 80t-103.5 23zM594 -14q-260 0 -384 172t-124 521q0 334 124 499.5t384 165.5q259 0 383.5 -165.5t124.5 -499.5q0 -349 -124.5 -521t-383.5 -172z" />
    <glyph glyph-name="Ugrave" unicode="&#xd9;" horiz-adv-x="1188" 
d="M540 1380q-21 18 -52 42t-68 52.5t-78.5 60t-82.5 64.5q16 -1 37.5 -1.5t43 -0.5h41.5h32h74.5t55.5 1q36 -55 72.5 -105t71.5 -99v-14h-147zM594 -13q-114 0 -201 29.5t-145 84t-87.5 133.5t-29.5 178v403v166.5t-1 119.5t-2 83.5t-3.5 58.5t-6 45t-8.5 43
q13 0 33.5 -0.5t43 -1t43.5 -1t34 -0.5t34.5 0.5t44 1t43 1t33.5 0.5q-5 -23 -8.5 -43t-5.5 -45t-3.5 -58.5t-2 -83t-0.5 -119.5v-167v-429q0 -110 47.5 -167.5t147.5 -57.5t147.5 57.5t47.5 167.5v429v167t-0.5 119.5t-2 83t-3.5 58.5t-5.5 45t-8.5 43q13 0 33.5 -0.5
t43 -1t43.5 -1t35 -0.5q13 0 34 0.5t43.5 1t43 1t33.5 0.5q-5 -23 -8.5 -43t-6 -45t-3.5 -58.5t-2 -83.5t-1 -119.5v-166.5v-403q0 -99 -29.5 -178t-87.5 -133.5t-145 -84t-201 -29.5z" />
    <glyph glyph-name="Uacute" unicode="&#xda;" horiz-adv-x="1188" 
d="M473 1380v14q35 49 71.5 99t72.5 105q20 -1 55.5 -1h74.5h31.5h41.5t43.5 0.5t37.5 1.5q-41 -33 -82.5 -64.5t-78.5 -60t-68 -52.5t-52 -42h-147zM594 -13q-114 0 -201 29.5t-145 84t-87.5 133.5t-29.5 178v403v166.5t-1 119.5t-2 83.5t-3.5 58.5t-6 45t-8.5 43
q13 0 33.5 -0.5t43 -1t43.5 -1t34 -0.5t34.5 0.5t44 1t43 1t33.5 0.5q-5 -23 -8.5 -43t-5.5 -45t-3.5 -58.5t-2 -83t-0.5 -119.5v-167v-429q0 -110 47.5 -167.5t147.5 -57.5t147.5 57.5t47.5 167.5v429v167t-0.5 119.5t-2 83t-3.5 58.5t-5.5 45t-8.5 43q13 0 33.5 -0.5
t43 -1t43.5 -1t35 -0.5q13 0 34 0.5t43.5 1t43 1t33.5 0.5q-5 -23 -8.5 -43t-6 -45t-3.5 -58.5t-2 -83.5t-1 -119.5v-166.5v-403q0 -99 -29.5 -178t-87.5 -133.5t-145 -84t-201 -29.5z" />
    <glyph glyph-name="Ucircumflex" unicode="&#xdb;" horiz-adv-x="1188" 
d="M586 1472l-146 -86h-137l215 220h139l215 -220h-138zM594 -13q-114 0 -201 29.5t-145 84t-87.5 133.5t-29.5 178v403v166.5t-1 119.5t-2 83.5t-3.5 58.5t-6 45t-8.5 43q13 0 33.5 -0.5t43 -1t43.5 -1t34 -0.5t34.5 0.5t44 1t43 1t33.5 0.5q-5 -23 -8.5 -43t-5.5 -45
t-3.5 -58.5t-2 -83t-0.5 -119.5v-167v-429q0 -110 47.5 -167.5t147.5 -57.5t147.5 57.5t47.5 167.5v429v167t-0.5 119.5t-2 83t-3.5 58.5t-5.5 45t-8.5 43q13 0 33.5 -0.5t43 -1t43.5 -1t35 -0.5q13 0 34 0.5t43.5 1t43 1t33.5 0.5q-5 -23 -8.5 -43t-6 -45t-3.5 -58.5
t-2 -83.5t-1 -119.5v-166.5v-403q0 -99 -29.5 -178t-87.5 -133.5t-145 -84t-201 -29.5z" />
    <glyph glyph-name="Udieresis" unicode="&#xdc;" horiz-adv-x="1188" 
d="M594 -13q-114 0 -201 29.5t-145 84t-87.5 133.5t-29.5 178v403v166.5t-1 119.5t-2 83.5t-3.5 58.5t-6 45t-8.5 43q13 0 33.5 -0.5t43 -1t43.5 -1t34 -0.5t34.5 0.5t44 1t43 1t33.5 0.5q-5 -23 -8.5 -43t-5.5 -45t-3.5 -58.5t-2 -83t-0.5 -119.5v-167v-429
q0 -110 47.5 -167.5t147.5 -57.5t147.5 57.5t47.5 167.5v429v167t-0.5 119.5t-2 83t-3.5 58.5t-5.5 45t-8.5 43q13 0 33.5 -0.5t43 -1t43.5 -1t35 -0.5q13 0 34 0.5t43.5 1t43 1t33.5 0.5q-5 -23 -8.5 -43t-6 -45t-3.5 -58.5t-2 -83.5t-1 -119.5v-166.5v-403
q0 -99 -29.5 -178t-87.5 -133.5t-145 -84t-201 -29.5zM286 1508q0 54 32.5 87t92.5 33t92.5 -33t32.5 -87t-32.5 -87t-92.5 -33t-92.5 33t-32.5 87zM652 1505q0 54 32.5 87t92.5 33t92.5 -33t32.5 -87t-32.5 -87t-92.5 -33t-92.5 33t-32.5 87z" />
    <glyph glyph-name="Yacute" unicode="&#xdd;" horiz-adv-x="1090" 
d="M390 1380v14q35 49 71.5 99t72.5 105q20 -1 55.5 -1h74.5h31.5h41.5t43.5 0.5t37.5 1.5q-41 -33 -82.5 -64.5t-78.5 -60t-68 -52.5t-52 -42h-147zM545 809q73 137 131 263t111 258q38 -1 71 -1.5t65 -0.5q11 0 32 0.5t44.5 1t45.5 1.5t35 1q-109 -192 -209.5 -382.5
t-194.5 -379.5v-188.5t0.5 -134t2 -92.5t4 -63.5t6 -47.5t9.5 -45q-13 0 -33.5 0.5t-43 1t-43 0.5h-33.5h-34t-42 -0.5t-42 -1t-33 -0.5q5 23 8 43.5t5 47t3.5 63t2 92.5t0.5 135v190q-96 193 -195 382t-208 380q13 0 35 -1t45.5 -1.5t44.5 -1t32 -0.5q32 0 65 0.5t71 1.5
q54 -125 111.5 -254t130.5 -267z" />
    <glyph glyph-name="Thorn" unicode="&#xde;" horiz-adv-x="1088" 
d="M734 678q0 64 -16 111.5t-43.5 78t-65.5 45.5t-82 15q-26 0 -48.5 -1t-39.5 -2q-20 -2 -37 -3v-496h94q49 0 92.5 12t76 41t51 77.5t18.5 121.5zM402 1098q31 1 56.5 1.5t55.5 0.5q130 0 223 -30.5t153 -85.5t88 -130t28 -165q0 -218 -133 -326t-386 -108h-85
q0 -12 0.5 -40.5t2 -65t5.5 -76.5t12 -74q-13 0 -33.5 0.5t-43 1t-43.5 0.5h-34h-33t-41.5 -0.5t-42 -1t-33.5 -0.5q5 22 8 42t5 45t3.5 58.5t2 83.5t0.5 119.5v167.5v300v167t-0.5 120t-2 83.5t-3.5 58.5t-5 44.5t-8 42.5q13 0 33.5 -0.5t42 -1t41.5 -0.5h33h34t43.5 0.5
t43 1t33.5 0.5q-8 -35 -12 -71t-5.5 -68t-2 -57t-0.5 -37z" />
    <glyph glyph-name="germandbls" unicode="&#xdf;" horiz-adv-x="1067" 
d="M440 30q7 15 15 38t15.5 48t13.5 49.5t8 43.5h25q17 -21 42 -36t76 -15q20 0 38 7.5t32 22t22.5 35t8.5 47.5q0 50 -20.5 82.5t-51.5 57t-67.5 46t-67.5 49t-51.5 65.5t-20.5 97q0 47 14.5 82t36 63t47 52t47 50.5t36 58.5t14.5 75q0 34 -11 59t-30 41.5t-43 24.5t-51 8
q-32 0 -60.5 -10t-49.5 -31t-33.5 -53t-12.5 -77v-692q0 -57 0.5 -99.5t2 -78.5t5.5 -69t10 -72q-12 0 -31 0.5t-38.5 1t-37.5 0.5h-28h-29t-38 -0.5t-38.5 -1t-30.5 -0.5q7 35 10.5 63.5t5 62.5t2 79.5t0.5 113.5v668q0 96 31 165.5t84 114.5t123.5 66.5t149.5 21.5
q87 0 156 -25t117.5 -66.5t74 -94.5t25.5 -110q0 -50 -14.5 -88.5t-36.5 -69.5t-47 -56.5t-47 -50.5t-36.5 -51t-14.5 -58q0 -41 21.5 -67t53.5 -47t70 -42t70 -51t53.5 -73.5t21.5 -110.5q0 -69 -26.5 -125t-72.5 -96.5t-108 -62.5t-132 -22q-62 0 -109.5 10t-92.5 33z" />
    <glyph glyph-name="agrave" unicode="&#xe0;" horiz-adv-x="951" 
d="M420 803q-43 0 -76.5 -8.5t-60 -22t-46.5 -30.5t-35 -34h-25q-5 22 -9.5 36.5t-13 30t-21.5 36.5t-35 57q29 19 65 36.5t77.5 30.5t87.5 20.5t95 7.5q193 0 281.5 -79t88.5 -239v-443q0 -17 3.5 -29t13.5 -19.5t28 -10.5t47 -3q-7 -35 -12.5 -65t-5.5 -49q-18 -9 -37 -15
q-17 -6 -39 -10.5t-48 -4.5q-28 0 -55 6t-49.5 19.5t-38.5 35.5t-22 54q-29 -61 -86 -92t-148 -31q-67 0 -118 20.5t-85.5 58.5t-52.5 91.5t-18 119.5q0 67 25 120.5t75.5 91t125.5 58t174 20.5h85v110q0 57 -33 91t-102 34zM416 149q29 0 54.5 10.5t44 30t29.5 47.5t11 62
v119h-95q-68 0 -109 -35t-41 -110q0 -63 30 -93.5t76 -30.5zM493 1102q-21 18 -51.5 45.5t-67 61.5t-76 73t-76.5 79q16 -1 36 -1.5t40 -0.5h38h30h69.5t50.5 1q29 -55 61 -111.5t73 -132.5v-14h-127z" />
    <glyph glyph-name="aacute" unicode="&#xe1;" horiz-adv-x="951" 
d="M420 803q-43 0 -76.5 -8.5t-60 -22t-46.5 -30.5t-35 -34h-25q-5 22 -9.5 36.5t-13 30t-21.5 36.5t-35 57q29 19 65 36.5t77.5 30.5t87.5 20.5t95 7.5q193 0 281.5 -79t88.5 -239v-443q0 -17 3.5 -29t13.5 -19.5t28 -10.5t47 -3q-7 -35 -12.5 -65t-5.5 -49q-18 -9 -37 -15
q-17 -6 -39 -10.5t-48 -4.5q-28 0 -55 6t-49.5 19.5t-38.5 35.5t-22 54q-29 -61 -86 -92t-148 -31q-67 0 -118 20.5t-85.5 58.5t-52.5 91.5t-18 119.5q0 67 25 120.5t75.5 91t125.5 58t174 20.5h85v110q0 57 -33 91t-102 34zM416 149q29 0 54.5 10.5t44 30t29.5 47.5t11 62
v119h-95q-68 0 -109 -35t-41 -110q0 -63 30 -93.5t76 -30.5zM362 1102v14q41 76 73 132.5t61 111.5q20 -1 50.5 -1h69.5h30h38t40 0.5t36 1.5q-38 -40 -77 -79t-75.5 -73t-67 -61.5t-51.5 -45.5h-127z" />
    <glyph glyph-name="acircumflex" unicode="&#xe2;" horiz-adv-x="951" 
d="M420 803q-43 0 -76.5 -8.5t-60 -22t-46.5 -30.5t-35 -34h-25q-5 22 -9.5 36.5t-13 30t-21.5 36.5t-35 57q29 19 65 36.5t77.5 30.5t87.5 20.5t95 7.5q193 0 281.5 -79t88.5 -239v-443q0 -17 3.5 -29t13.5 -19.5t28 -10.5t47 -3q-7 -35 -12.5 -65t-5.5 -49q-18 -9 -37 -15
q-17 -6 -39 -10.5t-48 -4.5q-28 0 -55 6t-49.5 19.5t-38.5 35.5t-22 54q-29 -61 -86 -92t-148 -31q-67 0 -118 20.5t-85.5 58.5t-52.5 91.5t-18 119.5q0 67 25 120.5t75.5 91t125.5 58t174 20.5h85v110q0 57 -33 91t-102 34zM416 149q29 0 54.5 10.5t44 30t29.5 47.5t11 62
v119h-95q-68 0 -109 -35t-41 -110q0 -63 30 -93.5t76 -30.5zM445 1202l-152 -100h-180l245 256h177l246 -256h-182z" />
    <glyph glyph-name="atilde" unicode="&#xe3;" horiz-adv-x="951" 
d="M420 803q-43 0 -76.5 -8.5t-60 -22t-46.5 -30.5t-35 -34h-25q-5 22 -9.5 36.5t-13 30t-21.5 36.5t-35 57q29 19 65 36.5t77.5 30.5t87.5 20.5t95 7.5q193 0 281.5 -79t88.5 -239v-443q0 -17 3.5 -29t13.5 -19.5t28 -10.5t47 -3q-7 -35 -12.5 -65t-5.5 -49q-18 -9 -37 -15
q-17 -6 -39 -10.5t-48 -4.5q-28 0 -55 6t-49.5 19.5t-38.5 35.5t-22 54q-29 -61 -86 -92t-148 -31q-67 0 -118 20.5t-85.5 58.5t-52.5 91.5t-18 119.5q0 67 25 120.5t75.5 91t125.5 58t174 20.5h85v110q0 57 -33 91t-102 34zM416 149q29 0 54.5 10.5t44 30t29.5 47.5t11 62
v119h-95q-68 0 -109 -35t-41 -110q0 -63 30 -93.5t76 -30.5zM156 1158q4 43 17.5 80t37 64t57.5 42.5t79 15.5q32 0 59 -10.5t52 -23.5t49.5 -23.5t51.5 -10.5q26 0 42 16.5t24 56.5l143 -24q-5 -47 -19 -87t-39 -68.5t-62.5 -44.5t-89.5 -16q-41 0 -68.5 11.5t-48.5 26
t-39.5 26t-40.5 11.5q-26 0 -43 -19t-25 -52z" />
    <glyph glyph-name="adieresis" unicode="&#xe4;" horiz-adv-x="951" 
d="M420 803q-43 0 -76.5 -8.5t-60 -22t-46.5 -30.5t-35 -34h-25q-5 22 -9.5 36.5t-13 30t-21.5 36.5t-35 57q29 19 65 36.5t77.5 30.5t87.5 20.5t95 7.5q193 0 281.5 -79t88.5 -239v-443q0 -17 3.5 -29t13.5 -19.5t28 -10.5t47 -3q-7 -35 -12.5 -65t-5.5 -49q-18 -9 -37 -15
q-17 -6 -39 -10.5t-48 -4.5q-28 0 -55 6t-49.5 19.5t-38.5 35.5t-22 54q-29 -61 -86 -92t-148 -31q-67 0 -118 20.5t-85.5 58.5t-52.5 91.5t-18 119.5q0 67 25 120.5t75.5 91t125.5 58t174 20.5h85v110q0 57 -33 91t-102 34zM416 149q29 0 54.5 10.5t44 30t29.5 47.5t11 62
v119h-95q-68 0 -109 -35t-41 -110q0 -63 30 -93.5t76 -30.5zM159 1230q0 54 32.5 87t92.5 33t92.5 -33t32.5 -87t-32.5 -87t-92.5 -33t-92.5 33t-32.5 87zM525 1227q0 54 32.5 87t92.5 33t92.5 -33t32.5 -87t-32.5 -87t-92.5 -33t-92.5 33t-32.5 87z" />
    <glyph glyph-name="aring" unicode="&#xe5;" horiz-adv-x="951" 
d="M420 803q-43 0 -76.5 -8.5t-60 -22t-46.5 -30.5t-35 -34h-25q-5 22 -9.5 36.5t-13 30t-21.5 36.5t-35 57q29 19 65 36.5t77.5 30.5t87.5 20.5t95 7.5q193 0 281.5 -79t88.5 -239v-443q0 -17 3.5 -29t13.5 -19.5t28 -10.5t47 -3q-7 -35 -12.5 -65t-5.5 -49q-18 -9 -37 -15
q-17 -6 -39 -10.5t-48 -4.5q-28 0 -55 6t-49.5 19.5t-38.5 35.5t-22 54q-29 -61 -86 -92t-148 -31q-67 0 -118 20.5t-85.5 58.5t-52.5 91.5t-18 119.5q0 67 25 120.5t75.5 91t125.5 58t174 20.5h85v110q0 57 -33 91t-102 34zM416 149q29 0 54.5 10.5t44 30t29.5 47.5t11 62
v119h-95q-68 0 -109 -35t-41 -110q0 -63 30 -93.5t76 -30.5zM459 1176q22 0 39 16t17 48t-17 46.5t-39 14.5t-39 -14.5t-17 -46.5t17 -48t39 -16zM459 1053q-95 0 -150.5 48.5t-55.5 136.5t55.5 136.5t150.5 48.5t150.5 -48.5t55.5 -136.5t-55.5 -136.5t-150.5 -48.5z" />
    <glyph glyph-name="ae" unicode="&#xe6;" horiz-adv-x="1402" 
d="M783 347q0 -74 -25 -139.5t-74 -114t-121.5 -77t-168.5 -28.5q-77 0 -137 20.5t-101.5 58.5t-63.5 91.5t-22 119.5q0 67 25 120.5t75.5 91t125.5 58t174 20.5h85v110q0 57 -33 91t-102 34q-43 0 -76.5 -8.5t-60 -22t-46.5 -30.5t-35 -34h-25q-5 22 -9.5 36.5t-13 30
t-21.5 36.5t-35 57q29 19 65 36.5t77.5 30.5t87.5 20.5t95 7.5q86 0 153 -23.5t113 -65.5t70 -100.5t24 -128.5v-298zM416 149q29 0 54.5 10.5t44 30t29.5 47.5t11 62v119h-95q-68 0 -109 -35t-41 -110q0 -63 30 -93.5t76 -30.5zM985 156q43 0 78.5 4.5t65.5 12t56.5 17
t50.5 20.5l19 -8l-22 -176q-20 -6 -50 -12.5t-63.5 -12.5t-66.5 -10t-58 -4q-93 0 -173 25.5t-138.5 83t-92 150.5t-33.5 228q0 118 28.5 209.5t80 153.5t122.5 94t156 32q92 0 158.5 -29.5t109 -83.5t63 -131t20.5 -172v-135h-511q2 -72 16.5 -121t40 -79t62 -43t81.5 -13z
M941 803q-35 0 -61.5 -10t-45.5 -37t-30.5 -74t-15.5 -120h273v13q0 120 -28 174t-92 54z" />
    <glyph glyph-name="ccedilla" unicode="&#xe7;" horiz-adv-x="799" 
d="M509 788q-39 0 -72.5 -16t-58.5 -54.5t-39 -102t-14 -158.5q0 -83 15 -139t41 -91t62.5 -50t78.5 -15q52 0 105 14.5t99 32.5l18 -7l-22 -174q-21 -7 -46 -14.5t-52 -13.5t-54.5 -9.5t-52.5 -3.5q-109 0 -190.5 29.5t-135.5 91t-81 157t-27 228.5q0 119 31.5 207
t88.5 146.5t136 87.5t173 29q33 0 69 -5t70 -13.5t64.5 -19.5t53.5 -22q-31 -61 -49 -105t-22 -77h-29q-7 7 -19.5 18.5t-31.5 22t-46 18.5t-63 8zM291 -348q71 25 113 57t42 78q0 34 -27.5 52.5t-75.5 25.5l87 209h126l-29 -134q57 -15 89.5 -47.5t32.5 -95.5
q0 -45 -23 -80.5t-63 -60.5t-94.5 -38t-116.5 -13q-6 0 -14.5 0.5t-14.5 0.5z" />
    <glyph glyph-name="egrave" unicode="&#xe8;" horiz-adv-x="916" 
d="M521 156q43 0 78.5 4.5t65.5 12t56.5 17t50.5 20.5l19 -8l-22 -176q-20 -6 -50 -12.5t-63.5 -12.5t-66.5 -10t-58 -4q-98 0 -180 21.5t-141.5 76.5t-92.5 149t-33 240q0 129 26.5 221.5t77 152t124.5 87.5t169 28q92 0 158.5 -29.5t109 -83.5t63 -131t20.5 -172v-135
h-511q2 -72 16.5 -121t40 -79t62 -43t81.5 -13zM477 803q-35 0 -61.5 -10t-45.5 -37t-30.5 -74t-15.5 -120h273v13q0 120 -28 174t-92 54zM462 1102q-21 18 -51.5 45.5t-67 61.5t-76 73t-76.5 79q16 -1 36 -1.5t40 -0.5h38h30h69.5t50.5 1q29 -55 61 -111.5t73 -132.5v-14
h-127z" />
    <glyph glyph-name="eacute" unicode="&#xe9;" horiz-adv-x="916" 
d="M521 156q43 0 78.5 4.5t65.5 12t56.5 17t50.5 20.5l19 -8l-22 -176q-20 -6 -50 -12.5t-63.5 -12.5t-66.5 -10t-58 -4q-98 0 -180 21.5t-141.5 76.5t-92.5 149t-33 240q0 129 26.5 221.5t77 152t124.5 87.5t169 28q92 0 158.5 -29.5t109 -83.5t63 -131t20.5 -172v-135
h-511q2 -72 16.5 -121t40 -79t62 -43t81.5 -13zM477 803q-35 0 -61.5 -10t-45.5 -37t-30.5 -74t-15.5 -120h273v13q0 120 -28 174t-92 54zM381 1102v14q41 76 73 132.5t61 111.5q20 -1 50.5 -1h69.5h30h38t40 0.5t36 1.5q-38 -40 -77 -79t-75.5 -73t-67 -61.5t-51.5 -45.5
h-127z" />
    <glyph glyph-name="ecircumflex" unicode="&#xea;" horiz-adv-x="916" 
d="M521 156q43 0 78.5 4.5t65.5 12t56.5 17t50.5 20.5l19 -8l-22 -176q-20 -6 -50 -12.5t-63.5 -12.5t-66.5 -10t-58 -4q-98 0 -180 21.5t-141.5 76.5t-92.5 149t-33 240q0 129 26.5 221.5t77 152t124.5 87.5t169 28q92 0 158.5 -29.5t109 -83.5t63 -131t20.5 -172v-135
h-511q2 -72 16.5 -121t40 -79t62 -43t81.5 -13zM477 803q-35 0 -61.5 -10t-45.5 -37t-30.5 -74t-15.5 -120h273v13q0 120 -28 174t-92 54zM478 1202l-152 -100h-180l245 256h177l246 -256h-182z" />
    <glyph glyph-name="edieresis" unicode="&#xeb;" horiz-adv-x="916" 
d="M521 156q43 0 78.5 4.5t65.5 12t56.5 17t50.5 20.5l19 -8l-22 -176q-20 -6 -50 -12.5t-63.5 -12.5t-66.5 -10t-58 -4q-98 0 -180 21.5t-141.5 76.5t-92.5 149t-33 240q0 129 26.5 221.5t77 152t124.5 87.5t169 28q92 0 158.5 -29.5t109 -83.5t63 -131t20.5 -172v-135
h-511q2 -72 16.5 -121t40 -79t62 -43t81.5 -13zM477 803q-35 0 -61.5 -10t-45.5 -37t-30.5 -74t-15.5 -120h273v13q0 120 -28 174t-92 54zM168 1230q0 54 32.5 87t92.5 33t92.5 -33t32.5 -87t-32.5 -87t-92.5 -33t-92.5 33t-32.5 87zM534 1227q0 54 32.5 87t92.5 33
t92.5 -33t32.5 -87t-32.5 -87t-92.5 -33t-92.5 33t-32.5 87z" />
    <glyph glyph-name="igrave" unicode="&#xec;" horiz-adv-x="485" 
d="M360 318q0 -72 0.5 -117.5t2 -78.5t5 -60.5t9.5 -62.5q-12 0 -30.5 0.5t-37.5 1t-37 0.5h-28h-29.5t-38 -0.5t-38 -1t-30.5 -0.5q6 35 9.5 63.5t5 62.5t2 79.5t0.5 113.5v314q0 68 -0.5 113t-2 79t-5 62.5t-9.5 63.5q12 0 30.5 -0.5t38 -1t38 -0.5h29.5h28t37 0.5t37.5 1
t30.5 0.5q-6 -35 -9.5 -62.5t-5 -60.5t-2 -78.5t-0.5 -116.5v-314zM207 1102q-21 18 -51.5 45.5t-67 61.5t-76 73t-76.5 79q16 -1 36 -1.5t40 -0.5h38h30h69.5t50.5 1q29 -55 61 -111.5t73 -132.5v-14h-127z" />
    <glyph glyph-name="iacute" unicode="&#xed;" horiz-adv-x="485" 
d="M360 318q0 -72 0.5 -117.5t2 -78.5t5 -60.5t9.5 -62.5q-12 0 -30.5 0.5t-37.5 1t-37 0.5h-28h-29.5t-38 -0.5t-38 -1t-30.5 -0.5q6 35 9.5 63.5t5 62.5t2 79.5t0.5 113.5v314q0 68 -0.5 113t-2 79t-5 62.5t-9.5 63.5q12 0 30.5 -0.5t38 -1t38 -0.5h29.5h28t37 0.5t37.5 1
t30.5 0.5q-6 -35 -9.5 -62.5t-5 -60.5t-2 -78.5t-0.5 -116.5v-314zM132 1102v14q41 76 73 132.5t61 111.5q20 -1 50.5 -1h69.5h30h38t40 0.5t36 1.5q-38 -40 -77 -79t-75.5 -73t-67 -61.5t-51.5 -45.5h-127z" />
    <glyph glyph-name="icircumflex" unicode="&#xee;" horiz-adv-x="485" 
d="M360 318q0 -72 0.5 -117.5t2 -78.5t5 -60.5t9.5 -62.5q-12 0 -30.5 0.5t-37.5 1t-37 0.5h-28h-29.5t-38 -0.5t-38 -1t-30.5 -0.5q6 35 9.5 63.5t5 62.5t2 79.5t0.5 113.5v314q0 68 -0.5 113t-2 79t-5 62.5t-9.5 63.5q12 0 30.5 -0.5t38 -1t38 -0.5h29.5h28t37 0.5t37.5 1
t30.5 0.5q-6 -35 -9.5 -62.5t-5 -60.5t-2 -78.5t-0.5 -116.5v-314zM233 1202l-152 -100h-180l245 256h177l246 -256h-182z" />
    <glyph glyph-name="idieresis" unicode="&#xef;" horiz-adv-x="485" 
d="M360 318q0 -72 0.5 -117.5t2 -78.5t5 -60.5t9.5 -62.5q-12 0 -30.5 0.5t-37.5 1t-37 0.5h-28h-29.5t-38 -0.5t-38 -1t-30.5 -0.5q6 35 9.5 63.5t5 62.5t2 79.5t0.5 113.5v314q0 68 -0.5 113t-2 79t-5 62.5t-9.5 63.5q12 0 30.5 -0.5t38 -1t38 -0.5h29.5h28t37 0.5t37.5 1
t30.5 0.5q-6 -35 -9.5 -62.5t-5 -60.5t-2 -78.5t-0.5 -116.5v-314zM-69 1230q0 54 32.5 87t92.5 33t92.5 -33t32.5 -87t-32.5 -87t-92.5 -33t-92.5 33t-32.5 87zM297 1227q0 54 32.5 87t92.5 33t92.5 -33t32.5 -87t-32.5 -87t-92.5 -33t-92.5 33t-32.5 87z" />
    <glyph glyph-name="eth" unicode="&#xf0;" horiz-adv-x="988" 
d="M551 1208l-117 -186q-20 1 -44 1.5t-41 0.5q-9 0 -23 -0.5t-29 -1l-30 -1t-25 -0.5l170 235l98 169q7 -1 19 -1.5t25.5 -0.5h27h24.5h26.5h33.5t32.5 0.5t24.5 0.5zM478 691q-33 0 -61.5 -15t-50 -46.5t-33.5 -80.5t-12 -116q0 -75 13.5 -127.5t35.5 -85.5t51 -48t59 -15
q33 0 62 14.5t50.5 47.5t34 88t12.5 136q0 119 -41 183.5t-120 64.5zM468 861q51 0 94 -12t76 -30q-6 97 -26.5 165t-53.5 110.5t-78 61.5t-100 19q-39 0 -69.5 -2.5t-56.5 -7.5t-49 -14t-48 -22l-11 13l31 169q41 14 99 23.5t127 9.5q118 0 207 -37.5t149 -115.5t90 -198
t30 -286v-124q0 -296 -101.5 -446t-292.5 -150q-98 0 -173 31.5t-127 89t-78.5 139t-26.5 182.5q0 108 30.5 189t83.5 135t123.5 81t150.5 27z" />
    <glyph glyph-name="ntilde" unicode="&#xf1;" horiz-adv-x="1000" 
d="M358 318v-117.5t1.5 -78.5t5 -60.5t9.5 -62.5q-12 0 -30.5 0.5t-37.5 1t-37 0.5h-28h-29t-37.5 -0.5t-38 -1t-30.5 -0.5q7 35 10.5 63.5t5 62.5t2 79.5t0.5 113.5v389q0 48 -1 83.5t-3.5 63t-6.5 50.5t-9 47q12 0 30 -0.5t37.5 -1t37.5 -1t29 -0.5t28 0.5t36 1t36.5 1
t29.5 0.5l-5 -113q-2 -32 -2.5 -54.5t-1.5 -46.5t-1 -54.5v-78.5v-286zM644 615q0 52 -6 88t-19.5 58.5t-34.5 32t-51 9.5q-33 0 -64.5 -16t-56 -46t-39.5 -74t-15 -99h-59l-3 51q0 168 74.5 256t211.5 88q65 0 119.5 -18.5t93.5 -59.5t61 -106.5t22 -160.5v-300
q0 -72 0.5 -117.5t2 -78.5t5 -60.5t10.5 -62.5q-12 0 -30.5 0.5t-38 1t-37 0.5h-28.5h-29t-37.5 -0.5t-38 -1t-30.5 -0.5q6 35 9.5 63.5t5 62.5t2 79.5t0.5 113.5v297zM215 1158q4 43 17.5 80t37 64t57.5 42.5t79 15.5q32 0 59 -10.5t52 -23.5t49.5 -23.5t51.5 -10.5
q26 0 42 16.5t24 56.5l143 -24q-5 -47 -19 -87t-39 -68.5t-62.5 -44.5t-89.5 -16q-41 0 -68.5 11.5t-48.5 26t-39.5 26t-40.5 11.5q-26 0 -43 -19t-25 -52z" />
    <glyph glyph-name="ograve" unicode="&#xf2;" horiz-adv-x="944" 
d="M472 147q37 0 66 18.5t49.5 57.5t31.5 99.5t11 144.5q0 91 -9.5 155t-29 104.5t-49.5 58.5t-70 18t-70 -18t-49.5 -58.5t-29 -104.5t-9.5 -155q0 -84 11 -144.5t31.5 -99.5t49.5 -57.5t66 -18.5zM472 -13q-95 0 -169 26.5t-125.5 86t-78.5 156t-27 237.5
q0 112 25.5 199.5t76 147.5t125 91.5t173.5 31.5t173.5 -31.5t125 -91.5t76 -147.5t25.5 -199.5q0 -141 -27 -237.5t-78.5 -156t-126 -86t-168.5 -26.5zM492 1102q-21 18 -51.5 45.5t-67 61.5t-76 73t-76.5 79q16 -1 36 -1.5t40 -0.5h38h30h69.5t50.5 1q29 -55 61 -111.5
t73 -132.5v-14h-127z" />
    <glyph glyph-name="oacute" unicode="&#xf3;" horiz-adv-x="944" 
d="M472 147q37 0 66 18.5t49.5 57.5t31.5 99.5t11 144.5q0 91 -9.5 155t-29 104.5t-49.5 58.5t-70 18t-70 -18t-49.5 -58.5t-29 -104.5t-9.5 -155q0 -84 11 -144.5t31.5 -99.5t49.5 -57.5t66 -18.5zM472 -13q-95 0 -169 26.5t-125.5 86t-78.5 156t-27 237.5
q0 112 25.5 199.5t76 147.5t125 91.5t173.5 31.5t173.5 -31.5t125 -91.5t76 -147.5t25.5 -199.5q0 -141 -27 -237.5t-78.5 -156t-126 -86t-168.5 -26.5zM361 1102v14q41 76 73 132.5t61 111.5q20 -1 50.5 -1h69.5h30h38t40 0.5t36 1.5q-38 -40 -77 -79t-75.5 -73t-67 -61.5
t-51.5 -45.5h-127z" />
    <glyph glyph-name="ocircumflex" unicode="&#xf4;" horiz-adv-x="944" 
d="M472 147q37 0 66 18.5t49.5 57.5t31.5 99.5t11 144.5q0 91 -9.5 155t-29 104.5t-49.5 58.5t-70 18t-70 -18t-49.5 -58.5t-29 -104.5t-9.5 -155q0 -84 11 -144.5t31.5 -99.5t49.5 -57.5t66 -18.5zM472 -13q-95 0 -169 26.5t-125.5 86t-78.5 156t-27 237.5
q0 112 25.5 199.5t76 147.5t125 91.5t173.5 31.5t173.5 -31.5t125 -91.5t76 -147.5t25.5 -199.5q0 -141 -27 -237.5t-78.5 -156t-126 -86t-168.5 -26.5zM474 1202l-152 -100h-180l245 256h177l246 -256h-182z" />
    <glyph glyph-name="otilde" unicode="&#xf5;" horiz-adv-x="944" 
d="M472 147q37 0 66 18.5t49.5 57.5t31.5 99.5t11 144.5q0 91 -9.5 155t-29 104.5t-49.5 58.5t-70 18t-70 -18t-49.5 -58.5t-29 -104.5t-9.5 -155q0 -84 11 -144.5t31.5 -99.5t49.5 -57.5t66 -18.5zM472 -13q-95 0 -169 26.5t-125.5 86t-78.5 156t-27 237.5
q0 112 25.5 199.5t76 147.5t125 91.5t173.5 31.5t173.5 -31.5t125 -91.5t76 -147.5t25.5 -199.5q0 -141 -27 -237.5t-78.5 -156t-126 -86t-168.5 -26.5zM172 1158q4 43 17.5 80t37 64t57.5 42.5t79 15.5q32 0 59 -10.5t52 -23.5t49.5 -23.5t51.5 -10.5q26 0 42 16.5t24 56.5
l143 -24q-5 -47 -19 -87t-39 -68.5t-62.5 -44.5t-89.5 -16q-41 0 -68.5 11.5t-48.5 26t-39.5 26t-40.5 11.5q-26 0 -43 -19t-25 -52z" />
    <glyph glyph-name="odieresis" unicode="&#xf6;" horiz-adv-x="944" 
d="M472 147q37 0 66 18.5t49.5 57.5t31.5 99.5t11 144.5q0 91 -9.5 155t-29 104.5t-49.5 58.5t-70 18t-70 -18t-49.5 -58.5t-29 -104.5t-9.5 -155q0 -84 11 -144.5t31.5 -99.5t49.5 -57.5t66 -18.5zM472 -13q-95 0 -169 26.5t-125.5 86t-78.5 156t-27 237.5
q0 112 25.5 199.5t76 147.5t125 91.5t173.5 31.5t173.5 -31.5t125 -91.5t76 -147.5t25.5 -199.5q0 -141 -27 -237.5t-78.5 -156t-126 -86t-168.5 -26.5zM170 1230q0 54 32.5 87t92.5 33t92.5 -33t32.5 -87t-32.5 -87t-92.5 -33t-92.5 33t-32.5 87zM536 1227q0 54 32.5 87
t92.5 33t92.5 -33t32.5 -87t-32.5 -87t-92.5 -33t-92.5 33t-32.5 87z" />
    <glyph glyph-name="divide" unicode="&#xf7;" horiz-adv-x="1086" 
d="M402 238q0 54 34.5 87t95.5 33t95.5 -33t34.5 -87t-34.5 -87t-95.5 -33t-95.5 33t-34.5 87zM402 957q0 54 34.5 87t95.5 33t95.5 -33t34.5 -87t-34.5 -87t-95.5 -33t-95.5 33t-34.5 87zM315 510q-15 0 -38 -0.5t-48 -1.5t-50 -2.5t-46 -2.5v12.5t0.5 25t0.5 29v25.5v25.5
t-0.5 29.5t-0.5 25v14q24 -2 51.5 -3t53 -2t46 -1.5t31.5 -0.5h434q11 0 31.5 0.5t46 1.5t53 2t51.5 3v-14t-0.5 -25t-0.5 -29.5v-25.5v-25.5t0.5 -29t0.5 -25v-12.5q-21 1 -46 2.5t-50 2.5t-48 1.5t-38 0.5h-434z" />
    <glyph glyph-name="oslash" unicode="&#xf8;" horiz-adv-x="944" 
d="M406 24q-11 -28 -21.5 -58.5t-19.5 -57.5t-15 -48t-7 -30q-39 1 -68 1t-66 -1l410 1132q20 57 31.5 98.5t14.5 59.5q39 -2 74 -2t76 2zM472 147q37 0 66 18.5t49.5 57.5t31.5 99.5t11 144.5q0 91 -9.5 155t-29 104.5t-49.5 58.5t-70 18t-70 -18t-49.5 -58.5t-29 -104.5
t-9.5 -155q0 -84 11 -144.5t31.5 -99.5t49.5 -57.5t66 -18.5zM472 -13q-95 0 -169 26.5t-125.5 86t-78.5 156t-27 237.5q0 112 25.5 199.5t76 147.5t125 91.5t173.5 31.5t173.5 -31.5t125 -91.5t76 -147.5t25.5 -199.5q0 -141 -27 -237.5t-78.5 -156t-126 -86t-168.5 -26.5z
" />
    <glyph glyph-name="ugrave" unicode="&#xf9;" horiz-adv-x="969" 
d="M860 346q0 -72 0.5 -124.5t2 -92.5t4 -70.5t5.5 -59.5q-12 0 -29.5 0.5t-36.5 1t-36 0.5h-27h-28t-35.5 -0.5t-36 -1t-29.5 -0.5l5 88q2 38 3.5 64t2 52t1 58.5t0.5 84.5v286q0 72 -0.5 117.5t-2 78.5t-5 60.5t-10.5 62.5q12 0 30 -0.5t37.5 -1t37.5 -1t29 -0.5
q10 0 28 0.5t37.5 1t38.5 1t31 0.5q-6 -35 -9.5 -63.5t-5 -62.5t-2 -79.5t-0.5 -113.5v-286zM348 300q0 -42 8.5 -71.5t22.5 -47.5t32 -26t38 -8q34 0 65 12t54.5 35t38.5 56t19 75h78l4 -73q-13 -53 -40 -100.5t-66.5 -84.5t-91 -58.5t-114.5 -21.5q-145 0 -214 84.5
t-69 245.5v315q0 72 -0.5 117.5t-2 78.5t-5 60.5t-9.5 62.5q12 0 30 -0.5t37.5 -1t37.5 -1t29 -0.5q10 0 28 0.5t38 1t39 1t31 0.5q-7 -35 -10.5 -63.5t-5 -62.5t-2 -79.5t-0.5 -113.5v-332zM470 1102q-21 18 -51.5 45.5t-67 61.5t-76 73t-76.5 79q16 -1 36 -1.5t40 -0.5h38
h30h69.5t50.5 1q29 -55 61 -111.5t73 -132.5v-14h-127z" />
    <glyph glyph-name="uacute" unicode="&#xfa;" horiz-adv-x="969" 
d="M860 346q0 -72 0.5 -124.5t2 -92.5t4 -70.5t5.5 -59.5q-12 0 -29.5 0.5t-36.5 1t-36 0.5h-27h-28t-35.5 -0.5t-36 -1t-29.5 -0.5l5 88q2 38 3.5 64t2 52t1 58.5t0.5 84.5v286q0 72 -0.5 117.5t-2 78.5t-5 60.5t-10.5 62.5q12 0 30 -0.5t37.5 -1t37.5 -1t29 -0.5
q10 0 28 0.5t37.5 1t38.5 1t31 0.5q-6 -35 -9.5 -63.5t-5 -62.5t-2 -79.5t-0.5 -113.5v-286zM348 300q0 -42 8.5 -71.5t22.5 -47.5t32 -26t38 -8q34 0 65 12t54.5 35t38.5 56t19 75h78l4 -73q-13 -53 -40 -100.5t-66.5 -84.5t-91 -58.5t-114.5 -21.5q-145 0 -214 84.5
t-69 245.5v315q0 72 -0.5 117.5t-2 78.5t-5 60.5t-9.5 62.5q12 0 30 -0.5t37.5 -1t37.5 -1t29 -0.5q10 0 28 0.5t38 1t39 1t31 0.5q-7 -35 -10.5 -63.5t-5 -62.5t-2 -79.5t-0.5 -113.5v-332zM388 1102v14q41 76 73 132.5t61 111.5q20 -1 50.5 -1h69.5h30h38t40 0.5t36 1.5
q-38 -40 -77 -79t-75.5 -73t-67 -61.5t-51.5 -45.5h-127z" />
    <glyph glyph-name="ucircumflex" unicode="&#xfb;" horiz-adv-x="969" 
d="M860 346q0 -72 0.5 -124.5t2 -92.5t4 -70.5t5.5 -59.5q-12 0 -29.5 0.5t-36.5 1t-36 0.5h-27h-28t-35.5 -0.5t-36 -1t-29.5 -0.5l5 88q2 38 3.5 64t2 52t1 58.5t0.5 84.5v286q0 72 -0.5 117.5t-2 78.5t-5 60.5t-10.5 62.5q12 0 30 -0.5t37.5 -1t37.5 -1t29 -0.5
q10 0 28 0.5t37.5 1t38.5 1t31 0.5q-6 -35 -9.5 -63.5t-5 -62.5t-2 -79.5t-0.5 -113.5v-286zM348 300q0 -42 8.5 -71.5t22.5 -47.5t32 -26t38 -8q34 0 65 12t54.5 35t38.5 56t19 75h78l4 -73q-13 -53 -40 -100.5t-66.5 -84.5t-91 -58.5t-114.5 -21.5q-145 0 -214 84.5
t-69 245.5v315q0 72 -0.5 117.5t-2 78.5t-5 60.5t-9.5 62.5q12 0 30 -0.5t37.5 -1t37.5 -1t29 -0.5q10 0 28 0.5t38 1t39 1t31 0.5q-7 -35 -10.5 -63.5t-5 -62.5t-2 -79.5t-0.5 -113.5v-332zM475 1202l-152 -100h-180l245 256h177l246 -256h-182z" />
    <glyph glyph-name="udieresis" unicode="&#xfc;" horiz-adv-x="969" 
d="M860 346q0 -72 0.5 -124.5t2 -92.5t4 -70.5t5.5 -59.5q-12 0 -29.5 0.5t-36.5 1t-36 0.5h-27h-28t-35.5 -0.5t-36 -1t-29.5 -0.5l5 88q2 38 3.5 64t2 52t1 58.5t0.5 84.5v286q0 72 -0.5 117.5t-2 78.5t-5 60.5t-10.5 62.5q12 0 30 -0.5t37.5 -1t37.5 -1t29 -0.5
q10 0 28 0.5t37.5 1t38.5 1t31 0.5q-6 -35 -9.5 -63.5t-5 -62.5t-2 -79.5t-0.5 -113.5v-286zM348 300q0 -42 8.5 -71.5t22.5 -47.5t32 -26t38 -8q34 0 65 12t54.5 35t38.5 56t19 75h78l4 -73q-13 -53 -40 -100.5t-66.5 -84.5t-91 -58.5t-114.5 -21.5q-145 0 -214 84.5
t-69 245.5v315q0 72 -0.5 117.5t-2 78.5t-5 60.5t-9.5 62.5q12 0 30 -0.5t37.5 -1t37.5 -1t29 -0.5q10 0 28 0.5t38 1t39 1t31 0.5q-7 -35 -10.5 -63.5t-5 -62.5t-2 -79.5t-0.5 -113.5v-332zM174 1230q0 54 32.5 87t92.5 33t92.5 -33t32.5 -87t-32.5 -87t-92.5 -33t-92.5 33
t-32.5 87zM540 1227q0 54 32.5 87t92.5 33t92.5 -33t32.5 -87t-32.5 -87t-92.5 -33t-92.5 33t-32.5 87z" />
    <glyph glyph-name="yacute" unicode="&#xfd;" horiz-adv-x="910" 
d="M229 -367q32 86 70.5 174t70.5 178l-22 -1q-50 153 -94 287.5t-84 254.5t-77 225.5t-73 200.5q10 0 28 -0.5t37.5 -1t37 -1t26.5 -0.5h31t37.5 0.5t37.5 1t31 0.5q24 -74 46.5 -151.5t45 -157t46.5 -159.5t51 -159q21 70 42.5 148t43 159t42.5 162.5t40 158.5
q30 -2 61.5 -3.5t54.5 -1.5q24 0 59.5 1.5t71.5 4.5q-61 -168 -114 -331.5t-103 -327t-99.5 -328.5t-102.5 -336q-23 4 -55 5t-55 1q-54 0 -132 -3zM395 1102v14q41 76 73 132.5t61 111.5q20 -1 50.5 -1h69.5h30h38t40 0.5t36 1.5q-38 -40 -77 -79t-75.5 -73t-67 -61.5
t-51.5 -45.5h-127z" />
    <glyph glyph-name="thorn" unicode="&#xfe;" horiz-adv-x="986" 
d="M122 1011q0 72 -0.5 117.5t-2 78.5t-5 60.5t-10.5 62.5q12 0 30.5 -0.5t38 -1t37 -0.5h28.5h28.5t36.5 0.5t37 1t30 0.5q-4 -35 -6.5 -68t-4 -73t-2.5 -90t-1 -118v-1043q0 -68 0.5 -113t2 -79t5 -62.5t10.5 -63.5q-12 0 -31 0.5t-38.5 1t-37.5 0.5h-29h-28.5t-37 -0.5
t-38 -1t-30.5 -0.5q7 35 10.5 62.5t5 60.5t2 78.5t0.5 116.5v1073zM281 584h75q0 39 11 76.5t31 67.5t49.5 48t65.5 18t63.5 -16.5t46 -52t28 -92.5t9.5 -138q0 -104 -16.5 -169.5t-44.5 -103.5t-66.5 -52t-81.5 -14q-18 0 -42 2.5t-48 6.5t-46 8.5t-37 8.5v-174
q31 -8 79 -14.5t92 -6.5q216 0 334.5 126.5t118.5 382.5q0 111 -23 198t-66.5 147t-106 91t-142.5 31q-70 0 -120.5 -24.5t-84.5 -64.5t-53 -89.5t-25 -99.5v-101z" />
    <glyph glyph-name="ydieresis" unicode="&#xff;" horiz-adv-x="910" 
d="M229 -367q32 86 70.5 174t70.5 178l-22 -1q-50 153 -94 287.5t-84 254.5t-77 225.5t-73 200.5q10 0 28 -0.5t37.5 -1t37 -1t26.5 -0.5h31t37.5 0.5t37.5 1t31 0.5q24 -74 46.5 -151.5t45 -157t46.5 -159.5t51 -159q21 70 42.5 148t43 159t42.5 162.5t40 158.5
q30 -2 61.5 -3.5t54.5 -1.5q24 0 59.5 1.5t71.5 4.5q-61 -168 -114 -331.5t-103 -327t-99.5 -328.5t-102.5 -336q-23 4 -55 5t-55 1q-54 0 -132 -3zM165 1230q0 54 32.5 87t92.5 33t92.5 -33t32.5 -87t-32.5 -87t-92.5 -33t-92.5 33t-32.5 87zM531 1227q0 54 32.5 87
t92.5 33t92.5 -33t32.5 -87t-32.5 -87t-92.5 -33t-92.5 33t-32.5 87z" />
    <glyph glyph-name="dotlessi" unicode="&#x131;" horiz-adv-x="485" 
d="M360 318q0 -72 0.5 -117.5t2 -78.5t5 -60.5t9.5 -62.5q-12 0 -30.5 0.5t-37.5 1t-37 0.5h-28h-29.5t-38 -0.5t-38 -1t-30.5 -0.5q6 35 9.5 63.5t5 62.5t2 79.5t0.5 113.5v314q0 68 -0.5 113t-2 79t-5 62.5t-9.5 63.5q12 0 30.5 -0.5t38 -1t38 -0.5h29.5h28t37 0.5t37.5 1
t30.5 0.5q-6 -35 -9.5 -62.5t-5 -60.5t-2 -78.5t-0.5 -116.5v-314z" />
    <glyph glyph-name="Lslash" unicode="&#x141;" horiz-adv-x="890" 
d="M622 924v-149l-592 -245v148zM116 0q5 22 8 42t5 45t3.5 58t2 83t0.5 119.5v167.5v300v165.5t-0.5 119t-2 83t-3.5 58.5t-5.5 45.5t-8.5 44.5q13 0 33.5 -0.5t42 -1t42 -1t32.5 -0.5q13 0 32.5 0.5t40.5 1t40.5 1t33.5 0.5q-3 -24 -5 -44.5t-3.5 -45.5t-2 -58.5t-1 -83
t-0.5 -119v-165.5v-633q65 0 134.5 0.5t134 3t120 8.5t91.5 17q-4 -40 -5 -64t-1 -47t1 -51t3 -49h-762z" />
    <glyph glyph-name="lslash" unicode="&#x142;" horiz-adv-x="495" 
d="M465 949v-148l-435 -246v144zM248 0h-28.5t-37 -0.5t-38 -1t-30.5 -0.5q6 35 9.5 62.5t5 61t2 79t0.5 117.5v692q0 71 -0.5 116.5t-2 78.5t-5 60.5t-9.5 62.5q12 0 30.5 -0.5t38 -1t37 -0.5h28.5h27.5t37 0.5t38 1t30.5 0.5q-6 -35 -9.5 -62.5t-5 -60.5t-2 -78.5
t-0.5 -116.5v-692q0 -72 0.5 -117.5t2 -79t5 -61t9.5 -62.5q-12 0 -30.5 0.5t-38 1t-37 0.5h-27.5z" />
    <glyph glyph-name="OE" unicode="&#x152;" horiz-adv-x="1692" 
d="M584 1169q-59 0 -102 -23t-71 -80t-41.5 -153t-13.5 -243q0 -143 13.5 -240.5t41.5 -157t71 -85.5t102 -26t102 26t71 85.5t41.5 157t13.5 240.5q0 147 -13.5 243t-41.5 153t-71 80t-102 23zM584 -13q-130 0 -224 42.5t-155 129t-90 216.5t-29 304q0 167 29 292t90 207.5
t155 123.5t224 41t222.5 -41t151.5 -123.5t86.5 -207.5t27.5 -292q0 -174 -27.5 -304t-86.5 -216.5t-151.5 -129t-222.5 -42.5zM1589 1330q-3 -29 -4 -48.5t-1 -32.5q0 -16 0.5 -40.5t2.5 -59.5q-34 6 -72 9.5t-94.5 5.5t-139 2.5t-205.5 0.5v-396q86 1 161.5 2.5t136 3.5
t103 4t63.5 5q-2 -32 -3 -55t-1 -44q0 -20 1 -41.5t3 -50.5q-32 4 -73.5 7t-98 4.5t-128.5 2t-164 0.5v-439q95 0 172 0.5t140 2.5t115 7t99 14q-2 -36 -3 -60t-1 -44t1 -44t3 -46h-804q5 22 8 42t5 45t3.5 58t2 83t0.5 119.5v167.5v300v167t-0.5 120t-2 83t-3.5 58t-5 44.5
t-8 42.5h791z" />
    <glyph glyph-name="oe" unicode="&#x153;" horiz-adv-x="1463" 
d="M472 147q37 0 66 18.5t49.5 57.5t31.5 99.5t11 144.5q0 91 -9.5 155t-29 104.5t-49.5 58.5t-70 18t-70 -18t-49.5 -58.5t-29 -104.5t-9.5 -155q0 -84 11 -144.5t31.5 -99.5t49.5 -57.5t66 -18.5zM472 -13q-95 0 -169 26.5t-125.5 86t-78.5 156t-27 237.5
q0 112 25.5 199.5t76 147.5t125 91.5t173.5 31.5t173.5 -31.5t125 -91.5t76 -147.5t25.5 -199.5q0 -141 -27 -237.5t-78.5 -156t-126 -86t-168.5 -26.5zM1068 156q43 0 78.5 4.5t65.5 12t56.5 17t50.5 20.5l19 -8l-22 -176q-20 -6 -50 -12.5t-63.5 -12.5t-66.5 -10t-58 -4
q-98 0 -180 21.5t-141.5 76.5t-92.5 149t-33 240q0 129 26.5 221.5t77 152t124.5 87.5t169 28q92 0 158.5 -29.5t109 -83.5t63 -131t20.5 -172v-135h-511q2 -72 16.5 -121t40 -79t62 -43t81.5 -13zM1024 803q-35 0 -61.5 -10t-45.5 -37t-30.5 -74t-15.5 -120h273v13
q0 120 -28 174t-92 54z" />
    <glyph glyph-name="Scaron" unicode="&#x160;" horiz-adv-x="970" 
d="M531 1541l132 79h200l-245 -235h-177l-246 235h202zM439 167q94 0 143 54t49 160q0 46 -19.5 79t-52 57.5t-74.5 44t-88 37.5q-55 22 -109.5 50t-98 70t-70.5 102t-27 146q0 90 31.5 160t90.5 118t142 73t187 25q102 0 185.5 -26t135.5 -63q-18 -36 -30.5 -59t-21.5 -41
t-16 -35t-14 -41h-36q-21 49 -77 70t-137 21t-128 -43.5t-47 -127.5q0 -57 18.5 -94.5t49.5 -62.5t69.5 -41.5t79.5 -31.5q56 -20 114 -46.5t105 -69t77 -106t30 -159.5q0 -100 -34.5 -175t-97 -125t-149.5 -75t-191 -25q-112 0 -201 28.5t-160 79.5q13 28 27.5 57.5
t27.5 57t23 51t15 40.5h36q17 -28 41 -52.5t54.5 -42.5t67.5 -28.5t80 -10.5z" />
    <glyph glyph-name="scaron" unicode="&#x161;" horiz-adv-x="795" 
d="M364 156q75 0 107 33.5t32 87.5q0 36 -18 58t-47.5 36t-67 24t-76.5 22t-76.5 29.5t-67 47t-47.5 74t-18 111.5t24.5 120t70.5 90t111 57t146 20q69 0 139 -17.5t129 -47.5q-11 -18 -23 -44.5t-22.5 -54t-18.5 -52t-10 -37.5h-34q-12 39 -53.5 61t-101.5 22
q-127 0 -127 -102q0 -39 18 -62t48 -37t67.5 -23t77.5 -20t77.5 -27t67.5 -44.5t48 -73.5t18 -112q0 -60 -23 -116t-68.5 -99t-114.5 -68.5t-162 -25.5q-49 0 -94 7t-84 18.5t-72.5 26t-59.5 29.5q7 14 18.5 37.5t22 50t18.5 52.5t8 45h31q10 -19 29.5 -36.5t46.5 -30.5
t60 -21t71 -8zM411.023 1258.07l151.99 99.9941h179.989l-244.985 -255.984h-176.989l-245.984 255.984h181.988z" />
    <glyph glyph-name="Ydieresis" unicode="&#x178;" horiz-adv-x="1090" 
d="M545 809q73 137 131 263t111 258q38 -1 71 -1.5t65 -0.5q11 0 32 0.5t44.5 1t45.5 1.5t35 1q-109 -192 -209.5 -382.5t-194.5 -379.5v-188.5t0.5 -134t2 -92.5t4 -63.5t6 -47.5t9.5 -45q-13 0 -33.5 0.5t-43 1t-43 0.5h-33.5h-34t-42 -0.5t-42 -1t-33 -0.5q5 23 8 43.5
t5 47t3.5 63t2 92.5t0.5 135v190q-96 193 -195 382t-208 380q13 0 35 -1t45.5 -1.5t44.5 -1t32 -0.5q32 0 65 0.5t71 1.5q54 -125 111.5 -254t130.5 -267zM237 1508q0 54 32.5 87t92.5 33t92.5 -33t32.5 -87t-32.5 -87t-92.5 -33t-92.5 33t-32.5 87zM603 1505q0 54 32.5 87
t92.5 33t92.5 -33t32.5 -87t-32.5 -87t-92.5 -33t-92.5 33t-32.5 87z" />
    <glyph glyph-name="Zcaron" unicode="&#x17d;" horiz-adv-x="955" 
d="M521 1541l132 79h200l-245 -235h-177l-246 235h202zM374 170q91 0 166 0.5t137 3t113 6t94 9.5q-2 -31 -3 -56.5t-1 -45.5q0 -21 1 -46t3 -45q-20 1 -46.5 2t-53.5 1.5t-51 0.5h-39h-645v71l530 1087h-292q-16 0 -39.5 -1t-49 -2t-51 -3t-46.5 -3v13t0.5 25t0.5 29v26
v25.5t-0.5 30t-0.5 25.5v14q24 -2 52 -3t54 -2t47.5 -1.5t32.5 -0.5h612v-78z" />
    <glyph glyph-name="zcaron" unicode="&#x17e;" horiz-adv-x="797" 
d="M350 160h208q15 0 37 0.5t46.5 1.5l49 2t43.5 2q-2 -25 -3 -45.5t-1 -40.5q0 -19 1 -39t3 -46q-19 1 -44.5 2t-52.5 2t-53 1h-46h-483v71l404 710h-196q-15 0 -36.5 -0.5t-45 -1.5t-47 -2.5t-42.5 -2.5v12t0.5 23.5t0.5 27.5v24v22.5t-0.5 26t-0.5 22.5v13
q22 -2 47.5 -2.5t49.5 -1t44 -0.5h30h484v-79zM411.023 1258.07l151.99 99.9941h179.989l-244.985 -255.984h-176.989l-245.984 255.984h181.988z" />
    <glyph glyph-name="florin" unicode="&#x192;" horiz-adv-x="950" 
d="M437 96q-19 -108 -51.5 -182.5t-79 -121t-108 -67.5t-137.5 -21q-26 0 -59 3t-63 10l-30 162q35 -6 62.5 -8.5t53.5 -2.5q39 0 67.5 11t50 39t37 74t27.5 117l147 841q19 111 53.5 189t84.5 128t115.5 73t146.5 23q54 0 104 -9.5t87 -25.5l-46 -159l-16 -6
q-19 20 -54.5 33t-77.5 13q-33 0 -57.5 -11t-42.5 -35.5t-31 -64t-22 -96.5zM390 882q-10 0 -41.5 0.5t-69.5 2t-74.5 2.5t-55.5 3v-12.5t0.5 -24t0.5 -27v-22.5v-23t-0.5 -27t-0.5 -23v-12q9 1 28.5 1.5t43.5 1.5t51 1.5t51.5 1t45 1t31.5 0.5h41.5t68 -0.5t82.5 -1.5
t84.5 -1.5t73.5 -1.5t50 -2q-3 31 -3.5 46.5t-0.5 29.5q0 9 0.5 23l1 28t1.5 25t1 16q-17 -1 -50 -1.5t-74 -1t-86 -1t-85 -1t-71 -0.5h-44z" />
    <glyph glyph-name="circumflex" unicode="&#x2c6;" horiz-adv-x="758" 
d="M377 1202l-152 -100h-180l245 256h177l246 -256h-182z" />
    <glyph glyph-name="caron" unicode="&#x2c7;" horiz-adv-x="738" 
d="M371.023 1258.07l151.99 99.9941h179.989l-244.985 -255.984h-176.989l-245.984 255.984h181.988z" />
    <glyph glyph-name="uni02C9" unicode="&#x2c9;" horiz-adv-x="643" 
d="M235 1154q-15 0 -38 -0.5t-48 -1.5t-50.5 -2.5t-45.5 -2.5v12t0.5 23.5t0.5 27.5v23v22.5t-0.5 27t-0.5 24v13.5q24 -2 51.5 -3t53 -2t46 -1.5t31.5 -0.5h158q15 0 38.5 0.5t49.5 2t52 2.5t47 3q-5 -26 -5.5 -46.5t-0.5 -39.5q0 -17 0.5 -37t5.5 -51q-24 1 -52 2.5
t-54.5 2.5t-48 1.5t-32.5 0.5h-158z" />
    <glyph glyph-name="breve" unicode="&#x2d8;" horiz-adv-x="700" 
d="M219 1358q8 -49 39 -79.5t91 -30.5q59 0 89.5 30.5t45.5 79.5h136q0 -64 -20 -114.5t-55.5 -86t-85 -54t-108.5 -18.5q-60 0 -110 18.5t-85.5 54t-55.5 86t-20 114.5h139z" />
    <glyph glyph-name="dotaccent" unicode="&#x2d9;" horiz-adv-x="470" 
d="M100 1235q0 27 9.5 50t27 40t42.5 26.5t56 9.5t56 -9.5t42.5 -26.5t27 -40t9.5 -50t-9.5 -50t-27 -40t-42.5 -26.5t-56 -9.5t-56 9.5t-42.5 26.5t-27 40t-9.5 50z" />
    <glyph glyph-name="ring" unicode="&#x2da;" horiz-adv-x="540" 
d="M270 1176q22 0 39 16t17 48t-17 46.5t-39 14.5t-39 -14.5t-17 -46.5t17 -48t39 -16zM270 1053q-95 0 -150.5 48.5t-55.5 136.5t55.5 136.5t150.5 48.5t150.5 -48.5t55.5 -136.5t-55.5 -136.5t-150.5 -48.5z" />
    <glyph glyph-name="ogonek" unicode="&#x2db;" horiz-adv-x="557" 
d="M467 -346q-37 -17 -80.5 -29t-96.5 -12q-43 0 -79.5 12.5t-63.5 35.5t-42 55t-15 70q0 44 15.5 86t38.5 80t49.5 70t47.5 56h131q-24 -43 -39.5 -76t-25 -62t-13.5 -58.5t-4 -66.5q0 -33 15 -55t39.5 -35.5t56.5 -19t66 -5.5v-46z" />
    <glyph glyph-name="tilde" unicode="&#x2dc;" horiz-adv-x="692" 
d="M40 1158q4 43 17.5 80t37 64t57.5 42.5t79 15.5q32 0 59 -10.5t52 -23.5t49.5 -23.5t51.5 -10.5q26 0 42 16.5t24 56.5l143 -24q-5 -47 -19 -87t-39 -68.5t-62.5 -44.5t-89.5 -16q-41 0 -68.5 11.5t-48.5 26t-39.5 26t-40.5 11.5q-26 0 -43 -19t-25 -52z" />
    <glyph glyph-name="hungarumlaut" unicode="&#x2dd;" horiz-adv-x="855" 
d="M72 1102v14q34 76 64.5 137.5t59.5 116.5q20 -1 50.5 -1h69.5h30h38t40 0.5t36 1.5q-38 -40 -75.5 -79t-72 -74t-63.5 -64.5t-50 -51.5h-127zM385 1102v14q42 76 73.5 137.5t60.5 116.5q20 -1 50.5 -1h69.5h30h38t40 0.5t36 1.5q-38 -40 -77 -80.5t-75.5 -76.5t-67 -65
t-51.5 -47h-127z" />
    <glyph glyph-name="_189" unicode="&#x3a9;" horiz-adv-x="1084" 
d="M539 1171q-53 0 -89 -23.5t-57.5 -80t-31 -151t-9.5 -236.5q0 -117 10 -206.5t29 -155t47 -109.5t64 -71v-138h-180q-11 0 -38 -1t-59.5 -2t-65.5 -3t-55 -3v13.5t0.5 24.5t0.5 28v24v24t-0.5 27.5t-0.5 24v12.5q38 -2 77 -4t70 -2q-28 36 -54.5 85t-47 113.5t-33 145.5
t-12.5 182q0 167 19.5 290t69 204t133.5 120.5t213 39.5t213.5 -39.5t134 -120.5t69 -204t19.5 -290q0 -102 -12 -183.5t-32.5 -145.5t-47 -112t-54.5 -84q18 1 39.5 1.5t42.5 1.5t39.5 1.5t29.5 1.5q-5 -26 -5.5 -47t-0.5 -42q0 -19 0.5 -39t5.5 -51q-23 1 -56.5 3t-67.5 3
t-62 2t-38 1h-180v138q37 27 65 71t47 109.5t29 155t10 206.5q0 142 -9.5 236.5t-31.5 151t-58 80t-89 23.5z" />
    <glyph glyph-name="uni03BC" unicode="&#x3bc;" horiz-adv-x="989" 
d="M868 346q0 -72 0.5 -124.5t2 -92.5t4 -70.5t5.5 -59.5q-12 0 -29.5 0.5t-36.5 1t-36 0.5h-27h-28t-35.5 -0.5t-36 -1t-29.5 -0.5l5 88q2 38 3.5 64t2 52t1 58.5t0.5 84.5v286q0 72 -0.5 117.5t-2 78.5t-5 60.5t-10.5 62.5q12 0 30 -0.5t37.5 -1t37.5 -1t29 -0.5
q10 0 28 0.5t37.5 1t38.5 1t31 0.5q-6 -35 -9.5 -63.5t-5 -62.5t-2 -79.5t-0.5 -113.5v-286zM716 252q-6 -50 -27.5 -97.5t-54.5 -85t-75 -60t-88 -22.5q-32 0 -63.5 5.5t-54.5 16.5q0 -12 1 -24q1 -11 1.5 -23t0.5 -23q0 -68 0.5 -113.5t2 -79.5t5 -62.5t10.5 -63.5
q-12 0 -31 0.5t-39 1t-38 1t-28 0.5q-11 0 -29 -0.5t-37.5 -1t-37.5 -1t-30 -0.5q6 35 9.5 62.5t5 60.5t2 78.5t0.5 117.5v693q0 72 -0.5 117.5t-2 78.5t-5 60.5t-9.5 62.5q12 0 30 -0.5t37.5 -1t37.5 -1t29 -0.5q10 0 28 0.5t38 1t39 1t31 0.5q-7 -35 -10.5 -63.5t-5 -62.5
t-2 -79.5t-0.5 -113.5v-332q0 -85 35.5 -119t95.5 -34q67 0 107 48.5t40 129.5h78z" />
    <glyph glyph-name="pi" unicode="&#x3c0;" horiz-adv-x="1094" 
d="M834 232q0 -31 2 -50.5t7.5 -31t14 -15.5t21.5 -4q19 0 40.5 2t43.5 4l-22 -118q-42 -13 -75 -18.5t-65 -5.5q-105 0 -153 58.5t-48 170.5v552h-158v-270v-163t0.5 -116.5t2 -81.5t3.5 -57.5t5.5 -45t8.5 -43.5q-12 0 -31 0.5t-38.5 1t-37.5 0.5h-28h-29t-37.5 -0.5
t-38.5 -1t-32 -0.5q4 23 7.5 43.5t5.5 45t3 57.5t1.5 81.5t0.5 116.5v163v267q-25 0 -66.5 -1t-82.5 -5q0 15 1 37.5t1 43.5q0 23 -1.5 52t-5.5 50h954q-4 -21 -5.5 -50t-1.5 -52q0 -21 1 -43.5t1 -37.5q-20 2 -44.5 3t-48 1.5t-44 0.5h-32.5v-540z" />
    <glyph glyph-name="uni0E01" unicode="&#xe01;" horiz-adv-x="1080" 
d="M734 783q0 46 -11.5 84t-35.5 65t-61.5 41.5t-90.5 14.5q-76 0 -131.5 -23.5t-92.5 -52.5v-4q17 -17 34 -51.5t17 -83.5v-434v-127t1.5 -86t3.5 -64.5t7 -62.5q-13 0 -31.5 0.5t-38 1t-37 0.5h-28.5h-28.5t-36.5 -0.5t-37 -1t-31 -0.5q4 34 6.5 64t4 67.5t1.5 87v121.5
v457q0 32 -5.5 56t-14.5 41t-20 28.5t-23 19.5v16q39 42 91 79t113.5 65t131.5 44.5t144 16.5q101 0 183 -26.5t139.5 -75.5t89 -119t31.5 -158v-444v-127t1.5 -86t3.5 -64.5t7 -62.5q-13 0 -31.5 0.5l-37 1t-35.5 0.5h-28h-29t-37.5 -0.5t-38 -1t-31.5 -0.5q4 34 6.5 64
t4 67.5t1.5 87v121.5v444z" />
    <glyph glyph-name="uni0E02" unicode="&#xe02;" horiz-adv-x="944" 
d="M313 323q0 -86 39 -127t107 -41t103 41t35 127v480q0 77 -0.5 127.5t-1.5 86.5t-4 65t-7 62q12 0 30.5 -0.5t38 -1t37.5 -0.5h29h29t37.5 0.5t38 1t30.5 0.5q-5 -33 -7 -62t-3.5 -65t-1.5 -86.5v-127.5v-480q0 -168 -95.5 -252.5t-287.5 -84.5q-194 0 -291 88t-97 249
v172q0 57 13.5 104.5t33.5 88t44 75t44 66t33.5 60.5t13.5 59q0 23 -13 38t-46 15q-27 0 -46 -11.5t-33 -27.5h-21q-3 12 -16.5 53t-45.5 96q32 17 86 32.5t117 15.5q61 0 106 -14.5t74 -40.5t43.5 -62.5t14.5 -81.5q0 -47 -12 -86t-29.5 -74.5t-38.5 -69.5t-38.5 -70
t-29.5 -76.5t-12 -89.5v-171z" />
    <glyph glyph-name="uni0E03" unicode="&#xe03;" horiz-adv-x="993" 
d="M646 802q0 77 -0.5 127.5t-1.5 86.5t-4 65t-7 62q12 0 30.5 -0.5t38 -1t37.5 -0.5h29h29t37.5 0.5t38 1t30.5 0.5q-5 -33 -7 -62t-3.5 -65t-1.5 -86.5v-127.5v-479q0 -77 -25 -139t-74 -106t-121.5 -68t-167.5 -24q-194 0 -293.5 87.5t-99.5 249.5v131q0 62 18 112.5
t45 93.5t59 80t59 71.5t45 68.5t18 72q0 14 -8.5 22.5t-22.5 8.5q-25 0 -48 -14.5t-42 -33.5h-13q-25 22 -64 39t-102 22v16l90 135q17 0 37 -6.5t38.5 -16.5t34.5 -21t25 -21q17 22 52.5 43t86.5 21q76 0 115 -36.5t39 -125.5q0 -49 -16.5 -91.5t-41.5 -83t-54 -80t-54 -81
t-41.5 -87t-16.5 -97.5v-141q0 -86 43 -126.5t112 -40.5q67 0 105 40.5t38 126.5v479z" />
    <glyph glyph-name="uni0E04" unicode="&#xe04;" horiz-adv-x="1115" 
d="M1025 -1q-13 0 -31 0.5t-37 1t-36.5 0.5h-28.5h-28.5t-36.5 -0.5t-37.5 -1t-31.5 -0.5q3 28 5.5 56.5t4 67t2.5 90t1 125.5v416q0 121 -51 177.5t-154 56.5q-100 0 -154 -56.5t-54 -177.5v-217l3 -2q36 60 88.5 95.5t126.5 35.5q22 0 47 -5t49 -21q-9 -19 -14 -45
t-8 -53.5t-3.5 -55.5t-0.5 -50l-23 -16q-15 17 -36.5 26.5t-54.5 9.5q-81 0 -127.5 -47t-46.5 -144q0 -66 2 -136t10 -130q-10 0 -26 0.5t-34 1t-36.5 1t-33.5 0.5q-14 0 -33 -0.5t-38.5 -1t-37 -1t-27.5 -0.5q3 28 5.5 56.5t4 67t2 90t0.5 125.5v406q0 99 33.5 176.5
t93.5 130.5t142.5 81t180.5 28q99 0 181 -28t141 -81.5t92 -131t33 -177.5v-404q0 -74 0.5 -125.5t2 -90t4 -67t5.5 -56.5z" />
    <glyph glyph-name="uni0E05" unicode="&#xe05;" horiz-adv-x="1121" 
d="M553 912q-22 40 -49 54.5t-62 14.5q-16 0 -31 -5.5t-27 -18.5t-19 -35t-7 -54v-331l3 -2q36 60 88.5 95.5t126.5 35.5q22 0 47 -5t49 -21q-9 -19 -14 -45t-8 -53.5t-3.5 -55.5t-0.5 -50l-23 -16q-15 17 -36.5 26.5t-54.5 9.5q-81 0 -127.5 -47t-46.5 -144q0 -66 2 -136
t10 -130q-10 0 -26 0.5t-34 1t-36.5 1t-33.5 0.5q-14 0 -33 -0.5t-38.5 -1t-37 -1t-27.5 -0.5q3 28 5.5 56.5t3.5 67t1.5 90t0.5 125.5v535q0 68 19.5 121.5t55 90t84.5 55.5t108 19q37 0 66 -6.5t51 -18t38.5 -27t29.5 -33.5q13 18 29.5 33.5t38.5 27t50.5 18t66.5 6.5
q59 0 108 -19t84.5 -55.5t55 -90t19.5 -121.5v-535q0 -74 0.5 -125.5t2 -90t4 -67t5.5 -56.5q-13 0 -31 0.5t-37 1t-36.5 0.5h-28.5h-28.5t-36.5 -0.5t-37.5 -1t-31.5 -0.5q3 28 5.5 56.5t4 67t2.5 90t1 125.5v530q0 32 -7 54t-19 35t-27.5 18.5t-31.5 5.5q-35 0 -62 -14.5
t-49 -54.5h-28z" />
    <glyph glyph-name="uni0E06" unicode="&#xe06;" horiz-adv-x="1073" 
d="M139 1147q18 0 38.5 -6.5t39.5 -16.5t35 -21.5t27 -20.5q16 22 52 43t87 21q70 0 112 -38.5t42 -123.5q0 -49 -16.5 -92.5t-41.5 -85.5t-53.5 -82t-53.5 -82t-41.5 -86t-16.5 -92v-126v-123.5t1 -83.5t2.5 -65t4.5 -67q-13 0 -30.5 0.5t-35.5 1t-34.5 0.5h-27.5h-29
t-37.5 -0.5l-39 -1t-32.5 -0.5q7 36 11.5 66.5t6 66.5t2 84.5t0.5 121.5v116q0 57 18 105.5t45 91.5t58.5 81t58.5 74.5t45 72t18 73.5q0 14 -8.5 22.5t-22.5 8.5q-25 0 -48 -14.5t-42 -33.5h-13q-12 12 -25 20.5t-32 15.5t-46.5 13t-67.5 12v16zM726 803q0 77 -0.5 127.5
t-1.5 86.5t-4 65t-7 62q12 0 30.5 -0.5t38 -1t37.5 -0.5h29h29t37.5 0.5t38 1t30.5 0.5q-5 -33 -7 -62t-3.5 -65t-1.5 -86.5v-127.5v-446q0 -177 -88.5 -274t-269.5 -97q-70 0 -126 25.5t-98 68.5t-70 98t-43 115l14 105h59q5 -55 25.5 -100t53 -76.5t73.5 -48.5t88 -17
q74 0 105.5 43.5t31.5 139.5v464z" />
    <glyph glyph-name="uni0E07" unicode="&#xe07;" horiz-adv-x="968" 
d="M878 1144q-3 -65 -5 -110.5t-3 -87.5t-1.5 -88t-0.5 -110v-458q0 -59 -18.5 -111.5t-53 -92.5t-84 -63t-112.5 -23h-267q-8 38 -18 72t-19 58q-37 102 -67.5 190t-62.5 175t-69 181.5t-86 210.5q10 -1 30 -1.5t41 -1t40.5 -1t30.5 -0.5h27.5t34 0.5t34.5 1t29 1.5
q18 -56 34.5 -106.5t32.5 -101.5t34 -104.5t39.5 -115.5t47.5 -135.5t60 -162.5q42 1 67 28.5t25 94.5v465q0 61 -1 103t-2 68q-1 31 -2 49q-31 -2 -74 -5.5t-81 -11.5q0 6 1 20.5t1.5 30.5t1 30.5t0.5 21.5q0 12 -0.5 32t-4.5 58h421z" />
    <glyph glyph-name="uni0E08" unicode="&#xe08;" horiz-adv-x="998" 
d="M529 168q76 6 105.5 67.5t29.5 170.5v328q0 67 -13.5 114t-41 77t-70 43.5t-99.5 13.5q-41 0 -80.5 -9.5t-74 -25.5t-62.5 -36t-45 -41h-30q-3 18 -7.5 33t-13 34.5t-22.5 47.5t-35 72q28 19 71 37.5t93 33t104 23t104 8.5q114 0 201 -24t146 -75t89 -131.5t30 -194.5
v-333q0 -81 -23.5 -154t-73.5 -128t-127.5 -87t-184.5 -32h-172q0 45 -4.5 84.5t-12.5 87.5q-6 39 -11.5 71.5t-11 63.5t-11 63.5t-12.5 71.5q-19 0 -33.5 -1t-29 -2.5t-30.5 -4t-37 -5.5q0 5 0.5 19t1 30.5t0.5 32v23.5v84h334z" />
    <glyph glyph-name="uni0E09" unicode="&#xe09;" horiz-adv-x="1047" 
d="M938 338q0 -73 0.5 -121.5t2 -84.5t5.5 -66.5t11 -66.5q-13 0 -32 0.5t-39 1t-38.5 0.5h-29.5h-27.5t-35 -0.5t-36.5 -1t-31 -0.5q4 35 6 64t3 65t1 85v125v374q0 79 -17.5 131t-49.5 83t-78 43.5t-103 12.5q-45 0 -90 -11.5t-83 -28t-66 -34.5t-39 -31h-40q-3 15 -7 29
t-12 32.5t-22 45t-38 67.5q29 16 73 35t97.5 34.5t113.5 26t121 10.5q117 0 206.5 -26t150.5 -80t92 -138t31 -201v-374zM373 309q0 -77 35 -114.5t92 -37.5q51 0 88.5 19t61.5 52.5t36 79.5t12 100h59l14 -125q-13 -55 -36 -108.5t-61.5 -95.5t-93.5 -67.5t-133 -25.5
q-148 0 -227 86t-79 249v137q-21 -2 -50.5 -5t-62.5 -9q1 9 1.5 22t1 27t1 27t0.5 21v90h341v-322z" />
    <glyph glyph-name="uni0E0A" unicode="&#xe0a;" horiz-adv-x="1028" 
d="M907 344q0 -94 -27.5 -162t-80 -111.5t-128 -64t-170.5 -20.5q-96 0 -172 21.5t-128.5 66t-80 111.5t-27.5 159v151q0 57 13.5 104.5t33.5 88t44 75t44 66t33.5 60.5t13.5 59q0 23 -13 38t-46 15q-26 0 -46.5 -12.5t-32.5 -26.5h-21q-3 12 -16.5 53t-45.5 96
q32 17 86 32.5t117 15.5q61 0 106 -14.5t74 -40.5t43.5 -62.5t14.5 -81.5q0 -47 -12 -86t-29.5 -74.5t-38.5 -69.5t-38.5 -70t-29.5 -76.5t-12 -89.5v-150q0 -53 10 -89t30.5 -58t51.5 -31.5t74 -9.5t74.5 9.5t51 31.5t29 58t9.5 89v286q0 77 -23 107.5t-70 30.5
q-11 0 -21 -0.5t-19 -1.5q4 36 4.5 57.5t0.5 33.5v60q45 1 74 13t46.5 41.5t24 80t6.5 128.5q35 -2 66.5 -2.5t46.5 -0.5q28 0 66 1t71 6q0 -140 -43 -218.5t-134 -112.5q32 -12 59 -30t46.5 -46.5t30 -69t10.5 -97.5v-266z" />
    <glyph glyph-name="uni0E0B" unicode="&#xe0b;" horiz-adv-x="1055" 
d="M692 630q0 77 -23 107.5t-70 30.5q-11 0 -21 -0.5t-19 -1.5q4 36 4.5 57.5t0.5 33.5v60q45 1 74 13t46.5 41.5t24 80t6.5 128.5q35 -2 66.5 -2.5t46.5 -0.5q28 0 66 1t71 6q0 -140 -43 -218.5t-134 -112.5q32 -12 59 -30t46.5 -46.5t30 -69t10.5 -97.5v-266
q0 -94 -25.5 -162t-75.5 -111.5t-123.5 -64t-169.5 -20.5q-193 0 -296.5 87.5t-103.5 270.5v324q0 86 36 155t106 132q-12 -2 -25.5 -3t-27.5 -1q-26 0 -52.5 3t-52 9t-48 15.5t-39.5 21.5q16 16 29 32.5t24.5 34t24 37.5t29.5 44h19q20 -25 57 -38.5t87 -13.5
q27 0 48.5 3.5t39 10t32 17t29.5 24.5l123 -111q-62 -45 -100 -83t-59.5 -80t-29 -94t-7.5 -126v-313q0 -53 8.5 -89t27 -58.5t48.5 -32t73 -9.5q42 0 71 9.5t47 32t26 58.5t8 89v286z" />
    <glyph glyph-name="uni0E0C" unicode="&#xe0c;" horiz-adv-x="1643" 
d="M1541 359q0 -89 -16.5 -158.5t-54 -117t-100 -72.5t-153.5 -25q-47 0 -87.5 11t-73.5 30.5t-58.5 46.5t-41.5 58q0 -17 0.5 -40.5t1.5 -43.5q1 -25 2 -49q-13 0 -30 0.5t-34.5 1t-33.5 0.5h-27h-28.5t-36.5 -0.5t-37.5 -1t-31.5 -0.5q5 34 7.5 64t4 67.5t1.5 87v121.5
v448q0 45 -8.5 82.5t-29 64.5t-55 41.5t-87.5 14.5q-75 0 -127 -18t-91 -44q17 -19 35 -52t18 -87v-533q0 -39 2.5 -63.5t7.5 -37.5t14 -17.5t22 -4.5q21 0 40.5 1.5t44.5 5.5l-22 -121q-46 -13 -77.5 -18.5t-60.5 -5.5q-109 0 -160 61t-51 182v571q0 33 -12 58.5t-26 42.5
q-17 20 -37 35v29q34 29 86 62t115 61t134 46.5t145 18.5q109 0 188.5 -25.5t131.5 -74t77 -118t25 -157.5v-327q0 -74 19.5 -130t51 -94t69.5 -57t76 -19q72 0 98.5 43t26.5 137v463v127.5t-1.5 86.5t-4 65t-6.5 62q12 0 30 -0.5t37 -1t37 -1t29 -0.5t29 0.5t37.5 1t38 1
t30.5 0.5q-5 -33 -7 -62t-3.5 -65t-1.5 -86.5v-127.5v-444z" />
    <glyph glyph-name="uni0E0D" unicode="&#xe0d;" horiz-adv-x="1646" 
d="M714 787q0 45 -8.5 82.5t-29 64.5t-55 41.5t-87.5 14.5q-75 0 -127 -18t-91 -44q17 -19 35 -52t18 -87v-533q0 -39 2.5 -63.5t7.5 -37.5t14 -17.5t22 -4.5q21 0 40.5 1.5t44.5 5.5l-22 -121q-46 -13 -77.5 -18.5t-60.5 -5.5q-109 0 -160 61t-51 182v571q0 33 -12 58.5
t-26 42.5q-17 20 -37 35v29q34 29 86 62t115 61t134 46.5t145 18.5q109 0 188.5 -25.5t131.5 -74t77 -118t25 -157.5v-434q0 -47 7 -80t22.5 -53.5t40.5 -29.5t62 -9q43 0 81 17.5t66.5 52t45 85.5t16.5 117v349q0 73 -0.5 121.5t-2 85t-6 67t-11.5 66.5q13 0 32.5 -0.5
t40 -1t39.5 -1t30 -0.5t29.5 0.5t38 1t38.5 1t31 0.5q-6 -35 -9.5 -63.5t-5 -64t-2 -85t-0.5 -127.5v-675q0 -229 -124 -346t-379 -117q-27 0 -64.5 4t-75 9.5t-71 11.5t-52.5 11l-24 167l19 17q28 -10 63.5 -19.5t73 -17t75 -12t70.5 -4.5q71 0 118.5 16t76 50.5t40.5 88.5
t12 129q-17 -21 -39 -40t-52 -33.5t-69 -23t-89 -8.5q-92 0 -155.5 23t-103 69t-57.5 113t-18 156v416z" />
    <glyph glyph-name="uni0E0E" unicode="&#xe0e;" horiz-adv-x="1089" 
d="M755 795q-1 92 -52.5 143.5t-162.5 51.5q-74 0 -125 -17.5t-86 -42.5q9 -9 20 -22t20.5 -30.5t15.5 -39.5t6 -49v-561q0 -121 -50 -177t-159 -56q-29 0 -61 4t-77 17l-14 125q17 -3 36.5 -5.5t30.5 -2.5t20 2.5t16 11.5t10.5 25.5t3.5 43.5v582q0 33 -13 58.5t-29 42.5
q-18 20 -42 36v27q25 30 75 65t114.5 65t139 50t148.5 20q107 0 192 -24.5t144.5 -71.5t91 -115t31.5 -156v-882q0 -152 -72.5 -232.5t-220.5 -80.5q-27 0 -60 4.5t-68.5 9.5t-71 9.5t-68.5 4.5q-70 0 -123 -8.5t-88 -19.5l-15 11l36 165q22 8 50 15q24 5 56.5 10t73.5 5
q36 0 67 -4.5t59.5 -9.5t55.5 -9.5t54 -4.5q51 0 71 37.5t20 106.5v873v0z" />
    <glyph glyph-name="uni0E0F" unicode="&#xe0f;" horiz-adv-x="1089" 
d="M392 -223q18 0 36.5 3.5t36 11.5t32.5 21t26 33h28q21 -38 49 -53.5t63 -15.5q39 0 65.5 24t26.5 80v914q0 92 -52 143.5t-163 51.5q-74 0 -125 -17.5t-86 -42.5q9 -9 20 -22t20.5 -30.5t15.5 -39.5t6 -49v-561q0 -121 -50 -177t-159 -56q-29 0 -61 4t-77 17l-14 125
q17 -3 36.5 -5.5t30.5 -2.5t20 2.5t16 11.5t10.5 25.5t3.5 43.5v582q0 33 -13 58.5t-29 42.5q-18 20 -42 36v27q25 30 75 65t114.5 65t139 50t148.5 20q107 0 192 -24.5t144.5 -71.5t91 -115t31.5 -156v-910q0 -68 -21 -121t-58.5 -89.5t-88 -55.5t-109.5 -19
q-38 0 -66.5 6.5t-50.5 18t-38.5 27t-29.5 33.5q-13 -18 -29.5 -33.5t-38.5 -27t-51 -18t-66 -6.5q-41 0 -80 8t-65 18l-30 195l8 7q23 -11 45.5 -20.5t47 -16.5t52 -10.5t62.5 -3.5z" />
    <glyph glyph-name="uni0E10" unicode="&#xe10;" horiz-adv-x="1026" 
d="M529 168q76 6 105.5 67.5t29.5 170.5v328q0 67 -13.5 114t-41 77t-70 43.5t-99.5 13.5q-41 0 -80.5 -9.5t-75 -25.5t-63.5 -36t-45 -41h-30q-3 18 -6.5 33t-11 34.5t-21 47.5t-37.5 72q28 19 71 37.5t93 33t104 23t104 8.5q114 0 201 -24t146 -75t89 -131.5t30 -194.5
v-333q0 -81 -23.5 -154t-73.5 -128t-127.5 -87t-184.5 -32h-172q0 45 -4.5 84.5t-12.5 87.5q-6 39 -11.5 72.5t-11 65.5t-11 65.5t-12.5 72.5q-19 0 -33.5 -1t-29 -2.5t-30.5 -4t-37 -5.5q0 5 0.5 19t1 30.5t0.5 32v23.5v84h334zM576 1142q45 0 94 8.5t97.5 22t95 31
t86.5 36.5l15 -8q-3 -12 -4 -34.5t-2 -50.5t-1 -58.5v-58.5q-36 -8 -77.5 -12.5t-82 -7t-77 -3.5t-60.5 -1zM664 -114h244q0 -68 -21 -121.5t-58.5 -90t-88 -55.5t-109.5 -19q-38 0 -65 6.5t-47 18t-35 27t-28 33.5q-13 -18 -29.5 -33.5t-38.5 -27t-51 -18t-66 -6.5
q-41 0 -80 8t-65 18l-30 195l8 7q23 -11 45.5 -20.5t47 -16.5t52 -10.5t62.5 -3.5q18 0 36.5 3.5t36 11.5t32.5 21t26 33h28q21 -38 49 -53.5t63 -15.5q39 0 60.5 24t21.5 80v5z" />
    <glyph glyph-name="uni0E11" unicode="&#xe11;" horiz-adv-x="1184" 
d="M441 779q16 56 52.5 122t87.5 122.5t112 94t125 37.5q128 0 192.5 -87.5t64.5 -264.5v-465q0 -77 0.5 -126t2 -84t5.5 -64t11 -65q-13 0 -32 0.5t-39 1t-38.5 0.5h-29.5h-29.5t-38.5 -0.5t-39.5 -1t-32.5 -0.5q6 35 9.5 65t5 66t2 85t0.5 123v486q0 86 -12.5 119.5
t-40.5 33.5q-31 0 -66.5 -31t-71.5 -83t-70 -118.5t-61 -137t-45.5 -140t-23.5 -126.5v-23q0 -78 0.5 -124t2 -77.5t5 -57t9.5 -60.5q-12 0 -31 0.5t-38.5 1t-38 0.5h-29.5h-29.5t-39 -0.5t-40.5 -1t-33 -0.5q7 36 11.5 66.5t6 66.5t2 84.5t0.5 121.5v330q0 46 3 86.5
t12.5 75.5t26.5 65.5t45 57.5q-12 -2 -25.5 -3t-27.5 -1q-52 0 -102 13t-84 38q16 16 30.5 32.5t28 34t27.5 37.5t31 44h19q20 -25 45.5 -38.5t72.5 -13.5q24 0 42.5 3.5t34.5 10t31 17t32 24.5l113 -96q-35 -33 -57 -59t-34.5 -55t-17 -67t-4.5 -95z" />
    <glyph glyph-name="uni0E12" unicode="&#xe12;" horiz-adv-x="1674" 
d="M991 -2q-49 2 -80.5 2.5t-53.5 0.5h-29t-37.5 -0.5t-38 -1t-31.5 -0.5q6 35 9 65t4.5 66t2 85t0.5 123v631q-26 -12 -60 -28.5t-77 -16.5q-26 0 -46 6.5t-35.5 15.5t-28 19t-23.5 18q-30 -12 -56.5 -41t-47 -83t-32.5 -135t-12 -196q0 -106 14 -178t38.5 -116t58 -63
t71.5 -19q32 0 62.5 3.5t62.5 14.5l-15 -154q-25 -11 -61 -20.5t-70 -9.5q-90 0 -165 35t-128 104t-82.5 171t-29.5 235q0 147 28.5 257.5t82.5 187.5t131 123.5t174 64.5q25 -35 57.5 -53.5t64.5 -18.5q26 0 49 10.5t46.5 22.5t49.5 22.5t59 10.5q24 0 47.5 -4t45 -11
t40 -16.5t31.5 -19.5v-769v-129t1 -91.5t3 -66.5t6 -53zM1565 357q0 -89 -19.5 -158t-61.5 -116t-107 -72t-156 -25q-63 0 -113.5 22.5t-88.5 61t-64 88.5t-39 106l6 136l59 -1q4 -56 21 -100.5t45 -76t66 -48.5t83 -17q36 0 60.5 10.5t39 33t20.5 56.5t6 82v463
q0 78 -0.5 127.5t-2 85t-5 64t-9.5 63.5q12 0 31 -0.5t38.5 -1t38 -1t29.5 -0.5q12 0 30.5 0.5t38.5 1t39.5 1t33.5 0.5q-7 -36 -11 -66.5t-5.5 -67t-2 -85t-0.5 -121.5v-445z" />
    <glyph glyph-name="uni0E13" unicode="&#xe13;" horiz-adv-x="1644" 
d="M534 1162q109 0 188.5 -25.5t131.5 -74t77 -118t25 -157.5v-447q0 -94 26.5 -137t98.5 -43q37 0 75.5 17.5t70 53.5t51 90.5t19.5 128.5v353v127.5t-1.5 86.5t-4 65t-6.5 62q12 0 30 -0.5t37 -1t37 -1t29 -0.5t29 0.5t37.5 1t38 1t30.5 0.5q-5 -33 -7 -62t-3.5 -65
t-1.5 -86.5v-127.5v-464v-121.5t1.5 -87t4 -67.5t7.5 -64q-13 0 -32 0.5t-38.5 1t-37 0.5h-28.5h-27t-33.5 -0.5t-34.5 -1t-30 -0.5q1 24 2 49q1 20 1.5 43.5t0.5 40.5q-17 -32 -43.5 -59t-60.5 -46.5t-74 -30t-83 -10.5q-92 0 -153.5 25t-99 72.5t-53.5 117t-16 158.5v428
q0 45 -8.5 82.5t-29 64.5t-55 41.5t-87.5 14.5q-75 0 -127 -18t-91 -44q17 -19 35 -52t18 -87v-533q0 -39 2.5 -63.5t7.5 -37.5t14 -17.5t22 -4.5q21 0 40.5 1.5t44.5 5.5l-22 -121q-46 -13 -77.5 -18.5t-60.5 -5.5q-109 0 -160 61t-51 182v571q0 33 -12 58.5t-26 42.5
q-17 20 -37 35v29q34 29 86 62t115 61t134 46.5t145 18.5z" />
    <glyph glyph-name="uni0E14" unicode="&#xe14;" horiz-adv-x="1108" 
d="M764 774q0 109 -54 160.5t-152 51.5q-47 0 -85.5 -12.5t-65.5 -39t-42 -66.5t-15 -94v-567q26 16 49.5 40t41 56t27.5 72t10 89q0 48 -11.5 72t-31.5 41l6 18q27 0 49.5 5t45.5 14t48 20.5t57 25.5q51 -51 51 -136q0 -78 -25 -151t-77.5 -140t-133 -126t-192.5 -108
q-14 1 -33.5 1.5t-33.5 0.5q-8 0 -22 -0.5t-29 -1t-29 -1.5t-21 -1q4 33 6.5 63.5t4 68t1.5 87v122.5v426q0 97 31 171t89 124t141.5 75.5t188.5 25.5q106 0 189.5 -25.5t141 -76t87.5 -125t30 -171.5v-424q0 -74 0.5 -125.5t2 -90t4 -67t5.5 -56.5q-13 0 -31 0.5t-37 1
t-36.5 0.5h-28.5h-28.5t-37 -0.5t-38 -1t-31.5 -0.5q3 28 6 56.5t4.5 67t2.5 90t1 125.5v436z" />
    <glyph glyph-name="uni0E15" unicode="&#xe15;" horiz-adv-x="1121" 
d="M350 207q26 16 49.5 40t41 56t27.5 72t10 89q0 48 -11.5 72t-31.5 41l6 18q27 0 49.5 5t45.5 14t48 20.5t57 25.5q51 -51 51 -136q0 -78 -25 -151t-77.5 -140t-133 -126t-192.5 -108q-14 1 -33.5 1.5t-33.5 0.5q-8 0 -22 -0.5t-29 -1t-29 -1.5t-21 -1q4 33 6.5 63.5t4 68
t1.5 87v122.5v535q0 68 18.5 121.5t53 90t82.5 55.5t107 19q75 0 121.5 -25t73.5 -60q26 35 73 60t122 25q59 0 107 -19t82 -55.5t52.5 -90t18.5 -121.5v-535q0 -74 0.5 -125.5t2 -90t4 -67t5.5 -56.5q-13 0 -31 0.5t-37 1t-36.5 0.5h-28.5h-28.5t-37 -0.5t-38 -1
t-31.5 -0.5q3 28 6 56.5t4.5 67t2.5 90t1 125.5v530q0 32 -7 54t-19 35t-27.5 18.5t-31.5 5.5q-35 0 -63.5 -14.5t-50.5 -54.5h-28q-23 40 -50.5 54.5t-62.5 14.5q-17 0 -32.5 -5.5t-27.5 -18.5t-19.5 -35t-7.5 -54v-661z" />
    <glyph glyph-name="uni0E16" unicode="&#xe16;" horiz-adv-x="1088" 
d="M742 795q0 46 -10.5 82t-34.5 61t-62.5 38.5t-93.5 13.5q-75 0 -130.5 -18t-94.5 -44q17 -19 35 -52t18 -87v-557q0 -35 3 -55t9.5 -29.5t16 -12t22.5 -2.5q17 0 32.5 2t37.5 5l-22 -121q-23 -6 -40.5 -10.5t-32 -7.5t-28 -4.5t-27.5 -1.5q-109 0 -161 56t-52 177v581
q0 33 -11.5 58.5t-25.5 42.5q-16 20 -36 35v29q34 29 87 62t117 61t136.5 46.5t146.5 18.5q217 0 331 -95t114 -272v-457v-127t1.5 -86t3.5 -64.5t7 -62.5q-13 0 -31.5 0.5l-37 1t-35.5 0.5h-28h-29t-37.5 -0.5t-38 -1t-31.5 -0.5q4 34 6.5 64t4 67.5t1.5 87v121.5v457z" />
    <glyph glyph-name="uni0E17" unicode="&#xe17;" horiz-adv-x="1074" 
d="M972 339v-127.5t1.5 -86.5t3.5 -65t7 -62q-12 0 -30 0.5t-37.5 1t-37.5 1t-29 0.5t-29 -0.5t-37.5 -1t-38 -1t-30.5 -0.5q4 33 7 62t4 65t1.5 86.5t0.5 127.5v463q0 94 -33.5 137t-105.5 43q-46 0 -86 -17t-70.5 -48t-49.5 -75.5t-23 -99.5h-84l-12 92q18 69 50.5 128
t80 102t108.5 67.5t136 24.5q91 0 154.5 -25t103 -72.5t57.5 -117t18 -158.5v-444zM360 339v-127.5t1.5 -86.5t3.5 -65t7 -62q-12 0 -30 0.5t-37 1t-37 1t-29 0.5t-29 -0.5t-37.5 -1t-38 -1t-30.5 -0.5q4 33 6.5 62t4 65t1.5 86.5v127.5v464v121.5t-1.5 87t-4 67.5t-6.5 64
q13 0 31.5 -0.5t38 -1t37.5 -0.5h29h28t35.5 0.5t36.5 1t31 0.5q-4 -36 -6 -65t-3 -64.5t-1.5 -85t-0.5 -125.5v-464z" />
    <glyph glyph-name="uni0E18" unicode="&#xe18;" horiz-adv-x="961" 
d="M338 177q13 -2 28.5 -4t31.5 -3.5t32 -2.5t29 -1q59 0 93.5 20.5t52.5 51t23.5 66.5t5.5 68q0 51 -9 86.5t-28.5 58.5t-50.5 35t-74 16q-87 9 -160.5 27t-127 51.5t-83.5 85t-30 127.5t31.5 132t88 93t133.5 54.5t169 17.5q49 0 100.5 -8.5t99.5 -23t90.5 -34.5t74.5 -44
q-10 -20 -24.5 -42.5t-29 -46.5t-27 -48t-19.5 -46h-24q-11 27 -36 50t-59.5 39t-75 25t-80.5 9q-76 0 -123 -27t-47 -88q0 -28 7.5 -47t28.5 -32.5t57.5 -22.5t95.5 -16q93 -12 164 -38t119.5 -70t73 -108.5t24.5 -153.5q0 -46 -5.5 -93.5t-21.5 -92t-45.5 -83t-78 -67
t-118 -45t-166.5 -16.5q-71 0 -135 8.5t-123 18.5q-8 1 -21 3.5t-27 4.5t-27 4.5t-21 3.5v145v125.5t-1.5 83t-4 62t-6.5 60.5q12 0 30 -0.5t37 -1t37 -1t29 -0.5t29 0.5t37.5 1t38 1t30.5 0.5q-5 -33 -7 -60t-3.5 -60.5t-1.5 -82v-125.5z" />
    <glyph glyph-name="uni0E19" unicode="&#xe19;" horiz-adv-x="1070" 
d="M106 803v127.5t-1.5 86.5t-4 65t-6.5 62q12 0 30.5 -0.5t38 -1t37.5 -0.5h29h29t37.5 0.5t37.5 1t30 0.5q-5 -33 -7.5 -62t-3.5 -65t-1.5 -86.5t-0.5 -127.5v-443q0 -99 34 -149.5t111 -50.5q46 0 86 17t70.5 48t49.5 75.5t23 99.5h64l12 -92q-15 -62 -40.5 -120
t-66.5 -103t-100.5 -72t-141.5 -27q-91 0 -156.5 26.5t-107.5 76t-61.5 120.5t-19.5 160v434zM724 803v127.5t-1.5 86.5t-4 65t-6.5 62q12 0 30.5 -0.5t38 -1t37.5 -0.5h29h29t37 0.5t37 1t30 0.5q-5 -33 -7 -62t-3.5 -65t-1.5 -86.5v-127.5v-464v-121.5t1.5 -87t3.5 -67.5
t7 -64q-13 0 -31.5 0.5t-37.5 1t-36.5 0.5h-28.5h-28t-36 -0.5t-37.5 -1t-31.5 -0.5q4 36 6 65t3 64.5t1.5 84.5t0.5 126v464z" />
    <glyph glyph-name="uni0E1A" unicode="&#xe1a;" horiz-adv-x="1073" 
d="M983 1144q-5 -33 -7 -62t-3.5 -65t-1.5 -86.5v-127.5v-459q0 -77 -27 -142.5t-81 -113.5t-135 -75t-189 -27t-189 27t-135.5 75t-81.5 113.5t-27 142.5v459v127.5t-1.5 86.5t-4 65t-6.5 62q12 0 30.5 -0.5t38 -1t37.5 -0.5h29h29t37.5 0.5t38 1t30.5 0.5q-5 -33 -7 -62
t-3.5 -65t-1.5 -86.5v-127.5v-459q0 -87 46.5 -137.5t140.5 -50.5t140.5 50.5t46.5 137.5v459q0 77 -0.5 127.5t-1.5 86.5t-4 65t-7 62q12 0 30.5 -0.5t38 -1t37.5 -0.5h29h29t37.5 0.5t38 1t30.5 0.5z" />
    <glyph glyph-name="uni0E1B" unicode="&#xe1b;" horiz-adv-x="1073" 
d="M983 1520q-5 -33 -7 -62t-3.5 -65t-1.5 -86.5v-127.5v-835q0 -77 -27 -142.5t-81 -113.5t-135 -75t-189 -27t-189 27t-135.5 75t-81.5 113.5t-27 142.5v459v127.5t-1.5 86.5t-4 65t-6.5 62q12 0 30.5 -0.5t38 -1t37.5 -0.5h29h29t37.5 0.5t38 1t30.5 0.5q-5 -33 -7 -62
t-3.5 -65t-1.5 -86.5v-127.5v-459q0 -87 46.5 -137.5t140.5 -50.5t140.5 50.5t46.5 137.5v835q0 77 -0.5 127.5t-1.5 86.5t-4 65t-7 62q12 0 30.5 -0.5t38 -1t37.5 -0.5h29h29t37.5 0.5t38 1t30.5 0.5z" />
    <glyph glyph-name="uni0E1C" unicode="&#xe1c;" horiz-adv-x="1157" 
d="M811 803v127.5t-1.5 86.5t-4 65t-6.5 62q12 0 30 -0.5t37.5 -1t37.5 -0.5h29h29t37.5 0.5t37.5 1t30 0.5q-5 -33 -7 -62t-3.5 -65t-1.5 -86.5v-127.5v-805q-8 0 -23.5 0.5t-32.5 1t-33.5 1t-26.5 0.5t-24 -0.5t-28.5 -1t-28 -1t-21.5 -0.5l-242 399l-249 -399
q-9 0 -22 0.5t-27 1t-27.5 1t-23.5 0.5q-9 0 -25 -0.5t-32.5 -1t-31.5 -1t-24 -0.5v939q0 100 51.5 152t160.5 52q29 0 62.5 -5.5t78.5 -18.5l8 -129q-20 7 -38 11t-38 4q-8 0 -16 -2.5t-14 -9t-10 -19.5t-4 -34v-543l149 262q37 -2 66 -2.5t69 2.5l153 -265v411z" />
    <glyph glyph-name="uni0E1D" unicode="&#xe1d;" horiz-adv-x="1157" 
d="M1055 -2q-8 0 -23.5 0.5t-32.5 1t-33.5 1t-26.5 0.5t-24 -0.5t-28.5 -1t-28 -1t-21.5 -0.5l-242 399l-249 -399q-9 0 -22 0.5t-27 1t-27.5 1t-23.5 0.5q-9 0 -25 -0.5t-32.5 -1t-31.5 -1t-24 -0.5v939q0 100 51.5 152t160.5 52q29 0 62.5 -5.5t78.5 -18.5l8 -129
q-20 7 -38 11t-38 4q-8 0 -16 -2.5t-14 -9t-10 -19.5t-4 -34v-543l149 262q37 -2 66 -2.5t69 2.5l153 -265v780v127.5t-1.5 86.5t-4 65t-6.5 62q12 0 30 -0.5t37.5 -1t37.5 -0.5h29h29t37.5 0.5t37.5 1t30 0.5q-5 -33 -7 -62t-3.5 -65t-1.5 -86.5v-127.5v-1174z" />
    <glyph glyph-name="uni0E1E" unicode="&#xe1e;" horiz-adv-x="1204" 
d="M415 -2q-8 0 -21.5 1t-29 1.5t-32.5 1t-32 0.5q-31 0 -63 -1.5t-49 -2.5q-32 266 -59 495q-12 97 -24 196.5t-22.5 187t-19 157t-13.5 108.5q13 0 31 -0.5t37 -1t35.5 -1t25.5 -0.5t24.5 0.5t33 1t34.5 1t30 0.5q4 -62 11 -150.5t16 -186t18 -193.5t17 -172l164 513
q17 -2 36.5 -2.5t39.5 -0.5q43 0 76 3l162 -510q7 76 16 172t18 192.5t17 185t12 149.5q13 0 30 -0.5l34 -1t32.5 -1t24.5 -0.5t25.5 0.5t35.5 1t37 1t31 0.5q-5 -39 -13.5 -108.5t-19 -157t-22 -187t-23.5 -196.5q-27 -229 -59 -495q-17 1 -49.5 2.5t-62.5 1.5
q-32 0 -65 -1.5t-50 -2.5l-188 581z" />
    <glyph glyph-name="uni0E1F" unicode="&#xe1f;" horiz-adv-x="1204" 
d="M415 -2q-8 0 -21.5 1t-29 1.5t-32.5 1t-32 0.5q-31 0 -63 -1.5t-49 -2.5q-32 266 -59 495q-12 97 -24 196.5t-22.5 187t-19 157t-13.5 108.5q13 0 31 -0.5t37 -1t35.5 -1t25.5 -0.5t24.5 0.5t33 1t34.5 1t30 0.5q4 -62 11 -150.5t16 -186t18 -193.5t17 -172l164 513
q17 -2 36.5 -2.5t39.5 -0.5q43 0 76 3l162 -510q4 38 9 96.5t11 130t12.5 151.5t13.5 161t13 159.5t11.5 146t9.5 120t6 83.5q26 -1 56.5 -2t64.5 -1t67 1t59 2q-3 -26 -8.5 -72.5t-12 -109t-14.5 -138t-17 -158.5t-18 -170.5t-18 -174.5q-32 -306 -69 -670q-17 1 -49.5 2.5
t-62.5 1.5q-32 0 -65 -1.5t-50 -2.5l-188 581z" />
    <glyph glyph-name="uni0E20" unicode="&#xe20;" horiz-adv-x="1101" 
d="M755 795q0 92 -52 143.5t-163 51.5q-74 0 -125 -17.5t-86 -42.5q9 -9 20 -22t20.5 -30.5t15.5 -39.5t6 -49v-561q0 -121 -50 -177t-159 -56q-29 0 -61 4t-77 17l-14 125q17 -3 36.5 -5.5t30.5 -2.5t20 2.5t16 11.5t10.5 25.5t3.5 43.5v582q0 33 -13 58.5t-29 42.5
q-18 20 -42 36v27q25 30 75 65t114.5 65t139 50t148.5 20q107 0 192 -24.5t144.5 -71.5t91 -115t31.5 -156v-457v-127t1.5 -86t3.5 -64.5t7 -62.5q-13 0 -31.5 0.5l-37 1t-35.5 0.5h-28h-29t-37.5 -0.5t-38 -1t-31.5 -0.5q4 34 6.5 64t4 67.5t1.5 87v121.5v457z" />
    <glyph glyph-name="uni0E21" unicode="&#xe21;" horiz-adv-x="1070" 
d="M968 359q0 -178 -86.5 -275.5t-268.5 -97.5q-72 0 -129 27t-99 72t-70 103t-43 120l12 92h82q4 -55 22 -99.5t47.5 -75.5t68.5 -48t85 -17q72 0 103.5 43t31.5 137v463q0 77 -0.5 127.5t-1.5 86.5t-4 65t-7 62q12 0 30.5 -0.5t38 -1t37.5 -0.5h29h29t37.5 0.5t37.5 1
t30 0.5q-5 -33 -7 -62t-3.5 -65t-1.5 -86.5v-127.5v-444zM366 339q0 -77 0.5 -126t1.5 -84.5t3 -64.5t6 -65q-13 0 -31 0.5t-36.5 1t-35.5 0.5h-28h-29t-37.5 -0.5t-38 -1t-31.5 -0.5q4 34 6.5 64t4 67.5t1.5 87v121.5v464v127.5t-1.5 86.5t-4 65t-6.5 62q12 0 30.5 -0.5
t38 -1t37.5 -0.5h29h29t37 0.5t37 1t30 0.5q-5 -33 -7 -62t-3.5 -65t-1.5 -86.5v-127.5v-464z" />
    <glyph glyph-name="uni0E22" unicode="&#xe22;" horiz-adv-x="1046" 
d="M700 803q0 77 -0.5 127.5t-1.5 86.5t-4 65t-7 62q12 0 30 -0.5t37.5 -1t37.5 -0.5h29h29t37.5 0.5t38 1t30.5 0.5q-5 -33 -7 -62t-3.5 -65t-1.5 -86.5v-127.5v-459q0 -80 -26.5 -145.5t-79.5 -113t-133 -73.5t-187 -26q-108 0 -189 27.5t-135 76t-81.5 114t-27.5 142.5
v37q0 50 15 92t40 74.5t57.5 55.5t67.5 36v2q-32 10 -62.5 30.5t-54.5 51t-39 71t-15 91.5q0 64 22.5 115t64.5 86.5t102.5 54t137.5 18.5q48 0 92 -11t81 -31q-26 -55 -43 -97t-20 -54h-26q-14 16 -31 24.5t-45 8.5q-42 0 -65.5 -32.5t-23.5 -94.5q0 -84 37.5 -120
t106.5 -36h24t30 1q17 1 36 2q0 -6 -0.5 -17.5t-1 -23.5t-1 -23t-0.5 -17t0.5 -17t1 -24t1 -24t0.5 -17l-30 2q-14 1 -29.5 1.5t-29.5 0.5q-72 0 -113 -40.5t-41 -137.5v-38q0 -102 46.5 -146t140.5 -44t138 43.5t44 144.5v459z" />
    <glyph glyph-name="uni0E23" unicode="&#xe23;" horiz-adv-x="893" 
d="M411 156q43 0 74 12.5t51 35t30 53.5t10 68q0 41 -16 68.5t-42 46t-60 31t-70 24.5q-58 19 -113 46.5t-97.5 68t-68 96t-25.5 129.5q0 69 30.5 128t84 102.5t127.5 68t161 24.5q48 0 94.5 -8.5t88.5 -22.5t76.5 -32t57.5 -36q-18 -36 -31.5 -59.5t-23 -41t-17 -33
t-14.5 -36.5h-31q-9 23 -27.5 41.5t-44 31t-56.5 19.5t-65 7q-84 0 -127 -40t-43 -102q0 -47 17 -77.5t45 -51t64 -34t74 -25.5q52 -17 104.5 -37.5t94.5 -55t68.5 -87.5t26.5 -135q0 -89 -30 -156t-85 -111.5t-132 -67t-171 -22.5q-48 0 -95.5 9.5t-90.5 25.5t-81 37
t-68 45q18 31 32.5 55.5t26 45t20 38.5t13.5 36h28q17 -26 38.5 -48t49 -38.5t61.5 -26t77 -9.5z" />
    <glyph glyph-name="uni0E24" unicode="&#xe24;" horiz-adv-x="1088" 
d="M742 795q0 46 -10.5 82t-34.5 61t-62.5 38.5t-93.5 13.5q-75 0 -130.5 -18t-94.5 -44q17 -19 35 -52t18 -87v-557q0 -35 3 -55t9.5 -29.5t16 -12t22.5 -2.5q17 0 32.5 2t37.5 5l-22 -121q-23 -6 -40.5 -10.5t-32 -7.5t-28 -4.5t-27.5 -1.5q-109 0 -161 56t-52 177v581
q0 33 -11.5 58.5t-25.5 42.5q-16 20 -36 35v29q34 29 87 62t117 61t136.5 46.5t146.5 18.5q217 0 331 -95t114 -272v-770v-127t1.5 -86t3.5 -64.5t7 -62.5q-13 0 -31.5 0.5l-37 1t-35.5 0.5h-28h-29t-37.5 -0.5t-38 -1t-31.5 -0.5q4 34 6.5 64t4 67.5t1.5 87v121.5v770z" />
    <glyph glyph-name="uni0E25" unicode="&#xe25;" horiz-adv-x="1017" 
d="M671 508h-133q-114 0 -166 -46.5t-52 -134.5q0 -87 21 -129t71 -42q32 0 51 11t32 28h28q2 -13 6 -26t10.5 -30.5t17 -42t24.5 -61.5q-22 -12 -41.5 -21t-41.5 -16t-49 -10.5t-63 -3.5q-78 0 -137 24.5t-99 68t-60 104.5t-20 133q0 85 30.5 152.5t90.5 114.5t149 72.5
t207 25.5h124v122q0 95 -44.5 140t-142.5 45q-59 0 -102.5 -8t-76 -21.5t-55.5 -30.5t-41 -35h-34q-3 14 -7.5 28.5t-12 34t-18 46t-24.5 64.5q30 16 71.5 33t89.5 30.5t100.5 22.5t106.5 9q223 0 328.5 -92.5t105.5 -292.5v-435v-127t1.5 -86t3.5 -64.5t7 -62.5
q-13 0 -31.5 0.5t-37.5 1t-36 0.5h-28h-29t-37 -0.5t-37.5 -1t-31.5 -0.5q4 34 6.5 64t4 67.5t1.5 87v121.5v169z" />
    <glyph glyph-name="uni0E26" unicode="&#xe26;" horiz-adv-x="1101" 
d="M755 795q0 92 -52 143.5t-163 51.5q-74 0 -125 -17.5t-86 -42.5q9 -9 20 -22t20.5 -30.5t15.5 -39.5t6 -49v-561q0 -121 -50 -177t-159 -56q-29 0 -61 4t-77 17l-14 125q17 -3 36.5 -5.5t30.5 -2.5t20 2.5t16 11.5t10.5 25.5t3.5 43.5v582q0 33 -13 58.5t-29 42.5
q-18 20 -42 36v27q25 30 75 65t114.5 65t139 50t148.5 20q107 0 192 -24.5t144.5 -71.5t91 -115t31.5 -156v-770v-127t1.5 -86t3.5 -64.5t7 -62.5q-13 0 -31.5 0.5l-37 1t-35.5 0.5h-28h-29t-37.5 -0.5t-38 -1t-31.5 -0.5q4 34 6.5 64t4 67.5t1.5 87v121.5v770z" />
    <glyph glyph-name="uni0E27" unicode="&#xe27;" horiz-adv-x="915" 
d="M359 156q59 0 101 20t69 66t39.5 122t12.5 188q0 127 -14.5 211t-41.5 134t-66.5 70t-89.5 20q-41 0 -75 -8t-62 -21t-50 -29.5t-37 -34.5h-29q-8 35 -28.5 79.5t-40.5 92.5q27 16 62.5 32.5t77.5 29.5t89 21t97 8q121 0 208.5 -34.5t143 -105t82 -177t26.5 -251.5
q0 -164 -28 -278.5t-86.5 -186.5t-149 -105t-214.5 -33q-34 0 -69.5 5.5t-68.5 14.5t-62.5 21t-51.5 25q26 63 38.5 99.5t17.5 62.5h28q7 -9 25 -19t42 -19t51.5 -14.5t53.5 -5.5z" />
    <glyph glyph-name="uni0E28" unicode="&#xe28;" horiz-adv-x="1114" 
d="M1025 -1q-13 0 -31 0.5t-37 1t-36.5 0.5h-28.5h-28.5t-36.5 -0.5t-37.5 -1t-31.5 -0.5q3 28 5.5 56.5t4 67t2.5 90t1 125.5v436q0 100 -51 157t-154 57q-100 0 -154 -57t-54 -157v-237l3 -2q36 60 88.5 95.5t126.5 35.5q22 0 47 -5t49 -21q-9 -19 -14 -45t-8 -53.5
t-3.5 -55.5t-0.5 -50l-23 -16q-15 17 -36.5 26.5t-54.5 9.5q-81 0 -127.5 -47t-46.5 -144q0 -66 2 -136t10 -130q-10 0 -26 0.5t-34 1t-36.5 1t-33.5 0.5q-14 0 -33 -0.5t-38.5 -1t-37 -1t-27.5 -0.5q3 28 5.5 56.5t4 67t2 90t0.5 125.5v436q0 79 30 149t87 122.5t141 83.5
t192 31q109 0 192.5 -31t140 -83.5t85.5 -123.5t29 -150v-434q0 -74 0.5 -125.5t2 -90t4 -67t5.5 -56.5zM670 1142q45 0 94 8.5t97.5 22t95 31t86.5 36.5l15 -8q-3 -12 -4 -34.5t-2 -50.5t-1 -58.5v-58.5q-36 -8 -77.5 -12.5t-82 -7t-77 -3.5t-60.5 -1z" />
    <glyph glyph-name="uni0E29" unicode="&#xe29;" horiz-adv-x="1086" 
d="M1061 718q0 -5 -0.5 -17t-1 -26.5l-1 -29t-0.5 -23.5q0 -14 0.5 -31.5t3.5 -48.5q-45 1 -86 3q-35 1 -71.5 2t-59.5 1h-48.5t-64 -0.5t-70.5 -1t-67.5 -1.5t-56 -1.5t-35.5 -1.5v12.5t0.5 24t0.5 27.5v24v24.5t-0.5 28.5t-0.5 24.5v13.5q6 -1 38 -2.5t80 -3t106.5 -2.5
t117.5 -1zM983 1144q-5 -33 -7 -62t-3.5 -65t-1.5 -86.5v-127.5v-459q0 -77 -27 -142.5t-81 -113.5t-135 -75t-189 -27t-189 27t-135.5 75t-81.5 113.5t-27 142.5v459v127.5t-1.5 86.5t-4 65t-6.5 62q12 0 30.5 -0.5t38 -1t37.5 -0.5h29h29t37.5 0.5t38 1t30.5 0.5
q-5 -33 -7 -62t-3.5 -65t-1.5 -86.5v-127.5v-459q0 -87 46.5 -137.5t140.5 -50.5t140.5 50.5t46.5 137.5v459q0 77 -0.5 127.5t-1.5 86.5t-4 65t-7 62q12 0 30.5 -0.5t38 -1t37.5 -0.5h29h29t37.5 0.5t38 1t30.5 0.5z" />
    <glyph glyph-name="uni0E2A" unicode="&#xe2a;" horiz-adv-x="1050" 
d="M598 1142q45 0 94 8.5t97.5 22t95 31t86.5 36.5l15 -8q-3 -12 -4 -34.5t-2 -50.5t-1 -58.5v-58.5q-36 -8 -77.5 -12.5t-82 -7t-77 -3.5t-60.5 -1zM671 508h-133q-114 0 -166 -46.5t-52 -134.5q0 -87 21.5 -129t71.5 -42q32 0 51 11t32 28h28q2 -13 6 -26t10.5 -30.5
t17 -42t24.5 -61.5q-22 -12 -41.5 -21t-42 -16t-49.5 -10.5t-63 -3.5q-78 0 -137 24.5t-99 68t-60 104.5t-20 133q0 85 30.5 152.5t90.5 114.5t149 72.5t207 25.5h124v122q0 95 -44.5 140t-142.5 45q-59 0 -102.5 -8t-76 -21.5t-55.5 -30.5t-41 -35h-34q-3 14 -7.5 28.5
t-12 34t-18 46t-24.5 64.5q30 16 71.5 33t89.5 30.5t100.5 22.5t106.5 9q223 0 328.5 -92.5t105.5 -292.5v-435v-127t1.5 -86t3.5 -64.5t7 -62.5q-13 0 -31.5 0.5t-37.5 1t-36 0.5h-28h-29t-37 -0.5t-37.5 -1t-31.5 -0.5q4 34 6.5 64t4 67.5t1.5 87v121.5v169z" />
    <glyph glyph-name="uni0E2B" unicode="&#xe2b;" horiz-adv-x="1080" 
d="M364 339v-127.5t1.5 -86.5t3.5 -65t7 -62q-12 0 -28.5 0.5t-34 1t-33.5 1t-27 0.5t-29 -0.5t-37 -1t-37 -1t-30 -0.5q4 33 6.5 62t4 65t1.5 86.5v127.5v325q0 64 -0.5 123t-2 116.5t-3.5 116.5t-6 124q13 0 30.5 -0.5t36.5 -1t36 -0.5h29h28t33 0.5t33.5 1t29.5 0.5
q-8 -91 -10 -175t-2 -153q0 -10 7.5 -13t15.5 5q78 85 161.5 169.5t158.5 165.5q30 0 52 -0.5t39.5 -1t31 -0.5h26.5h29.5t43.5 0.5t43 1t28 0.5l-619 -615q-9 -9 -13 -18t-4 -34v-137zM726 501q0 92 -43.5 134t-117.5 42q-17 0 -29 -1.5t-23.5 -4t-23.5 -6.5t-28 -10l8 144
q42 14 83 22t78 8q79 0 142.5 -22t107 -64.5t67 -105.5t23.5 -144v-154v-127.5t1.5 -86.5t3.5 -65t7 -62q-12 0 -30 0.5t-37.5 1t-37.5 1t-29 0.5t-29 -0.5t-37.5 -1t-37.5 -1t-30 -0.5q4 33 6.5 62t4 65t1.5 86.5v127.5v162z" />
    <glyph glyph-name="uni0E2C" unicode="&#xe2c;" horiz-adv-x="1215" 
d="M941 1060q72 -21 116 -79t44 -158q0 -89 -12 -192t-27 -211t-29 -216t-18 -207q-13 1 -30 2.5t-35 2t-35 1t-30 0.5q-24 0 -54.5 -1.5t-56.5 -4.5q-14 58 -35 122.5t-45 130.5t-48.5 131.5t-45.5 125.5q-24 -60 -49.5 -125t-50 -131t-47 -130.5t-40.5 -123.5q-26 2 -58 4
t-58 2q-12 0 -28.5 -0.5t-33.5 -1.5t-33.5 -2t-27.5 -2q-6 102 -17 232.5t-26 279t-32 309.5t-35 324q11 0 28.5 -0.5t36 -1t36 -0.5h28.5h28t35.5 0.5t36 1t29.5 0.5q6 -114 12 -209t12 -182t13 -173t15 -182q24 59 45 110.5t39.5 98t34.5 90t31 88.5q21 -2 42 -2.5
t40 -0.5q20 0 41.5 0.5t44.5 2.5q31 -106 68.5 -198.5t72.5 -184.5q4 49 9 107t10 114.5t8.5 107.5t3.5 86q0 42 -9.5 71.5t-26 48t-40.5 26.5t-52 8q-19 0 -39 -1t-53 -3q2 27 2.5 51t0.5 36v87q81 1 130 7.5t75.5 25t35 51.5t8.5 86q0 6 -0.5 11.5t-0.5 10.5q-1 5 -1 11
q10 0 27 -0.5t35.5 -1t37.5 -1t34 -0.5h35.5t36 0.5t32 1t23.5 0.5q0 -48 -15.5 -92t-43.5 -80.5t-67.5 -64t-87.5 -41.5v-3z" />
    <glyph glyph-name="uni0E2D" unicode="&#xe2d;" horiz-adv-x="985" 
d="M340 177q32 -13 63.5 -18t57.5 -5q49 0 87 16t64.5 62.5t40 129.5t13.5 217q0 126 -16 205.5t-46.5 124.5t-75 61.5t-100.5 16.5q-41 0 -81 -7.5t-74.5 -20.5t-63 -30t-47.5 -36h-31q-2 11 -4.5 21.5t-8.5 28t-16.5 46t-28.5 75.5q28 15 70 31.5t89.5 29.5t97.5 21.5
t94 8.5q122 0 213.5 -30.5t152.5 -98t91.5 -175t30.5 -262.5q0 -169 -28.5 -284t-85.5 -186t-142.5 -102t-200.5 -31q-46 0 -97 9t-100.5 23.5t-93 31.5t-74.5 32q3 25 5 49.5t3.5 51.5t2 57.5t0.5 68.5v86t-1 68t-3 73t-5 102h407q-2 -19 -2.5 -30t-1 -19.5t-0.5 -16.5v-21
q0 -22 1 -42.5t3 -51.5q-45 6 -82.5 7.5t-72.5 2.5q-2 -20 -3 -61.5t-1 -116.5v-112z" />
    <glyph glyph-name="uni0E2E" unicode="&#xe2e;" horiz-adv-x="985" 
d="M340 177q32 -13 68 -18t62 -5q47 0 83.5 16t61.5 62.5t38 129.5t13 217q0 126 -16 205.5t-46.5 124.5t-75 61.5t-100.5 16.5q-41 0 -81 -7.5t-74.5 -20.5t-63 -30t-47.5 -36h-31q-2 11 -4.5 21.5t-8.5 28t-16.5 46t-28.5 75.5q28 15 71 31.5t91 29.5t97.5 21.5t91.5 8.5
q122 0 213.5 -30.5t152.5 -98t91.5 -175t30.5 -262.5q0 -170 -25 -285.5t-79 -186t-139 -101t-205 -30.5q-43 0 -95 9t-103.5 23.5t-98 31.5t-77.5 32q3 25 5 49.5t3.5 51.5t2 57.5t0.5 68.5v86t-1 68t-3 73t-5 102h407q-2 -19 -2.5 -30t-1 -19.5t-0.5 -16.5v-21
q0 -22 1 -42.5t3 -51.5q-45 6 -82.5 7.5t-72.5 2.5q-2 -20 -3 -61.5t-1 -116.5v-112zM550 1142q45 0 94 8.5t97.5 22t95 31t86.5 36.5l15 -8q-3 -12 -4 -34.5t-2 -50.5t-1 -58.5v-58.5q-36 -8 -77.5 -12.5t-82 -7t-77 -3.5t-60.5 -1z" />
    <glyph glyph-name="uni0E2F" unicode="&#xe2f;" horiz-adv-x="840" 
d="M459 871q-17 -15 -41.5 -28.5t-54 -23.5t-61.5 -16t-63 -6q-44 0 -80.5 13.5t-62.5 38.5t-41 60.5t-15 79.5q0 21 2.5 43.5t6.5 43.5t9.5 39t11.5 29h230q-15 -27 -25 -61.5t-10 -72.5q0 -29 12.5 -41t33.5 -12q40 0 75.5 16.5t66.5 42.5t57 59.5t46 68.5h146v-806
q0 -77 0.5 -126t2 -84t5 -64t10.5 -65q-13 0 -32 0.5t-39 1t-38.5 0.5h-29.5h-29t-38 -0.5t-39.5 -1t-32.5 -0.5q6 35 9.5 65t5 66t2 85t0.5 123v533z" />
    <glyph glyph-name="uni0E30" unicode="&#xe30;" horiz-adv-x="740" 
d="M331 949q-8 -15 -14 -36t-6 -32q0 -17 6.5 -25.5t26.5 -9.5q26 -1 48.5 -1h50.5q60 0 107 4t88 15l12 -8q-30 -81 -44 -123t-21 -57q-31 -3 -57 -5.5t-50.5 -4t-51 -2.5t-59.5 -1q-45 0 -93.5 3t-89.5 19t-67.5 50t-26.5 95q0 28 6.5 58t25.5 62q29 -2 54.5 -2h49.5h22
h32t31.5 0.5t19.5 0.5zM331 403q-8 -15 -14 -36t-6 -32q0 -17 6.5 -25.5t26.5 -9.5q26 -1 48.5 -1h50.5q60 0 107 4t88 15l12 -8q-30 -81 -44 -123t-21 -57q-31 -3 -57 -5.5t-50.5 -4t-51 -2.5t-59.5 -1q-45 0 -93.5 3t-89.5 19t-67.5 50t-26.5 95q0 28 6.5 58t25.5 62
q29 -2 54.5 -2h49.5h22h32t31.5 0.5t19.5 0.5z" />
    <glyph glyph-name="uni0E31" unicode="&#xe31;" 
d="M-428 1582q-9 -22 -14 -38.5t-5 -28.5q0 -20 15.5 -26.5t42.5 -6.5q21 0 37 -0.5t31 -1t30.5 -0.5h34.5q40 0 88.5 0.5t97.5 2t95.5 4t84.5 7.5l4 -4q-5 -11 -12.5 -33.5t-16 -47.5t-16.5 -48t-12 -35q-25 -3 -65 -4.5t-85 -3t-88.5 -2t-74.5 -0.5h-67t-70.5 1t-64.5 3
t-50 5q-61 11 -100 51t-39 98q0 32 8 61t22 49q13 -1 37.5 -2t52.5 -1.5t55 0t44 1.5z" />
    <glyph glyph-name="uni0E32" unicode="&#xe32;" horiz-adv-x="800" 
d="M691 339q0 -77 0.5 -125.5t2 -83.5t5.5 -64.5t11 -66.5q-13 0 -32.5 0.5t-39.5 1t-38.5 0.5h-28.5h-30t-40 -0.5t-41 -1t-33 -0.5q7 37 11.5 68t6 67t2 84.5t0.5 120.5v479q0 46 -12 79t-32 53t-46.5 29.5t-56.5 9.5q-38 0 -68 -7t-54 -18.5t-42.5 -26.5t-32.5 -31h-31
q-3 27 -18.5 67.5t-53.5 105.5q26 15 60.5 29.5t74 26t81 18t82.5 6.5q193 0 293 -83.5t100 -260.5v-476z" />
    <glyph glyph-name="uni0E33" unicode="&#xe33;" horiz-adv-x="800" 
d="M691 339q0 -77 0.5 -125.5t2 -83.5t5.5 -64.5t11 -66.5q-13 0 -32.5 0.5t-39.5 1t-38.5 0.5h-28.5h-30t-40 -0.5t-41 -1t-33 -0.5q7 37 11.5 68t6 67t2 84.5t0.5 120.5v479q0 46 -12 79t-32 53t-46.5 29.5t-56.5 9.5q-38 0 -68 -7t-54 -18.5t-42.5 -26.5t-32.5 -31h-31
q-3 27 -18.5 67.5t-53.5 105.5q26 15 60.5 29.5t74 26t81 18t82.5 6.5q193 0 293 -83.5t100 -260.5v-476zM-219 1374q37 0 52.5 21.5t15.5 50.5q0 32 -15.5 52t-52.5 20t-52.5 -20t-15.5 -52q0 -29 15.5 -50.5t52.5 -21.5zM-219 1250q-45 0 -83 13t-65.5 37.5t-43.5 61
t-16 84.5q0 47 16 83.5t43.5 61.5t65.5 38t83 13t83 -13t65.5 -38t43.5 -61.5t16 -83.5q0 -48 -16 -84.5t-43.5 -61t-65.5 -37.5t-83 -13z" />
    <glyph glyph-name="uni0E34" unicode="&#xe34;" 
d="M-219 1328q-26 0 -63 0.5t-76.5 0.5t-79 0.5t-69.5 0.5q-25 0 -66 -0.5t-85 -1.5t-85 -1.5t-65 -0.5q-38 0 -65 -2t-47 -8l-3 4q7 17 15.5 39.5t17.5 45t16 43t11 32.5q24 3 71 4.5t100.5 3t104 2t80.5 0.5q42 0 90.5 -0.5t98.5 -1t98.5 -2t91.5 -3.5q-1 -6 -1.5 -18.5
t-1 -27t-0.5 -27v-18.5t0.5 -15t1 -19.5t1 -19.5t1.5 -15q-17 1 -33 2q-14 1 -29.5 2t-29.5 1z" />
    <glyph glyph-name="uni0E35" unicode="&#xe35;" 
d="M-311 1455q0 25 -0.5 41.5t-1 32.5t-0.5 34v46q11 -2 36.5 -2.5t53 -0.5t53 0.5t36.5 2.5v-286q-20 1 -39 2q-17 1 -35 2t-32 1q-27 0 -64 0.5t-77 0.5t-79 0.5t-71 0.5q-26 0 -62 -0.5t-74.5 -1.5t-74.5 -1.5t-61 -0.5q-41 0 -69 -2t-49 -8l-3 4q7 18 16 40.5t18 44.5
t16.5 41.5t11.5 32.5q25 3 68 5t91 3.5t94 2t78 0.5q58 0 119.5 -0.5t119.5 -2.5z" />
    <glyph glyph-name="uni0E36" unicode="&#xe36;" 
d="M-465 1479v10q0 41 13.5 73t37 54t54 33.5t65.5 11.5q36 0 67 -11t54 -32.5t36.5 -54t13.5 -74.5q0 -77 -46.5 -121.5t-124.5 -44.5q-54 0 -113 3.5t-123 3.5q-26 0 -62 -0.5t-74.5 -1.5t-74.5 -1.5t-61 -0.5q-41 0 -69 -2t-49 -8l-3 4q7 18 16 40.5t18 44.5t16.5 41.5
t11.5 32.5q25 3 69.5 5t94.5 3.5t97.5 2t79.5 0.5h72zM-244 1491q0 63 -51 63q-50 0 -50 -63q0 -64 50 -64q51 0 51 64z" />
    <glyph glyph-name="uni0E37" unicode="&#xe37;" 
d="M-294 1475q0 25 -0.5 38.5t-1 25.5t-0.5 27v43q11 -2 32 -2.5t44 -0.5t44 0.5t32 2.5v-286l-34 2q-14 1 -31 2t-31 1q-27 0 -62.5 0.5t-73.5 0.5t-75.5 0.5t-69.5 0.5q-26 0 -63.5 -0.5t-77.5 -1.5t-78 -1.5t-63 -0.5q-41 0 -69 -2t-49 -8l-3 4q7 18 16 40.5t18 44.5
t16.5 41.5t11.5 32.5q25 3 66.5 5t87.5 3.5t90.5 2t76.5 0.5h63.5t69.5 -0.5t69.5 -1t63.5 -1.5zM-351 1481h-146q0 25 -0.5 37.5t-1 23.5t-0.5 25v42q12 -2 32 -2.5t42 -0.5t42.5 0.5t31.5 2.5v-128z" />
    <glyph glyph-name="uni0E38" unicode="&#xe38;" 
d="M-352 -492q0 37 0.5 62.5t0.5 49t0.5 50t0.5 65.5q-7 0 -23 -0.5t-35 -2t-38.5 -3t-34.5 -4.5q1 6 1.5 17.5t0.5 24.5v24.5v17.5v76h339v-377q-11 1 -41.5 2t-64.5 1t-64.5 -1t-41.5 -2z" />
    <glyph glyph-name="uni0E39" unicode="&#xe39;" 
d="M-152 -346q0 -102 -70 -148t-190 -46q-133 0 -194.5 50.5t-61.5 140.5v64q0 22 -7 29.5t-30 7.5q-14 0 -24.5 -2.5t-18.5 -4.5l13 112q31 9 65.5 14t63.5 5q76 0 107 -27t31 -90v-106q0 -35 12.5 -51.5t46.5 -16.5q32 0 44.5 17t12.5 51v104q0 19 -1 39t-2 36
q-2 18 -3 36q19 -1 48 -1.5t59.5 -0.5t58.5 0.5t46 1.5q-2 -18 -3 -36q-2 -16 -2.5 -36t-0.5 -39v-103z" />
    <glyph glyph-name="uni0E3A" unicode="&#xe3a;" 
d="M-371 -220q0 51 33 85.5t92 34.5t92 -34.5t33 -85.5t-33 -85.5t-92 -34.5t-92 34.5t-33 85.5z" />
    <glyph glyph-name="uni0E3F" unicode="&#xe3f;" horiz-adv-x="998" 
d="M726 359q0 116 -66.5 175.5t-186.5 59.5h-152v-483q22 -2 48 -4q22 -2 51 -2.5t62 -0.5q61 0 106.5 13.5t76 43.5t46 78.5t15.5 119.5zM695 930q0 114 -56.5 164.5t-173.5 50.5q-38 0 -65.5 -1.5t-44.5 -3.5q-21 -3 -34 -5v-425h133q60 0 105.5 11.5t75.5 37.5t45 68
t15 103zM133 0q3 16 5 29.5t3.5 33t2 49t1 76.5t0.5 115v165v261v169t-0.5 124t-1 88t-2 61t-3.5 42.5t-5 33.5q59 3 119 6q51 2 109.5 4.5t108.5 2.5q201 0 301.5 -80t100.5 -239q0 -55 -17 -101t-43.5 -81.5t-59 -60t-64.5 -36.5v-3q31 -10 68.5 -28t70.5 -51t55.5 -84
t22.5 -126q0 -102 -27 -175t-79 -119t-128.5 -67.5t-175.5 -21.5q-65 0 -129.5 2t-116.5 4q-61 3 -116 7zM555 1482q-5 -25 -7 -48.5t-3.5 -57t-1.5 -81.5v-121v-1077v-121t1.5 -81.5t3.5 -57t7 -48.5q-25 1 -38.5 1h-25h-25.5t-40 -1q5 25 7.5 48.5t4 57t1.5 81.5v121v1077
v121t-1.5 81.5t-4 57t-7.5 48.5q26 -1 40 -1.5t25.5 -0.5t25 0.5t38.5 1.5z" />
    <glyph glyph-name="uni0E40" unicode="&#xe40;" horiz-adv-x="522" 
d="M116 803v127.5t-1.5 86.5t-4 65t-6.5 62q12 0 30 -0.5t37 -1t37 -0.5h29h29t37 0.5t37 1t30 0.5q-5 -33 -7 -62t-3.5 -65t-1.5 -86.5v-127.5v-547q0 -39 2.5 -63.5t7.5 -37.5t14 -17.5t22 -4.5q21 0 40.5 1.5t44.5 5.5l-22 -121q-46 -13 -77.5 -18.5t-60.5 -5.5
q-109 0 -161 61t-52 182v565z" />
    <glyph glyph-name="uni0E41" unicode="&#xe41;" horiz-adv-x="1015" 
d="M116 803v127.5t-1.5 86.5t-4 65t-6.5 62q12 0 30 -0.5t37 -1t37 -0.5h29h29t37 0.5t37 1t30 0.5q-5 -33 -7 -62t-3.5 -65t-1.5 -86.5v-127.5v-547q0 -39 2.5 -63.5t7.5 -37.5t14 -17.5t22 -4.5q21 0 40.5 1.5t44.5 5.5l-22 -121q-46 -13 -77.5 -18.5t-60.5 -5.5
q-109 0 -161 61t-52 182v565zM593 803v127.5t-1.5 86.5t-4 65t-6.5 62q12 0 30 -0.5t37 -1t37 -0.5h29h29t37 0.5t37 1t30 0.5q-5 -33 -7 -62t-3.5 -65t-1.5 -86.5v-127.5v-547q0 -39 2.5 -63.5t7.5 -37.5t14 -17.5t22 -4.5q21 0 40.5 1.5t44.5 5.5l-22 -121
q-46 -13 -77.5 -18.5t-60.5 -5.5q-109 0 -161 61t-52 182v565z" />
    <glyph glyph-name="uni0E42" unicode="&#xe42;" horiz-adv-x="522" 
d="M358 256q0 -39 2.5 -63.5t7.5 -37.5t14 -17.5t22 -4.5q21 0 40.5 1.5t44.5 5.5l-22 -121q-46 -13 -77.5 -18.5t-60.5 -5.5q-109 0 -161 61t-52 182v883q0 88 -13.5 151t-37.5 109.5t-58.5 80t-76.5 60.5q18 53 54 97t85.5 75.5t110.5 48.5t129 17q101 0 178.5 -27
t134.5 -78q-35 -48 -63 -87.5t-44 -79.5h-26q-29 47 -71 74.5t-105 27.5q-44 0 -81.5 -14t-57.5 -35q43 -25 77 -59t58 -80.5t36.5 -106.5t12.5 -137v-902z" />
    <glyph glyph-name="uni0E43" unicode="&#xe43;" horiz-adv-x="522" 
d="M116 1090q0 53 14 94.5t35.5 75t46 61t46 52.5t35.5 50t14 54q0 42 -29 68.5t-86 26.5q-34 0 -65 -10t-56.5 -26.5t-44 -39t-27.5 -46.5h-36q-7 23 -15.5 41.5t-19.5 37t-24.5 39.5t-29.5 50q29 26 65.5 48.5t79.5 39.5t91 26.5t100 9.5q63 0 121 -16t102.5 -48.5
t71 -80.5t26.5 -111q0 -41 -13 -74t-32 -63t-41.5 -59.5t-41.5 -63.5t-32 -75.5t-13 -94.5v-800q0 -39 2.5 -63.5t7.5 -37.5t14 -17.5t22 -4.5q21 0 40.5 1.5t44.5 5.5l-22 -121q-46 -13 -77.5 -18.5t-60.5 -5.5q-109 0 -161 61t-52 182v852z" />
    <glyph glyph-name="uni0E44" unicode="&#xe44;" horiz-adv-x="522" 
d="M116 1132q0 52 12 104t33.5 99t52 88t66.5 71q-22 -5 -50.5 -8.5t-63.5 -3.5q-89 0 -160 13t-128 50q35 34 59 72t54 92h29q9 -12 36.5 -21.5t60.5 -16.5t65 -10.5t51 -3.5q62 0 121 11.5t116 49.5l129 -124q-57 -43 -101.5 -87t-75.5 -99t-47.5 -124t-16.5 -161v-867
q0 -39 2.5 -63.5t7.5 -37.5t14 -17.5t22 -4.5q21 0 40.5 1.5t44.5 5.5l-22 -121q-46 -13 -77.5 -18.5t-60.5 -5.5q-109 0 -161 61t-52 182v894z" />
    <glyph glyph-name="uni0E45" unicode="&#xe45;" horiz-adv-x="797" 
d="M661 25q0 -77 0.5 -125.5t2 -83.5t5.5 -64.5t11 -66.5q-13 0 -32.5 0.5t-39.5 1t-38.5 0.5h-28.5h-30t-40 -0.5t-41 -1t-33 -0.5q7 37 11.5 68t6 67t2 84.5t0.5 120.5v793q0 93 -36.5 132t-95.5 39q-75 0 -124.5 -25.5t-77.5 -57.5h-31q-2 13 -6 28.5t-11 35.5
t-16.5 46.5t-21.5 62.5q57 31 131 55.5t155 24.5q193 0 285.5 -83.5t92.5 -260.5v-790z" />
    <glyph glyph-name="uni0E46" unicode="&#xe46;" horiz-adv-x="1018" 
d="M634 871q0 37 -12.5 56.5t-29.5 24.5l-96 -76h-18l-111 75q-11 -7 -23.5 -29.5t-12.5 -70.5q0 -56 19 -79.5t50 -23.5q20 0 37.5 2.5t49.5 13.5l-6 -156q-20 -10 -51.5 -19.5t-78.5 -9.5q-60 0 -108.5 20.5t-82 56.5t-51.5 86.5t-18 110.5q0 71 23 125.5t63.5 91t96 55.5
t119.5 19l92 -73l99 73q72 0 126.5 -14.5t91 -47t55.5 -84.5t19 -127v-846q0 -77 0.5 -125.5t2 -83.5t5.5 -64.5t11 -66.5q-13 0 -32 0.5t-39 1t-38.5 0.5h-28.5h-30t-39.5 -0.5t-40.5 -1t-33 -0.5q7 37 11.5 68t6 67t2 84.5t0.5 120.5v846z" />
    <glyph glyph-name="uni0E47" unicode="&#xe47;" 
d="M-326 1417q32 0 68.5 3.5t70.5 13.5q-3 -29 -3 -84q0 -28 0.5 -51.5t2.5 -31.5h-129q-57 0 -100.5 21t-62.5 53q-20 -32 -62.5 -53t-114.5 -21q-48 0 -88 15t-69 43.5t-45.5 68.5t-16.5 90v13q0 45 19 83t53 65.5t82 43.5t105 16q29 0 64 -1.5l70 -3t67.5 -3t56.5 -1.5
q63 0 113 6.5t82 26.5v-177q-13 -4 -28 -7t-35.5 -5.5t-46.5 -3.5t-61 -1q-25 0 -63 1.5t-77.5 4t-74 4t-52.5 1.5q-48 0 -71 -17.5t-23 -43.5v-5q0 -29 20 -46t65 -17q81 0 124 59h12q16 -22 49 -40.5t99 -18.5z" />
    <glyph glyph-name="uni0E48" unicode="&#xe48;" 
d="M-305 1990q25 -1 44.5 -1.5t37.5 -0.5t37.5 0.5t46.5 1.5l-6 -122q-2 -25 -4 -55t-4 -56q-3 -31 -5 -63q-8 1 -26 1.5t-38 0.5t-38.5 -0.5t-25.5 -1.5q-3 32 -6 63q-2 26 -4.5 56t-3.5 55q-2 26 -2.5 38.5t-0.5 22.5t-0.5 22.5t-1.5 38.5z" />
    <glyph glyph-name="uni0E49" unicode="&#xe49;" 
d="M-160 1956v-108q38 0 71 0.5t63.5 1.5t60 3.5t60.5 5.5q0 -9 -0.5 -32t-0.5 -49v-49.5t1 -33.5q-53 3 -99 3.5t-82 0.5h-264q2 3 5 16q2 11 3.5 34t1.5 66h-32.5t-30 -0.5t-34 -1.5t-44.5 -2q1 10 1 31v44t-0.5 43.5t-0.5 29.5q34 -2 53.5 -2.5t31 -0.5h18.5h18h200z" />
    <glyph glyph-name="uni0E4A" unicode="&#xe4a;" 
d="M-184 1742q0 35 -12 46.5t-33 11.5q-23 0 -42.5 -15.5t-32.5 -38.5h-16q-18 27 -36.5 39.5t-41.5 12.5q-20 0 -32.5 -15t-12.5 -41q0 -17 1 -27.5t3 -18.5q2 -9 5 -14h-176q-4 9 -7 22q-3 11 -5 27t-2 37q0 37 12 69.5t36 55.5t58.5 36.5t79.5 13.5t79 -19.5t49 -48.5
q16 28 51.5 48t84.5 20q30 0 57.5 -8t48.5 -24t33.5 -39.5t12.5 -54.5v-8q23 0 41.5 1t36 2.5t35.5 4.5t39 8v-149q-21 1 -46 3q-21 1 -49 2t-57 1h-162v60z" />
    <glyph glyph-name="uni0E4B" unicode="&#xe4b;" 
d="M-320 2073q25 -1 46 -1.5t41 -0.5t41 0.5t48 1.5q0 -38 -0.5 -63.5t-2.5 -54.5q30 0 65.5 0.5t73.5 3.5q0 -4 -0.5 -24t-0.5 -43.5t0.5 -44.5t0.5 -26q-47 3 -84 3.5t-59 0.5q-2 -26 -2.5 -48.5t-1.5 -39.5q-1 -20 -2 -38q-8 1 -29.5 1.5t-45.5 0.5t-46 -0.5t-29 -1.5
q-1 18 -2 38q-1 17 -2.5 39.5t-2.5 48.5q-31 0 -66 -0.5t-76 -3.5q0 4 0.5 24t0.5 43.5t-0.5 44.5t-0.5 26q45 -3 80.5 -3.5t58.5 -0.5q-1 15 -1.5 28t-1 26.5t-0.5 28.5v35z" />
    <glyph glyph-name="uni0E4C" unicode="&#xe4c;" 
d="M-331 1703q-36 0 -48 -10.5t-12 -38.5q0 -16 2 -27t4 -21q-6 1 -19.5 1.5t-29 0.5h-29h-19.5h-19h-27t-26 -0.5t-18 -1.5q-3 11 -5 24q-2 11 -3 25.5t-1 29.5q0 37 11.5 68t36.5 53t62.5 34.5t90.5 12.5h77q49 0 72 0.5t38 3.5l6 -9q-11 -37 -23 -77t-21 -68h-100z" />
    <glyph glyph-name="uni0E4D" unicode="&#xe4d;" 
d="M-229 1374q37 0 52.5 21.5t15.5 50.5q0 32 -15.5 52t-52.5 20t-52.5 -20t-15.5 -52q0 -29 15.5 -50.5t52.5 -21.5zM-229 1250q-45 0 -83 13t-65.5 37.5t-43.5 61t-16 84.5q0 47 16 83.5t43.5 61.5t65.5 38t83 13t83 -13t65.5 -38t43.5 -61.5t16 -83.5q0 -48 -16 -84.5
t-43.5 -61t-65.5 -37.5t-83 -13z" />
    <glyph glyph-name="uni0E4E" unicode="&#xe4e;" horiz-adv-x="1661" 
 />
    <glyph glyph-name="uni0E4F" unicode="&#xe4f;" horiz-adv-x="1208" 
d="M792 525q0 -51 -17.5 -87.5t-45 -60t-61 -34.5t-65.5 -11t-66 11t-61.5 34.5t-45 60t-17.5 87.5q0 56 17 95t44 63.5t61 35.5t68 11t67.5 -11t60.5 -35.5t44 -63.5t17 -95zM605 10q-61 0 -121.5 12.5t-115.5 39t-103 67.5t-83 98.5t-55 131.5t-20 166t20 166.5t55 132
t83 98.5t103 67.5t115.5 39t121.5 12.5t121.5 -12.5t115.5 -39t103 -67.5t83 -98.5t55 -132t20 -166.5t-20 -166t-55 -131.5t-83 -98.5t-103 -67.5t-115.5 -39t-121.5 -12.5zM605 942q-75 0 -143 -24t-120.5 -75t-83.5 -130t-31 -188t31 -187.5t83.5 -129.5t120.5 -75
t143 -24t143 24t120.5 75t83.5 129.5t31 187.5t-31 188t-83.5 130t-120.5 75t-143 24z" />
    <glyph glyph-name="uni0E50" unicode="&#xe50;" horiz-adv-x="1024" 
d="M512 159q51 0 90.5 19.5t66.5 61t41 106t14 155.5q0 99 -13.5 167.5t-40 111t-66 62t-92.5 19.5t-92.5 -19.5t-66 -62t-40 -111t-13.5 -167.5q0 -91 14 -155.5t41 -106t66.5 -61t90.5 -19.5zM512 -13q-89 0 -168.5 22.5t-139.5 82.5t-95 165t-35 269q0 139 33.5 235.5
t92.5 157t139 87.5t173 27t173 -27t139 -87.5t92.5 -157t33.5 -235.5q0 -164 -35 -269t-95 -165t-139.5 -82.5t-168.5 -22.5z" />
    <glyph glyph-name="uni0E51" unicode="&#xe51;" horiz-adv-x="1036" 
d="M415 428v56.5t-1 44.5t-3 37t-5 35q34 -5 63.5 -4.5t55.5 0.5q7 0 21.5 0.5t30.5 1t31.5 2t26.5 3.5q0 -22 -0.5 -43t-1 -43t-1 -47t-0.5 -55v-119q-36 -12 -65.5 -20.5t-56.5 -14.5t-54.5 -8.5t-61.5 -2.5q-76 0 -137 23.5t-103.5 69.5t-65.5 114t-23 156
q0 94 29.5 171.5t87.5 132.5t143 85t196 30q109 0 193 -34t141 -98.5t86.5 -158.5t29.5 -214q0 -146 -37 -248.5t-104.5 -167.5t-161 -94.5t-205.5 -29.5q-48 0 -100.5 7.5t-93.5 18.5l-52 156l5 15q27 -8 58.5 -12.5t64.5 -6.5t64 -2.5t57 -0.5q71 0 123 17.5t86.5 60
t51 112.5t16.5 175q0 89 -13.5 152t-41 103.5t-69 59t-98.5 18.5q-54 0 -96.5 -13.5t-72.5 -43.5t-45.5 -77.5t-15.5 -114.5q0 -54 7.5 -90.5t20.5 -59t31.5 -32t40.5 -9.5h12t12 1v6z" />
    <glyph glyph-name="uni0E52" unicode="&#xe52;" horiz-adv-x="1138" 
d="M587 756q0 -56 26.5 -98t65.5 -62v-29q-16 -2 -39 -9t-49 -17.5t-54 -24t-53 -28.5q-45 48 -71 111.5t-26 147.5q0 64 17 116.5t49 90t77.5 57.5t102.5 20l85 -74l88 74q61 0 110 -14.5t83 -45.5t52.5 -79.5t18.5 -116.5v-415q0 -69 -27 -136t-84 -119t-144 -84t-207 -32
q-127 0 -221 25.5t-155.5 73.5t-91.5 116.5t-30 155.5v493q0 69 -0.5 115.5t-2 81t-5 63.5t-9.5 65q12 0 30 -0.5t37 -1t36 -1t28 -0.5q10 0 27 0.5t36 1t36.5 1t29.5 0.5q-6 -36 -9.5 -63.5t-5 -61.5t-2 -80.5t-0.5 -119.5v-495q0 -43 15.5 -79t48.5 -62.5t84 -41
t122 -14.5q64 0 109 15.5t73.5 42t42 62.5t13.5 77v417q0 33 -13 47.5t-38 22.5l-76 -62l-83 61q-22 -8 -34.5 -29t-12.5 -59z" />
    <glyph glyph-name="uni0E53" unicode="&#xe53;" horiz-adv-x="1168" 
d="M1063 339v-127t1.5 -86t3.5 -64.5t7 -62.5q-13 0 -30 0.5t-34.5 1t-33.5 0.5h-27h-27t-33 -0.5t-33.5 -1t-29.5 -0.5q4 34 6.5 64t4 67.5t1.5 87v121.5v427q0 51 -16 74t-52 23q-33 0 -51 -27.5t-18 -93.5v-403v-127t1.5 -86t3.5 -64.5t7 -62.5q-13 0 -30 0.5l-34 1
t-32.5 0.5h-26.5q-23 0 -59 -0.5t-62 -1.5q4 34 6.5 64t4 67.5t1.5 87v121.5v403q0 68 -25 94.5t-67 26.5q-38 0 -61 -28.5t-23 -82.5v-506q0 -37 2.5 -59.5t8 -34.5t14.5 -15.5t22 -3.5q12 0 23.5 1t31.5 4l-22 -121q-32 -11 -58.5 -16.5t-59.5 -5.5q-94 0 -140 61t-46 182
v506q0 62 17.5 115t53 91.5t90.5 60.5t130 22q83 0 135.5 -29t78.5 -76q26 47 79 76t128 29q73 0 124 -16t83 -51t47 -89.5t15 -130.5v-407z" />
    <glyph glyph-name="uni0E54" unicode="&#xe54;" horiz-adv-x="1030" 
d="M811 0q-75 0 -141.5 27t-116 76.5t-78.5 119t-29 154.5q0 60 17 108.5t48.5 83.5t76 54t98.5 19q46 0 92 -14t79 -36q-15 -28 -24 -53t-14.5 -45t-8 -33.5t-3.5 -17.5h-13q-10 14 -28 25t-38 11q-25 0 -43.5 -25t-18.5 -88q0 -53 13 -90t35.5 -60t52 -33.5t61.5 -10.5
q8 0 25.5 0.5t35.5 1.5q21 1 46 3q-2 -14 -3.5 -34t-2.5 -39.5t-1.5 -35t-0.5 -20.5v-48h-116zM645 1020q35 0 54 18t19 50q0 12 -3.5 34t-17.5 56q12 0 30 -0.5l36 -1t34.5 -1t26.5 -0.5t26 0.5t33.5 1t33.5 1t26 0.5v-60q0 -136 -76 -203t-222 -67h-102q-53 0 -99 -14
t-80 -47.5t-53.5 -89t-19.5 -138.5v-190q0 -55 8.5 -92.5t25 -61t40.5 -33.5t54 -10q45 0 72 19.5t49 51.5l115 -141q-18 -21 -38.5 -41.5t-49 -36.5t-67 -25.5t-93.5 -9.5q-83 0 -146 26t-106.5 74t-65.5 117t-22 155v198q0 226 122 343.5t352 117.5h104z" />
    <glyph glyph-name="uni0E55" unicode="&#xe55;" horiz-adv-x="1036" 
d="M520 962q21 0 35.5 14t14.5 38q0 26 -14.5 40t-35.5 14q-22 0 -36.5 -14t-14.5 -40q0 -24 14.5 -38t36.5 -14zM702 1026q19 3 29 19.5t10 42.5q0 12 -3.5 34t-17.5 56q12 0 30 -0.5l36 -1t34.5 -1t26.5 -0.5t26 0.5t33.5 1t33.5 1t26 0.5v-60q0 -136 -81 -203t-227 -67
h-102q-53 0 -99 -14t-80 -47.5t-53.5 -89t-19.5 -138.5v-190q0 -55 8.5 -92.5t25 -61t40.5 -33.5t54 -10q45 0 72 19.5t49 51.5l115 -141q-18 -21 -38.5 -41.5t-49 -36.5t-67 -25.5t-93.5 -9.5q-83 0 -146 26t-106.5 74t-65.5 117t-22 155v198q0 168 62.5 274t192.5 152
q-2 7 -2.5 14.5t-0.5 12.5q0 40 14.5 73t39.5 55.5t59 35t73 12.5q37 0 70 -12t57.5 -33.5t39.5 -51t17 -65.5zM824 0q-75 0 -141.5 27t-116 76.5t-78.5 119t-29 154.5q0 60 17 108.5t48.5 83.5t76 54t98.5 19q46 0 92 -14t79 -36q-15 -28 -24 -53t-14.5 -45t-8 -33.5
t-3.5 -17.5h-13q-10 14 -28 25t-38 11q-25 0 -43.5 -25t-18.5 -88q0 -53 13 -90t35.5 -60t52 -33.5t61.5 -10.5q8 0 25.5 0.5t35.5 1.5q21 1 46 3q-2 -14 -3.5 -34t-2.5 -39.5t-1.5 -35t-0.5 -20.5v-48h-116z" />
    <glyph glyph-name="uni0E56" unicode="&#xe56;" horiz-adv-x="1004" 
d="M26 1177q15 0 28 -0.5t27.5 -0.5t32 -0.5t41.5 -0.5h16.5t20 0.5t27 1.5t37.5 3l62 -227q13 13 34 27.5t48 26.5t58 20t64 8q199 0 297 -102.5t98 -295.5v-249q0 -44 -5 -91t-20 -91.5t-42 -84.5t-71.5 -69.5t-108.5 -47t-153 -17.5q-47 0 -82 4t-63 10.5t-51.5 14.5
t-48.5 17.5t-53.5 18.5t-65.5 17v79q0 46 -0.5 77.5t-1 58.5t-2 53t-3.5 62q12 0 27 -0.5t30.5 -1t30 -1t24.5 -0.5t25 0.5t31 1t31.5 1t27.5 0.5q-2 -36 -3.5 -69.5t-2 -61.5t-0.5 -48v-28v-4q13 -5 31 -10t39 -10t43.5 -8t45.5 -3q54 0 86.5 23.5t50.5 57t24 72t6 68.5
v259q0 109 -47 166.5t-134 57.5q-40 0 -70.5 -10.5t-53 -29t-39 -43t-28.5 -52.5h-141z" />
    <glyph glyph-name="uni0E57" unicode="&#xe57;" horiz-adv-x="1333" 
d="M83 781q0 64 19.5 111.5t52.5 79t77.5 47.5t95.5 16q75 0 123.5 -27.5t65.5 -72.5q10 21 28 39t41.5 31.5t51.5 21.5t58 8q59 0 102.5 -15t71.5 -48.5t41.5 -87.5t13.5 -132v-606q22 2 42 10t35 27.5t23.5 53.5t8.5 90v518v115.5t-1.5 81t-4 63.5t-7.5 65q12 0 29 -0.5
t35 -1t34 -1t27 -0.5q10 0 26.5 0.5t34.5 1t35 1t29 0.5q-5 -36 -7.5 -63.5t-4 -61.5t-1.5 -80.5v-119.5v-482q0 -101 -22 -171t-67.5 -114t-115.5 -64t-166 -20q-35 0 -83 2t-99 11v760q0 56 -15 76t-38 20q-30 0 -41.5 -22.5t-11.5 -73.5v-41t0.5 -53.5t1.5 -57t3 -52.5
q-24 1 -52 1.5t-42 0.5q-15 0 -43.5 -0.5t-52.5 -1.5q2 24 3 54t1.5 59.5t0.5 54v36.5q0 51 -11.5 73.5t-42.5 22.5q-27 0 -42 -21t-15 -66v-524q0 -35 5.5 -58t16 -36.5t25.5 -19t34 -5.5q17 0 32.5 2t37.5 5l-22 -121q-31 -11 -59.5 -17.5t-68.5 -6.5q-120 0 -173 66.5
t-53 186.5v533z" />
    <glyph glyph-name="uni0E58" unicode="&#xe58;" horiz-adv-x="1072" 
d="M305 271q0 -35 5.5 -58t16.5 -37t27.5 -19.5t37.5 -5.5l138 125h29l147 -125q6 4 13 15t12 26t8.5 32t3.5 34q0 59 -0.5 93t-1.5 51q-1 20 -2 27q-28 -2 -68 -6t-75 -11q0 6 1 20t2 30t1.5 29.5t0.5 19.5q0 11 -0.5 29t-4.5 55h379q-4 -44 -6 -90t-3 -89.5t-1 -84v-73.5
q0 -54 -14 -103.5t-42.5 -86.5t-72 -59t-101.5 -22h-80l-112 110l-107 -108h-66q-71 0 -126 22t-92 61t-56 92t-19 115v280q0 226 117 343.5t348 117.5h132q46 0 64.5 16.5t18.5 47.5q0 20 -3 43t-14 52q10 0 27 -1t36 -1.5t36.5 -1t27.5 -0.5t25.5 0.5t32 1t32 1t25.5 0.5
v-60q0 -136 -82 -203t-236 -67h-120q-54 0 -98 -14t-75.5 -47.5t-48.5 -89t-17 -138.5v-288z" />
    <glyph glyph-name="uni0E59" unicode="&#xe59;" horiz-adv-x="1028" 
d="M81 744q0 62 21 115t59.5 91.5t91.5 60.5t118 22q78 0 133.5 -27t94.5 -88q12 46 42 77t90 31q39 0 53 19t14 46t-5 51t-10 37q9 0 25 -0.5t33.5 -1t34.5 -0.5h28h28.5h34t32.5 0.5t24 0.5v-79q0 -106 -54 -166.5t-163 -60.5q-57 0 -79 -32t-22 -101l139 -499
q8 -28 17.5 -61t19.5 -66t19 -62.5t17 -50.5h-249l-207 786q-11 42 -27.5 58.5t-47.5 16.5q-37 0 -58.5 -28.5t-21.5 -82.5v-466q0 -44 4.5 -72.5t16.5 -46t32 -24.5t50 -7q28 0 52.5 4t47.5 12l-21 -129q-17 -6 -33 -10.5t-32.5 -8t-35 -5.5t-42.5 -2q-132 0 -198 69.5
t-66 202.5v477z" />
    <glyph glyph-name="endash" unicode="&#x2013;" horiz-adv-x="1086" 
d="M315 508q-15 0 -38 -0.5t-48 -1.5t-50 -2.5t-46 -2.5v12.5t0.5 25t0.5 29v25.5v25.5t-0.5 29.5t-0.5 25v14q24 -2 51.5 -3t53 -2t46 -1.5t31.5 -0.5h434q16 0 39.5 0.5t49.5 2t52 2.5t46 3q-5 -26 -5.5 -48t-0.5 -45q0 -20 0.5 -41.5t5.5 -52.5q-24 1 -52 2.5t-54.5 2.5
t-48 1.5t-32.5 0.5h-434z" />
    <glyph glyph-name="emdash" unicode="&#x2014;" horiz-adv-x="1196" 
d="M279 508q-16 0 -38.5 -0.5t-48 -1.5t-50.5 -2.5t-45 -2.5v12.5t0.5 25t0.5 29v25.5v25.5t-0.5 29.5t-0.5 25v14q24 -2 51 -3t52.5 -2t46.5 -1.5t32 -0.5h612q16 0 39.5 0.5t49.5 2t52 2.5t46 3q-5 -26 -5.5 -48t-0.5 -45q0 -20 0.5 -41.5t5.5 -52.5q-24 1 -52 2.5
t-54.5 2.5t-48 1.5t-32.5 0.5h-612z" />
    <glyph glyph-name="quoteleft" unicode="&#x2018;" horiz-adv-x="445" 
d="M392 1330q-24 -52 -42 -107q-16 -48 -29 -107t-13 -119q0 -38 1 -85.5t9 -89.5q-26 1 -55 1.5t-48 0.5h-26.5t-34.5 -0.5l-36 -1t-30 -0.5v118q0 64 12 117t32.5 99.5t49 88.5t61.5 85h149z" />
    <glyph glyph-name="quoteright" unicode="&#x2019;" horiz-adv-x="445" 
d="M34 822q24 51 42 106q16 48 29 107.5t13 119.5q0 38 -1 85.5t-9 89.5q26 -1 55 -1.5t48 -0.5h26.5t34.5 0.5l36 1t30 0.5v-118q0 -42 -6 -81.5t-23 -84.5t-47 -99t-79 -125h-149z" />
    <glyph glyph-name="quotesinglbase" unicode="&#x201a;" horiz-adv-x="435" 
d="M54 -338q24 51 42 106q16 48 29 107.5t13 119.5q0 38 -1 85.5t-9 89.5q26 -1 55 -1.5t48 -0.5h26.5t34.5 0.5l36 1t30 0.5v-118q0 -42 -6 -81.5t-23 -84.5t-47 -99t-79 -125h-149z" />
    <glyph glyph-name="quotedblleft" unicode="&#x201c;" horiz-adv-x="751" 
d="M689 1330q-24 -52 -42 -107q-16 -48 -29 -107t-13 -119q0 -38 1 -85.5t9 -89.5q-26 1 -55 1.5t-48 0.5h-26.5t-34.5 -0.5l-36 -1t-30 -0.5v118q0 42 6 81.5t23 84.5t47 99t79 125h149zM373 1330q-24 -52 -42 -107q-16 -48 -29 -107t-13 -119q0 -38 1 -85.5t9 -89.5
q-26 1 -55 1.5t-48 0.5h-26.5t-34.5 -0.5l-36 -1t-30 -0.5v118q0 42 6 81.5t23 84.5t47 99t79 125h149z" />
    <glyph glyph-name="quotedblright" unicode="&#x201d;" horiz-adv-x="751" 
d="M34 822q24 51 42 106q16 48 29 107.5t13 119.5q0 38 -1 85.5t-9 89.5q26 -1 55 -1.5t48 -0.5h26.5t34.5 0.5l36 1t30 0.5v-118q0 -42 -6 -81.5t-23 -84.5t-47 -99t-79 -125h-149zM350 822q24 51 42 106q16 48 29 107.5t13 119.5q0 38 -1 85.5t-9 89.5q26 -1 55 -1.5
t48 -0.5h26.5t34.5 0.5l36 1t30 0.5v-118q0 -42 -6 -81.5t-23 -84.5t-47 -99t-79 -125h-149z" />
    <glyph glyph-name="quotedblbase" unicode="&#x201e;" horiz-adv-x="740" 
d="M54 -338q24 51 42 106q16 48 29 107.5t13 119.5q0 38 -1 85.5t-9 89.5q26 -1 55 -1.5t48 -0.5h26.5t34.5 0.5l36 1t30 0.5v-118q0 -42 -6 -81.5t-23 -84.5t-47 -99t-79 -125h-149zM348 -338q24 51 42 106q16 48 29 107.5t13 119.5q0 38 -1 85.5t-9 89.5q26 -1 55 -1.5
t48 -0.5h26.5t34.5 0.5l36 1t30 0.5v-118q0 -42 -6 -81.5t-23 -84.5t-47 -99t-79 -125h-149z" />
    <glyph glyph-name="dagger" unicode="&#x2020;" horiz-adv-x="928" 
d="M580 0h-248l38 844l-307 -38v214l305 -38q-4 41 -9 86t-10.5 90.5t-10 89t-8.5 82.5h254l-41 -348q36 4 76 9t79.5 10t77.5 10t70 9v-214l-304 38z" />
    <glyph glyph-name="daggerdbl" unicode="&#x2021;" horiz-adv-x="928" 
d="M579 604l-29 -98q36 4 75 9t77.5 10t75 9.5t68.5 8.5v-216l-303 39q10 -91 20 -184t19 -182h-252l38 366l-305 -39v216l299 -37l-29 98v141l28 98q-36 -5 -74.5 -9.5t-77.5 -9.5t-76.5 -9.5t-69.5 -8.5v214l305 -38q-4 41 -9 86t-10.5 90.5t-10 89t-8.5 82.5h254
l-41 -348q36 4 76 9t79.5 10t77.5 10t70 9v-214l-297 37l30 -98v-141z" />
    <glyph glyph-name="bullet" unicode="&#x2022;" horiz-adv-x="572" 
d="M90 597q0 39 13.5 71t38.5 55t60 35.5t78 12.5q42 0 77 -12.5t60 -35.5t38.5 -55t13.5 -71t-13.5 -71t-38.5 -55t-60 -35.5t-77 -12.5q-43 0 -78 12.5t-60 35.5t-38.5 55t-13.5 71z" />
    <glyph glyph-name="ellipsis" unicode="&#x2026;" horiz-adv-x="1323" 
d="M97 120q0 54 37.5 87t97.5 33q61 0 98 -33t37 -87t-37 -87.5t-98 -33.5q-60 0 -97.5 33.5t-37.5 87.5zM513 120q0 54 37.5 87t97.5 33q61 0 98 -33t37 -87t-37 -87.5t-98 -33.5q-60 0 -97.5 33.5t-37.5 87.5zM929 120q0 54 37.5 87t97.5 33q61 0 98 -33t37 -87t-37 -87.5
t-98 -33.5q-60 0 -97.5 33.5t-37.5 87.5z" />
    <glyph glyph-name="perthousand" unicode="&#x2030;" horiz-adv-x="2400" 
d="M408 689q24 0 44 12t33.5 40.5t21 75t7.5 116.5t-7.5 117t-21 75.5t-33.5 40.5t-44 12t-44 -12t-33.5 -40.5t-21 -75.5t-7.5 -117t7.5 -116.5t21 -75t33.5 -40.5t44 -12zM736 159q-18 -41 -31 -79t-18 -80q-14 0 -25 0.5t-21.5 0.5t-22 0.5t-27.5 0.5q-8 0 -24 -0.5
t-34 -1t-35 -1.5t-27 -1l491 1129q11 25 22 53.5t20 56.5t15.5 52.5t8.5 40.5q29 0 52.5 -1t55.5 -1q7 0 23 0.5t34 1t35.5 1.5t27.5 1zM408 539q-147 0 -222.5 95t-75.5 299q0 205 75.5 300t222.5 95t222.5 -95t75.5 -300q0 -204 -75.5 -299t-222.5 -95zM1302 135
q24 0 44 12t33.5 40.5t21 75t7.5 116.5t-7.5 117t-21 75.5t-33.5 40.5t-44 12t-44 -12t-33.5 -40.5t-21 -75.5t-7.5 -117t7.5 -116.5t21 -75t33.5 -40.5t44 -12zM1302 -15q-147 0 -222.5 95t-75.5 299q0 205 75.5 300t222.5 95t222.5 -95t75.5 -300q0 -204 -75.5 -299
t-222.5 -95zM1992 135q24 0 44 12t33.5 40.5t21 75t7.5 116.5t-7.5 117t-21 75.5t-33.5 40.5t-44 12t-44 -12t-33.5 -40.5t-21 -75.5t-7.5 -117t7.5 -116.5t21 -75t33.5 -40.5t44 -12zM1992 -15q-147 0 -222.5 95t-75.5 299q0 205 75.5 300t222.5 95t222.5 -95t75.5 -300
q0 -204 -75.5 -299t-222.5 -95z" />
    <glyph glyph-name="guilsinglleft" unicode="&#x2039;" horiz-adv-x="603" 
d="M285 174l-181 394l181 394h204l-129 -394l129 -394h-204z" />
    <glyph glyph-name="guilsinglright" unicode="&#x203a;" horiz-adv-x="603" 
d="M114 174l129 394l-129 394h204l181 -394l-181 -394h-204z" />
    <glyph glyph-name="fraction" unicode="&#x2044;" horiz-adv-x="453" 
d="M88 23q-10 -26 -20 -56t-18 -58.5t-14 -53t-7 -38.5q-10 0 -25 0.5t-31 1t-30 1t-23 0.5q-7 0 -23 -0.5t-34 -1t-35 -1.5t-27 -1l555 1508q9 25 19 55.5t18 59t14 53t8 38.5q10 0 25 -0.5t30.5 -1t29.5 -1t23 -0.5q7 0 23 0.5t34 1t35.5 1.5t27.5 1z" />
    <glyph glyph-name="Euro" unicode="&#x20ac;" horiz-adv-x="988" 
d="M243 460q-16 0 -38.5 -0.5t-48 -1.5t-50.5 -2t-46 -2v11t0.5 23t0.5 27v23v23.5t-0.5 28t-0.5 24v13.5q24 -2 51.5 -3t53 -2t46.5 -1.5t32 -0.5h332q16 0 39.5 0.5t49.5 2t51.5 2.5t46.5 3q-5 -26 -5.5 -47t-0.5 -41q0 -18 0.5 -37t5.5 -49q-24 1 -52 2t-54.5 2t-48 1.5
t-32.5 0.5h-332zM243 743q-16 0 -38.5 -0.5t-48 -1.5t-50.5 -2.5t-46 -2.5v12t0.5 23t0.5 27v23v23.5t-0.5 28t-0.5 24v13.5q24 -2 51.5 -3t53 -2t46.5 -1.5t32 -0.5h332q16 0 39.5 0.5t49.5 2t51.5 2.5t46.5 3q-5 -26 -5.5 -47t-0.5 -41q0 -18 0.5 -37.5t5.5 -49.5
q-24 1 -52 2.5t-54.5 2.5t-48 1.5t-32.5 0.5h-332zM936 195l-26 -170q-21 -5 -47 -11.5t-53.5 -12.5t-55.5 -10t-54 -4q-137 0 -238.5 41t-168.5 126.5t-100 217t-33 313.5q0 147 30.5 268.5t95 208t164.5 134t240 47.5q72 0 131.5 -19.5t120.5 -54.5q-16 -32 -29 -55.5
t-23 -43.5t-17 -38t-10 -37h-18q-12 10 -24 22t-30 22.5t-46 17t-71 6.5q-58 0 -103 -24t-76.5 -81t-48 -151t-16.5 -235q0 -149 17 -246.5t49.5 -155.5t80.5 -81.5t111 -23.5q43 0 74 4t56.5 10.5t48.5 14.5t50 17z" />
    <glyph glyph-name="trademark" unicode="&#x2122;" horiz-adv-x="1450" 
d="M858 1040v-103v-122.5t1 -85t2.5 -62.5t4.5 -55q-12 0 -27.5 0.5t-30.5 1t-28 0.5h-21h-21t-28 -0.5l-30 -1t-27 -0.5q3 28 4 56.5t2 65t1 85.5v118v250h-201v-250v-122.5t1 -85t2.5 -62.5t4.5 -55q-13 0 -29 0.5t-31.5 1t-29.5 0.5h-22q-17 0 -48 -0.5t-56 -1.5
q3 28 4.5 56.5t2.5 65t1 85.5v118v250h-35h-35t-42.5 -1l-45 -2t-41.5 -2v11.5t0.5 22t0.5 25.5v22v20.5t-0.5 22t-0.5 19v11.5q12 -2 32 -3t43 -1.5t46.5 -1t42.5 -0.5h630l142 -251l135 251h192v-393v-122.5t1 -85t2 -62.5t4 -55q-12 0 -26.5 0.5l-29 1t-27.5 0.5h-21
h-21.5t-29 -0.5l-31 -1t-27.5 -0.5q3 28 4.5 56.5t2.5 65t1 85.5v118v103l-71 -134q-29 3 -40 3.5t-23 0.5h-11.5t-12.5 -0.5t-16 -1.5t-24 -2z" />
    <glyph glyph-name="Omega" unicode="&#x2126;" horiz-adv-x="1084" 
d="M539 1171q-53 0 -89 -23.5t-57.5 -80t-31 -151t-9.5 -236.5q0 -117 10 -206.5t29 -155t47 -109.5t64 -71v-138h-180q-11 0 -38 -1t-59.5 -2t-65.5 -3t-55 -3v13.5t0.5 24.5t0.5 28v24v24t-0.5 27.5t-0.5 24v12.5q38 -2 77 -4t70 -2q-28 36 -54.5 85t-47 113.5t-33 145.5
t-12.5 182q0 167 19.5 290t69 204t133.5 120.5t213 39.5t213.5 -39.5t134 -120.5t69 -204t19.5 -290q0 -102 -12 -183.5t-32.5 -145.5t-47 -112t-54.5 -84q18 1 39.5 1.5t42.5 1.5t39.5 1.5t29.5 1.5q-5 -26 -5.5 -47t-0.5 -42q0 -19 0.5 -39t5.5 -51q-23 1 -56.5 3t-67.5 3
t-62 2t-38 1h-180v138q37 27 65 71t47 109.5t29 155t10 206.5q0 142 -9.5 236.5t-31.5 151t-58 80t-89 23.5z" />
    <glyph glyph-name="partialdiff" unicode="&#x2202;" horiz-adv-x="988" 
d="M478 691q-33 0 -61.5 -15t-50 -46.5t-33.5 -80.5t-12 -116q0 -75 13.5 -127.5t35.5 -85.5t51 -48t59 -15q33 0 62 14.5t50.5 47.5t34 88t12.5 136q0 119 -41 183.5t-120 64.5zM468 861q51 0 94 -12t76 -30q-6 97 -26.5 165t-53.5 110.5t-78 61.5t-100 19
q-39 0 -69.5 -2.5t-56.5 -7.5t-49 -14t-48 -22l-11 13l31 169q41 14 99 23.5t127 9.5q118 0 207 -37.5t149 -115.5t90 -198t30 -286v-124q0 -296 -101.5 -446t-292.5 -150q-98 0 -173 31.5t-127 89t-78.5 139t-26.5 182.5q0 108 30.5 189t83.5 135t123.5 81t150.5 27z" />
    <glyph glyph-name="Delta" unicode="&#x2206;" horiz-adv-x="1007" 
d="M417 1333q24 -2 53.5 -2.5t48.5 -0.5q18 0 47.5 0.5t55.5 2.5l326 -1162q7 -26 16.5 -55.5t19.5 -55.5q11 -30 23 -60h-997q13 29 24 59q10 26 20.5 56t18.5 57zM503 920q-26 -92 -51.5 -181.5t-50.5 -179t-50.5 -180.5t-52.5 -186h394z" />
    <glyph glyph-name="product" unicode="&#x220f;" horiz-adv-x="1115" 
d="M883 246q0 -39 4 -62t11 -34t17.5 -14t23.5 -3q20 0 36.5 2t39.5 5l-23 -121q-41 -13 -74.5 -18.5t-63.5 -5.5q-110 0 -161.5 61t-51.5 182v910h-183v-633v-166t0.5 -118.5t2 -83t4 -58.5t6 -45.5t8.5 -44.5q-13 0 -32.5 0.5t-40 1t-38.5 0.5h-29h-30t-39 -0.5t-39.5 -1
t-32.5 -0.5q5 24 8 44.5t5 45.5t3 58.5t1.5 83t0.5 118.5v166v630q-12 0 -31.5 -0.5t-41.5 -1.5t-45 -2.5t-43 -3.5q0 15 1 42.5t1 48.5q0 23 -1.5 52t-5.5 50h1010q-4 -21 -5.5 -50t-1.5 -52q0 -21 1 -48.5t1 -42.5q-20 2 -45 3.5t-49 2t-45 1t-33 0.5v-898z" />
    <glyph glyph-name="summation" unicode="&#x2211;" horiz-adv-x="928" 
d="M70 1243v89h609q10 0 32 0.5t48 1.5t54.5 2t52.5 3q-5 -30 -5.5 -52.5t-0.5 -42.5q0 -21 1 -45t6 -53q-20 1 -46 3t-52.5 3.5t-50 2.5t-39.5 1h-320l286 -632l-321 -668q183 1 318 7t223 27q-4 -36 -6 -65t-2 -52q0 -24 2 -52.5t7 -53.5q-24 1 -52 3t-54.5 3t-48.5 2
t-33 1h-632v101l356 720z" />
    <glyph glyph-name="minus" unicode="&#x2212;" horiz-adv-x="1044" 
d="M303 508q-15 0 -37 -0.5t-46 -1.5t-48 -2.5t-44 -2.5v12.5t0.5 25t0.5 29v25.5v25.5t-0.5 29.5t-0.5 25v14q23 -2 49 -3t50.5 -2t44.5 -1.5t31 -0.5h417q15 0 38 0.5t48 2t49.5 2.5t44.5 3q-5 -26 -5.5 -48t-0.5 -45q0 -20 0.5 -41.5t5.5 -52.5q-23 1 -50 2.5t-52.5 2.5
t-46.5 1.5t-31 0.5h-417z" />
    <glyph glyph-name="uni2215" unicode="&#x2215;" horiz-adv-x="436" 
d="M85 23q-9 -26 -18.5 -56t-17.5 -58.5t-14 -53t-7 -38.5q-10 0 -24.5 0.5t-29.5 1t-29 1t-22 0.5q-7 0 -22 -0.5t-32.5 -1t-34 -1.5t-25.5 -1l533 1508q9 25 18.5 55.5t17.5 59t13.5 53t7.5 38.5q10 0 24 -0.5t29 -1t29 -1t22 -0.5q7 0 22 0.5t32.5 1t34 1.5t26.5 1z" />
    <glyph glyph-name="uni2219" unicode="&#x2219;" horiz-adv-x="436" 
d="M123 589q0 43 26.5 69.5t69.5 26.5t69.5 -26.5t26.5 -69.5t-26.5 -69.5t-69.5 -26.5t-69.5 26.5t-26.5 69.5z" />
    <glyph glyph-name="radical" unicode="&#x221a;" horiz-adv-x="1096" 
d="M24 746q42 -3 70.5 -3.5t52.5 -0.5h29t33 0.5t33.5 1.5t30.5 2l8 -42q4 -18 8.5 -39.5t9.5 -41.5l84 -322l322 1247h388q-2 -26 -3.5 -54t-1.5 -50q0 -44 6 -92q-20 1 -48.5 2t-56.5 2t-52.5 1h-36.5h-14l-385 -1359q-8 0 -22 1t-29.5 1.5t-32 1t-29.5 0.5t-29 -0.5
l-32 -1t-29.5 -1.5t-20.5 -1l-205 609q-8 23 -16.5 47.5t-15.5 44.5q-9 24 -16 47z" />
    <glyph glyph-name="infinity" unicode="&#x221e;" horiz-adv-x="1441" 
d="M440 729q-68 0 -105 -31t-37 -107q0 -75 36.5 -105.5t105.5 -30.5q43 0 74 10t50 31.5t28 57t9 86.5q-21 43 -65.5 66t-95.5 23zM969 266q-73 0 -137 22.5t-116 84.5q-45 -51 -115.5 -79t-157.5 -28q-97 0 -166 22t-112.5 64t-63.5 102.5t-20 136.5q0 77 20 138t63.5 103
t112.5 64.5t166 22.5q72 0 137 -23.5t117 -84.5q44 51 113 79.5t159 28.5q97 0 166 -22.5t112.5 -64.5t63.5 -103t20 -138q0 -76 -20 -136.5t-63.5 -102.5t-112.5 -64t-166 -22zM972 455q69 0 105.5 30.5t36.5 105.5q0 77 -36.5 107.5t-105.5 30.5q-43 0 -73 -10t-49 -32
t-27.5 -57.5t-8.5 -86.5q20 -42 63 -65t95 -23z" />
    <glyph glyph-name="uni2224" unicode="&#x2224;" horiz-adv-x="436" 
d="M123 589q0 43 26.5 69.5t69.5 26.5t69.5 -26.5t26.5 -69.5t-26.5 -69.5t-69.5 -26.5t-69.5 26.5t-26.5 69.5z" />
    <glyph glyph-name="logicaland" unicode="&#x2227;" horiz-adv-x="436" 
d="M123 589q0 43 26.5 69.5t69.5 26.5t69.5 -26.5t26.5 -69.5t-26.5 -69.5t-69.5 -26.5t-69.5 26.5t-26.5 69.5z" />
    <glyph glyph-name="integral" unicode="&#x222b;" horiz-adv-x="643" 
d="M224 3q0 116 -9 232t-20 233.5t-20 236.5t-9 241q0 171 23 289.5t65.5 192.5t103 107t136.5 33q23 0 50.5 -8.5t51.5 -24.5t40 -39.5t16 -54.5q-9 -5 -21 -16t-23.5 -25.5t-21 -31t-13.5 -32.5h-18q-8 15 -16 34t-19 36.5t-26 29.5t-35 12q-17 0 -30.5 -11.5t-22.5 -38.5
t-14 -71.5t-5 -111.5q0 -118 7.5 -235.5t16.5 -236.5t16.5 -240.5t7.5 -245.5q0 -176 -23.5 -301t-64.5 -204.5t-96.5 -116.5t-118.5 -37q-32 0 -61.5 10t-53.5 29.5t-42 47.5t-25 64q27 19 53.5 38.5t46.5 48.5h24q4 -19 9 -39.5t12.5 -38t18.5 -29t28 -11.5
q22 0 37.5 23.5t25.5 62.5t14.5 90.5t4.5 108.5z" />
    <glyph glyph-name="approxequal" unicode="&#x2248;" horiz-adv-x="1007" 
d="M132 495q48 38 103.5 57.5t110.5 19.5q40 0 77.5 -11t73.5 -24.5t70.5 -24.5t70.5 -11q55 0 103 12.5t104 47.5v-168q-28 -17 -52 -29.5t-47.5 -20.5t-48.5 -12t-55 -4q-41 0 -78 11t-72 24.5t-70.5 24.5t-74.5 11q-35 0 -63 -4t-53 -13t-48.5 -23t-50.5 -34v171z
M132 806q31 18 56.5 29t48 17t42.5 8t38 2q12 0 24 -0.5t24 -0.5q47 0 83 -12t71 -26q3 -2 6 -2.5t6 -2.5q28 -11 54.5 -19.5t52.5 -8.5q82 0 207 80v-198q-28 -17 -55 -28t-54.5 -17t-55.5 -8.5t-58 -2.5q-46 0 -82.5 12t-69.5 26l-6 2l-6 2q-29 11 -56 20t-55 9
q-39 0 -96 -20.5t-119 -61.5v201z" />
    <glyph glyph-name="notequal" unicode="&#x2260;" horiz-adv-x="1086" 
d="M716 1066h216l-583 -940h-217zM315 339q-15 0 -38 -0.5t-48 -1.5t-50 -2.5t-46 -2.5v12.5t0.5 25t0.5 29v25.5v25.5t-0.5 29.5t-0.5 25v14q24 -2 51.5 -3t53 -2t46 -1.5t31.5 -0.5h434q16 0 39.5 0.5t49.5 2t52 2.5t46 3q-5 -26 -5.5 -48.5t-0.5 -44.5q0 -20 0.5 -42
t5.5 -52q-24 1 -52 2.5t-54.5 2.5t-48 1.5t-32.5 0.5h-434zM315 681q-15 0 -38 -0.5t-48 -1.5l-50 -2t-46 -2v12t0.5 25t0.5 29v25v25.5t-0.5 29.5t-0.5 25v14q24 -2 51.5 -3t53 -2t46 -1.5t31.5 -0.5h434q16 0 39.5 0.5t49.5 2t52 2.5t46 3q-5 -26 -5.5 -48t-0.5 -45
q0 -20 0.5 -41.5t5.5 -51.5q-24 1 -52 2t-54.5 2t-48 1.5t-32.5 0.5h-434z" />
    <glyph glyph-name="lessequal" unicode="&#x2264;" horiz-adv-x="1086" 
d="M934 449q-2 -16 -3 -42t-1 -57q0 -17 1 -46t3 -71l-804 358q4 23 4.5 36.5t0.5 24.5q0 13 -0.5 26.5t-3.5 35.5l803 409q-2 -22 -3 -51.5t-1 -68.5q0 -37 1 -59t3 -39l-504 -245zM315 4h-38.5t-47.5 -0.5t-50 -1.5t-46 -2v12t0.5 22.5t0.5 26.5v23v23t-0.5 27t-0.5 23v13
q24 -2 51 -2.5t52.5 -1t46.5 -0.5h32h436h32t46.5 0.5t53 1t51.5 2.5q0 -3 -0.5 -13t-0.5 -23t-0.5 -27t-0.5 -23t0.5 -23t0.5 -26.5t0.5 -22.5t0.5 -12q-21 1 -46 2t-50.5 1.5t-48 0.5h-38.5h-436z" />
    <glyph glyph-name="greaterequal" unicode="&#x2265;" horiz-adv-x="1086" 
d="M634 660l-504 245q2 17 3 39t1 59q0 39 -1 68.5t-3 51.5l803 -409q-3 -22 -3.5 -35.5t-0.5 -26.5q0 -11 0.5 -24.5t4.5 -36.5l-804 -358q2 42 3 71t1 46q0 31 -1 57t-3 42zM313 4h-38.5t-48 -0.5t-50.5 -1.5t-46 -2q0 2 0.5 12t0.5 22.5t0.5 26.5t0.5 23t-0.5 23t-0.5 27
t-0.5 23t-0.5 13q24 -2 51.5 -2.5t53 -1t46.5 -0.5h32h436h32t46.5 0.5t52.5 1t51 2.5v-13t-0.5 -23t-0.5 -27v-23v-23t0.5 -26.5t0.5 -22.5v-12q-21 1 -46 2t-50 1.5t-47.5 0.5h-38.5h-436z" />
    <glyph glyph-name="dotmath" unicode="&#x22c5;" horiz-adv-x="436" 
d="M123 589q0 43 26.5 69.5t69.5 26.5t69.5 -26.5t26.5 -69.5t-26.5 -69.5t-69.5 -26.5t-69.5 26.5t-26.5 69.5z" />
    <glyph glyph-name="uni25AF" unicode="&#x25af;" horiz-adv-x="954" 
d="M124 1330h706v-1330h-706v1330zM688 136v1058h-422v-1058h422z" />
    <glyph glyph-name="lozenge" unicode="&#x25ca;" horiz-adv-x="924" 
d="M666 664l-204 409l-204 -409l204 -409zM462 1328q10 0 25 0.5t54 4.5l341 -669l-341 -665q-8 0 -19 0.5t-22.5 1t-21.5 1t-16 0.5t-16 -0.5t-21.5 -1t-22.5 -1t-19 -0.5l-341 665l341 669q39 -4 54 -4.5t25 -0.5z" />
    <glyph glyph-name="uni0E10.alt1" unicode="&#xf700;" horiz-adv-x="1026" 
d="M529 168q76 6 105.5 67.5t29.5 170.5v328q0 67 -13.5 114t-41 77t-70 43.5t-99.5 13.5q-41 0 -80.5 -9.5t-75 -25.5t-63.5 -36t-45 -41h-30q-3 18 -6.5 33t-11 34.5t-21 47.5t-37.5 72q28 19 71 37.5t93 33t104 23t104 8.5q114 0 201 -24t146 -75t89 -131.5t30 -194.5
v-333q0 -81 -23.5 -154t-73.5 -128t-127.5 -87t-184.5 -32h-172q0 45 -4.5 84.5t-12.5 87.5q-6 39 -11.5 72.5t-11 65.5t-11 65.5t-12.5 72.5q-19 0 -33.5 -1t-29 -2.5t-30.5 -4t-37 -5.5q0 5 0.5 19t1 30.5t0.5 32v23.5v84h334zM576 1142q45 0 94 8.5t97.5 22t95 31
t86.5 36.5l15 -8q-3 -12 -4 -34.5t-2 -50.5t-1 -58.5v-58.5q-36 -8 -77.5 -12.5t-82 -7t-77 -3.5t-60.5 -1z" />
    <glyph glyph-name="uni0E34.alt1" unicode="&#xf701;" 
d="M-492 1328q-26 0 -59.5 0.5t-70 0.5t-72.5 0.5t-66 0.5q-25 0 -61 -0.5t-74.5 -1.5t-75 -1.5t-60.5 -0.5q-38 0 -65 -2t-47 -8l-3 4q7 17 15.5 39.5t17.5 45t16 43t11 32.5q24 3 66.5 4.5t90 3t93.5 2t76 0.5q85 0 179 -1.5t180 -5.5q-1 -6 -1.5 -18.5t-1 -27t-0.5 -27
v-18.5t0.5 -15t1 -19.5t1 -19.5t1.5 -15q-17 1 -33 2q-14 1 -29.5 2t-29.5 1z" />
    <glyph glyph-name="uni0E35.alt1" unicode="&#xf702;" 
d="M-577 1455q0 25 -0.5 41.5t-1 32.5t-0.5 34v46q11 -2 36.5 -2.5t53 -0.5t53 0.5t36.5 2.5v-286q-20 1 -39 2q-17 1 -35 2t-32 1q-27 0 -61 0.5t-70 0.5t-72 0.5t-68 0.5q-26 0 -59 -0.5t-67.5 -1.5t-67.5 -1.5t-58 -0.5q-41 0 -69 -2t-49 -8l-3 4q7 18 16 40.5t18 44.5
t16.5 41.5t11.5 32.5q25 3 64.5 5t84 3.5t87.5 2t75 0.5q58 0 109.5 -0.5t109.5 -2.5z" />
    <glyph glyph-name="uni0E36.alt1" unicode="&#xf703;" 
d="M-732 1479v10q0 41 13.5 73t37 54t54 33.5t65.5 11.5q36 0 67 -11t54 -32.5t36.5 -54t13.5 -74.5q0 -77 -46.5 -121.5t-124.5 -44.5q-27 0 -52 1t-51 2.5t-53.5 2.5t-59.5 1q-26 0 -59 -0.5t-67.5 -1.5t-67.5 -1.5t-58 -0.5q-41 0 -69 -2t-49 -8l-3 4q7 18 16 40.5
t18 44.5t16.5 41.5t11.5 32.5q25 3 66.5 5t87.5 3.5t90.5 2t76.5 0.5h52zM-511 1491q0 63 -51 63q-50 0 -50 -63q0 -64 50 -64q51 0 51 64z" />
    <glyph glyph-name="uni0E37.alt1" unicode="&#xf704;" 
d="M-559 1475q0 25 -0.5 38.5t-1 25.5t-0.5 27v43q11 -2 32 -2.5t44 -0.5t44 0.5t32 2.5v-286l-34 2q-14 1 -31 2t-31 1q-27 0 -62.5 0.5t-73.5 0.5t-75.5 0.5t-69.5 0.5q-26 0 -57.5 -0.5t-64 -1.5t-64 -1.5t-56.5 -0.5q-41 0 -69 -2t-49 -8l-3 4q7 18 16 40.5t18 44.5
t16.5 41.5t11.5 32.5q25 3 60 5t73.5 3.5t77 2t70.5 0.5h63.5t69.5 -0.5t69.5 -1t63.5 -1.5zM-616 1481h-146q0 25 -0.5 37.5t-1 23.5t-0.5 25v42q12 -2 32 -2.5t42 -0.5t42.5 0.5t31.5 2.5v-128z" />
    <glyph glyph-name="uni0E48.alt1" unicode="&#xf705;" 
d="M-487 1302q-8 1 -30.5 1.5t-48.5 0.5t-49 -0.5t-30 -1.5q-3 40 -7 78q-3 32 -6 66.5t-4 59.5q-2 26 -2.5 40t-0.5 26t-0.5 26t-1.5 40q51 -2 99.5 -2t102.5 2q-1 -26 -1.5 -40t-0.5 -26t-1 -26t-2 -40q-2 -25 -4.5 -59.5t-5.5 -66.5q-4 -38 -7 -78z" />
    <glyph glyph-name="uni0E49.alt1" unicode="&#xf706;" 
d="M-678 1619v-143h33q10 0 31.5 0.5t50 1t62 1.5t68.5 3q0 -9 -0.5 -32t-0.5 -49v-49.5t1 -33.5q-26 1 -55.5 2t-58 1.5t-54 0.5h-43.5h-233q2 12 5 33q2 18 3.5 46.5t1.5 71.5h-33t-31.5 -0.5t-36 -1.5t-45.5 -2q1 10 1 32v46t-0.5 45t-0.5 30q34 -2 54.5 -2.5t32.5 -0.5
h20h19h209z" />
    <glyph glyph-name="uni0E4A.alt1" unicode="&#xf707;" 
d="M-677 1397q0 28 -7 43.5t-33 15.5q-21 0 -38 -12.5t-25 -27.5h-18q-12 19 -29 29.5t-38 10.5q-17 0 -28.5 -14t-11.5 -38q0 -26 5 -44q2 -10 5 -18h-174q-4 11 -8 25q-3 12 -5.5 30t-2.5 41q0 38 11.5 69.5t33.5 54.5t52.5 36t68.5 13q50 0 82.5 -16t49.5 -42
q17 26 47 42t84 16q68 0 103 -31.5t35 -87.5v-8q7 0 22 1t32.5 3t35 5t29.5 8v-165q-21 1 -47 3q-22 1 -50.5 2t-61.5 1h-119v55z" />
    <glyph glyph-name="uni0E4B.alt1" unicode="&#xf708;" 
d="M-725 1658q25 -1 48 -1.5t45 -0.5t45 0.5t50 1.5q0 -38 -0.5 -65.5t-2.5 -56.5q30 0 65.5 0.5t73.5 3.5q0 -4 -0.5 -24t-0.5 -43.5t0.5 -44.5t0.5 -26q-47 3 -84 3.5t-59 0.5l-6 -134q-8 1 -31 1.5t-50 0.5t-50.5 -0.5t-30.5 -1.5q-1 20 -2 42q-1 19 -2.5 42.5t-2.5 49.5
q-31 0 -66 -0.5t-76 -3.5q0 4 0.5 24t0.5 43.5t-0.5 44.5t-0.5 26q45 -3 80.5 -3.5t58.5 -0.5q-2 31 -2.5 57t-0.5 65z" />
    <glyph glyph-name="uni0E4C.alt1" unicode="&#xf709;" 
d="M-512 1384q-40 0 -53 -12t-13 -43q0 -19 2 -28t4 -25q-6 1 -21.5 1.5t-32.5 0.5h-32.5h-21.5h-22h-31.5t-31 -0.5t-20.5 -1.5q-3 12 -5 26q-2 12 -3.5 27.5t-1.5 32.5q0 95 57.5 141.5t188.5 46.5h46q27 0 53.5 1.5t46.5 3.5q24 2 45 5l6 -10q-8 -45 -22.5 -88t-19.5 -78
h-118z" />
    <glyph glyph-name="uni0E48.alt2" unicode="&#xf70a;" 
d="M-153 1302q-8 1 -30.5 1.5t-48.5 0.5t-49 -0.5t-30 -1.5q-3 40 -7 78q-3 32 -6 66.5t-4 59.5q-2 26 -2.5 40t-0.5 26t-0.5 26t-1.5 40q51 -2 99.5 -2t102.5 2q-1 -26 -1.5 -40t-0.5 -26t-1 -26t-2 -40q-2 -25 -4.5 -59.5t-5.5 -66.5q-4 -38 -7 -78z" />
    <glyph glyph-name="uni0E49.alt2" unicode="&#xf70b;" 
d="M-266 1609v-133h73q10 0 31.5 0.5t50 1t62 1.5t68.5 3q0 -9 -0.5 -32t-0.5 -49v-49.5t1 -33.5q-26 1 -55.5 2t-58 1.5t-54 0.5h-43.5h-273q2 10 5 28q2 16 3.5 43t1.5 70h-35t-35 -0.5t-39 -1.5t-47 -2q1 10 1 32v46t-0.5 45t-0.5 30q34 -2 56 -2.5t36 -0.5h23.5h20.5
h209z" />
    <glyph glyph-name="uni0E4A.alt2" unicode="&#xf70c;" 
d="M-356 1409q0 39 -13.5 51.5t-36.5 12.5q-25 0 -47 -16.5t-36 -42.5h-18q-20 30 -40.5 43.5t-46.5 13.5q-22 0 -36 -16.5t-14 -45.5q0 -34 5 -52q2 -10 5 -15h-184q-4 11 -8 25q-3 12 -5.5 30t-2.5 41q0 39 12 74t36 61.5t61 42t87 15.5t87.5 -21.5t54.5 -53.5
q17 31 57 53t94 22q34 0 63 -9.5t50 -27.5t33 -44t12 -58v-8q25 0 46 1t40.5 3t39 5t43.5 8v-165q-25 1 -52 3q-23 1 -53.5 2t-63.5 1h-169v67z" />
    <glyph glyph-name="uni0E4B.alt2" unicode="&#xf70d;" 
d="M-326 1658q25 -1 48 -1.5t45 -0.5t45 0.5t50 1.5q0 -38 -0.5 -65.5t-2.5 -56.5q30 0 65.5 0.5t73.5 3.5q0 -4 -0.5 -24t-0.5 -43.5t0.5 -44.5t0.5 -26q-47 3 -84 3.5t-59 0.5l-6 -134q-8 1 -31 1.5t-50 0.5t-50.5 -0.5t-30.5 -1.5q-1 20 -2 42q-1 19 -2.5 42.5t-2.5 49.5
q-31 0 -66 -0.5t-76 -3.5q0 4 0.5 24t0.5 43.5t-0.5 44.5t-0.5 26q45 -3 80.5 -3.5t58.5 -0.5q-2 31 -2.5 57t-0.5 65z" />
    <glyph glyph-name="uni0E4C.alt2" unicode="&#xf70e;" 
d="M-245 1384q-40 0 -53 -12t-13 -43q0 -19 2 -28t4 -25q-6 1 -21.5 1.5t-32.5 0.5h-32.5h-21.5h-22h-31.5t-31 -0.5t-20.5 -1.5q-3 12 -5 26q-2 12 -3.5 27.5t-1.5 32.5q0 95 57.5 141.5t188.5 46.5h46q27 0 53.5 1.5t46.5 3.5q24 2 45 5l6 -10q-8 -45 -22.5 -88t-19.5 -78
h-118z" />
    <glyph glyph-name="uni0E0D.alt1" unicode="&#xf70f;" horiz-adv-x="1646" 
d="M1296 802v121.5t-1 85t-5 67t-11 66.5q13 0 32.5 -0.5t39.5 -1t38.5 -1t29.5 -0.5t29.5 0.5t38.5 1t39 1t31 0.5q-6 -35 -9.5 -63.5t-5 -64t-2 -85t-0.5 -127.5v-458q0 -77 -24 -142.5t-75 -113.5t-129 -75t-186 -27t-186.5 27t-129 75t-75 113.5t-24.5 142.5v451
q0 46 -7.5 82t-27 61t-54 38.5t-87.5 13.5q-72 0 -121.5 -19t-91.5 -45q17 -19 32.5 -53t15.5 -88v-529q0 -39 2 -63.5t7.5 -37.5t14 -17.5t21.5 -4.5q21 0 46 2t50 5l-23 -121q-46 -13 -82.5 -18.5t-65.5 -5.5q-110 0 -163 61t-53 182q0 56 1.5 113t1.5 127v340
q0 33 -10.5 59t-23.5 43q-15 20 -34 36v30q40 28 91.5 59t112 57t129.5 43t143 17q108 0 187 -24.5t130.5 -71.5t77 -115t25.5 -156v-451q0 -43 9 -78t29.5 -59.5t53 -37.5t79.5 -13t79.5 13t52.5 37.5t29 59.5t9 78v458z" />
    </font>
</defs>
</svg>
